<svg id="Camada_1" data-name="Camada 1" xmlns="http://www.w3.org/2000/svg" xmlns:xlink="http://www.w3.org/1999/xlink" viewBox="0 0 300 300"><defs><style>.cls-1{fill:url(#Gradiente_sem_nome);}.cls-2{fill:url(#Gradiente_sem_nome-2);}.cls-3{fill:url(#Gradiente_sem_nome-3);}.cls-4{fill:url(#Gradiente_sem_nome-4);}.cls-5{fill:url(#Gradiente_sem_nome-5);}</style><linearGradient id="Gradiente_sem_nome" x1="151.04" y1="9.51" x2="151.04" y2="290.01" gradientUnits="userSpaceOnUse"><stop offset="0" stop-color="#00ffe3"/><stop offset="0.17" stop-color="#08f3e3"/><stop offset="0.46" stop-color="#1fd3e2"/><stop offset="0.86" stop-color="#43a0e0"/><stop offset="0.97" stop-color="#4e90e0"/></linearGradient><linearGradient id="Gradiente_sem_nome-2" x1="137.58" y1="98.78" x2="137.58" y2="188.68" xlink:href="#Gradiente_sem_nome"/><linearGradient id="Gradiente_sem_nome-3" x1="197.8" y1="126.68" x2="197.8" y2="134.94" xlink:href="#Gradiente_sem_nome"/><linearGradient id="Gradiente_sem_nome-4" x1="198.08" y1="105.26" x2="198.08" y2="119.82" xlink:href="#Gradiente_sem_nome"/><linearGradient id="Gradiente_sem_nome-5" x1="198.01" y1="141.59" x2="198.01" y2="156.28" xlink:href="#Gradiente_sem_nome"/></defs><path class="cls-1" d="M26.16,290c-4.95-2.06-6.78-5.82-6.54-11.08.25-5.46,0-10.95.07-16.43,0-5.94,3.42-9.33,9.35-9.36s11.68,0,17.52,0h3.3c0-5,0-9.73,0-14.45,0-1.09-.06-2.19,0-3.28.22-2.64,1.81-4.18,4.17-4.15s3.91,1.56,4,4.28c.08,4.75,0,9.49,0,14.24v3.15H72.82V204.81c0-6.77,2.67-9.42,9.48-9.42H219.78c6.82,0,9.49,2.65,9.49,9.41q0,22.47,0,44.92v3.2h14.61c.05-.95.15-1.91.15-2.87q0-59,0-118a5.19,5.19,0,0,0-2-4.43q-44.35-38.09-88.6-76.3c-1.8-1.56-2.94-1.64-4.79,0q-44.24,38.22-88.61,76.28a5.5,5.5,0,0,0-2,4.7q.09,40.66,0,81.33c0,.91,0,1.83-.05,2.74a3.75,3.75,0,0,1-3.84,3.84c-2.32.11-3.77-1.22-4.18-3.51a17.6,17.6,0,0,1-.12-3q0-36.69,0-73.39v-3.82c-4.31,3.69-8.08,6.93-11.87,10.16-6,5.11-10.79,4.74-16-1.27-2.39-2.75-4.8-5.5-7.14-8.3-4-4.76-3.52-10.2,1.19-14.26q64-55.12,128-110.22c4.69-4,9.29-4,14,0q51,43.83,101.86,87.74a6,6,0,0,1,2.17,3.8c0,1.24-1.13,3.21-2.2,3.56a5.71,5.71,0,0,1-4.67-.8c-6.43-5.25-12.66-10.75-18.95-16.17q-41.5-35.73-83-71.5c-1.79-1.55-2.88-1.38-4.58.09Q85.79,73.55,22.78,127.74c-2.94,2.53-2.93,2.54-.38,5.5,2,2.28,4,4.49,5.86,6.88,1.47,1.92,2.59,1.89,4.4.31C45.4,129.34,58.23,118.36,71,107.35Q107.24,76.18,143.46,45c5.51-4.74,9.73-4.71,15.26.05l110.41,95c2.7,2.33,2.7,2.33,5.11-.46,2-2.35,4-4.78,6.09-7,1.53-1.61,1.61-2.75-.23-4.21-3.21-2.57-6.26-5.32-9.35-8-2.37-2.09-2.73-4.54-1-6.41s3.92-1.83,6.29.17c3.49,3,7,5.9,10.37,8.94,4.28,3.82,4.74,9.21,1.11,13.68q-4.15,5.09-8.58,9.95c-3.85,4.24-9.25,4.57-13.69.87-4.19-3.49-8.28-7.09-12.78-11V253.13c6.68,0,13.24,0,19.79,0a16,16,0,0,1,4.33.42,8.34,8.34,0,0,1,5.81,8.12c.09,6.57.07,13.14,0,19.71,0,4.4-2.73,6.92-6.46,8.61Zm248.06-8.34c0-6-.15-11.63.06-17.27.1-2.6-.77-3.16-3.22-3.16q-120.08.09-240.15.06c-.95,0-1.91.13-2.81.2v20.17ZM126.12,253V203.82H81.22V253Zm94.76,0V203.81H176V253ZM167.42,203.8H134.68V253h32.74Z"/><path class="cls-2" d="M171.94,157.27V108.11c-.83.19-1.5.29-2.14.5-8.37,2.81-16.73,5.69-25.13,8.43-1.6.52-2,1.33-2,2.94q.1,12.74,0,25.46a2.46,2.46,0,0,0,2.12,2.86c3.15.91,6.23,2,9.31,3.17,2.83,1,3.95,3.09,3.08,5.46s-2.94,3.16-5.62,2.29c-3.72-1.21-7.39-2.61-11.14-3.72a61.68,61.68,0,0,0-6.78-1.19v3.43c0,6.66,0,13.32,0,20-.05,6.35-4.47,10.92-10.48,11s-10.63-4.41-10.76-10.73c-.14-7-.1-14,0-21.08,0-1.91-.45-2.78-2.43-3.43C99.45,150,93.53,140,95.18,128.94c1.52-10.13,10.55-17.82,21.29-18.13h.27c15.57,1.7,30.14-2.13,44.38-7.92,3.54-1.43,7.22-2.53,10.87-3.68,4.62-1.46,8.21,1,8.23,5.76.07,18.43,0,36.86,0,55.29,0,2.84-1.12,4.95-3.84,6-2.13.84-6.36-.15-7.9-1.79a4,4,0,0,1,1-6.32A18,18,0,0,1,171.94,157.27ZM134.31,119c-6.15,0-12.07-.1-18,0a13.54,13.54,0,0,0-13.26,12.76c-.58,6.63,4.15,13.39,11,14.12,6.62.71,13.38.16,20.23.16Zm-8.94,35.84H120.5v11.65c0,3.73-.16,7.48.12,11.19.08,1,1.51,1.84,2.32,2.75.81-.79,2.31-1.57,2.32-2.38C125.44,170.37,125.37,162.65,125.37,154.87Z"/><path class="cls-3" d="M197.68,134.9c-1.73,0-3.46.1-5.18,0a4.17,4.17,0,0,1-4.12-4.23c.08-2.23,1.82-3.85,4.38-3.91,3.36-.06,6.73-.07,10.1,0,2.63.06,4.28,1.6,4.36,3.9s-1.67,4.11-4.36,4.26c-1.72.1-3.45,0-5.18,0Z"/><path class="cls-4" d="M193.43,119.82c-.78-.64-2.46-1.37-2.87-2.54s-.25-3.51.61-4.39a67.56,67.56,0,0,1,8.41-6.92c1.66-1.21,3.52-.81,4.95.68s1.87,3.43.53,4.7c-3.07,2.93-6.53,5.45-9.85,8.1C195,119.65,194.51,119.61,193.43,119.82Z"/><path class="cls-5" d="M193.6,141.59a13.43,13.43,0,0,1,2.83,1.14c2.66,2.06,5.32,4.14,7.83,6.37a3.8,3.8,0,0,1,.44,5.6c-1.54,1.73-3.5,2.13-5.37.75a64.08,64.08,0,0,1-8-6.59,5.09,5.09,0,0,1-.9-4.35C190.85,143.27,192.58,142.47,193.6,141.59Z"/></svg>