<svg xmlns="http://www.w3.org/2000/svg" xmlns:xlink="http://www.w3.org/1999/xlink" viewBox="0 0 300 300"><defs><style>.cls-1{fill:url(#_256);}.cls-2{fill:url(#_256-2);}.cls-3{fill:url(#_256-3);}.cls-4{fill:url(#_256-4);}.cls-5{fill:url(#_256-5);}.cls-6{fill:url(#_256-6);}.cls-7{fill:url(#_256-7);}.cls-8{fill:url(#_256-8);}.cls-9{fill:url(#_256-9);}.cls-10{fill:url(#_256-10);}.cls-11{fill:url(#_256-11);}.cls-12{fill:url(#_256-12);}</style><linearGradient id="_256" x1="81.11" y1="149.95" x2="216.68" y2="149.95" gradientUnits="userSpaceOnUse"><stop offset="0" stop-color="#00ffe3"/><stop offset="0.17" stop-color="#08f3e3"/><stop offset="0.46" stop-color="#1fd3e2"/><stop offset="0.86" stop-color="#43a0e0"/><stop offset="0.97" stop-color="#4e90e0"/></linearGradient><linearGradient id="_256-2" x1="110.59" y1="149.94" x2="187.23" y2="149.94" xlink:href="#_256"/><linearGradient id="_256-3" x1="168.48" y1="149.95" x2="173.17" y2="149.95" xlink:href="#_256"/><linearGradient id="_256-4" x1="187.73" y1="138.87" x2="197.34" y2="138.87" xlink:href="#_256"/><linearGradient id="_256-5" x1="182.47" y1="122.39" x2="189.32" y2="122.39" xlink:href="#_256"/><linearGradient id="_256-6" x1="175.58" y1="115.02" x2="182.45" y2="115.02" xlink:href="#_256"/><linearGradient id="_256-7" x1="71.75" y1="204.05" x2="95.8" y2="204.05" xlink:href="#_256"/><linearGradient id="_256-8" x1="169.43" y1="224.38" x2="224.21" y2="224.38" xlink:href="#_256"/><linearGradient id="_256-9" x1="204.06" y1="96.41" x2="228.25" y2="96.41" xlink:href="#_256"/><linearGradient id="_256-10" x1="72.11" y1="75.9" x2="127.16" y2="75.9" xlink:href="#_256"/><linearGradient id="_256-11" x1="124.52" y1="149.83" x2="142.01" y2="149.83" xlink:href="#_256"/><linearGradient id="_256-12" x1="146.55" y1="149.9" x2="163.95" y2="149.9" xlink:href="#_256"/></defs><g id="Camada_2" data-name="Camada 2"><path class="cls-1" d="M92.82,110.34l16.5-16.44c2.53,1.8,5.18,3.63,7.74,5.55a1.93,1.93,0,0,0,2.54.15,51.23,51.23,0,0,1,14.3-5.94,2.2,2.2,0,0,0,1.86-2.18c.45-3,1-6,1.48-9.15.57,0,1.12-.13,1.66-.13,6.66,0,13.32,0,20,0,1.22,0,1.8.28,2,1.64.31,2.68.89,5.33,1.27,8a1.83,1.83,0,0,0,1.64,1.78c1.48.33,2.91.85,4.6,1.35l-1.62,4.49c-2.75-.69-5.38-1.29-8-2.06-.43-.13-.8-1-.91-1.55-.49-2.49-.89-5-1.26-7.5-.14-1-.52-1.34-1.52-1.33-4.12,0-8.24.06-12.36,0-1.17,0-1.41.6-1.56,1.52-.4,2.56-.85,5.11-1.23,7.67a1.46,1.46,0,0,1-1.35,1.4,52.64,52.64,0,0,0-20.33,8.69L110,100.43,99.38,111.07l5.56,7.8c-2.13,4.38-4.29,8.46-6.1,12.69a43.74,43.74,0,0,0-2.17,7.62,2.13,2.13,0,0,1-2.08,1.92c-2.83.4-5.65.92-8.53,1.4v14.9c2.88.48,5.74.95,8.61,1.45.79.14,1.6.13,1.84,1.31a52.65,52.65,0,0,0,8.72,20.47c-2,2.83-4,5.62-6.13,8.6,3.38,3.33,6.69,6.63,10.07,9.86.26.24,1.15.12,1.53-.13,2.2-1.48,4.37-3,6.48-4.61a1.52,1.52,0,0,1,2.08,0,51,51,0,0,0,19.22,8,1.56,1.56,0,0,1,1.46,1.51c.35,2.51.83,5,1.19,7.51.16,1.12.57,1.64,1.83,1.62q5.92-.12,11.85,0c1.22,0,1.69-.43,1.85-1.58.34-2.46.78-4.9,1.16-7.35.13-.82.32-1.44,1.33-1.64a53.17,53.17,0,0,0,20.43-8.71l8.25,5.86c3.59-3.58,7.06-7,10.64-10.61-1.63-2.28-3.33-4.73-5.11-7.12a1.64,1.64,0,0,1-.07-2.22,50.92,50.92,0,0,0,7.91-19.07c.22-1.18.91-1.5,2-1.65,2.83-.42,5.66-.91,8.56-1.38v-15c-2.77-.46-5.47-1-8.19-1.34-1.38-.18-2.13-.61-2.43-2.15a49.22,49.22,0,0,0-7.5-18.16,2.21,2.21,0,0,1,0-3.08c1.74-2.2,3.3-4.55,4.81-6.66-3.57-3.57-7-7-10.62-10.66l-8.09,5.76-7.94-4.63c.64-1.37,1.28-2.73,2-4.29a27.65,27.65,0,0,1,3.76,2c1.46,1.09,2.51.79,3.84-.25,2.29-1.81,4.74-3.42,7-5l16.51,16.52c-1.62,2.25-3.31,4.76-5.17,7.14a2.67,2.67,0,0,0-.17,3.55,49.48,49.48,0,0,1,5.62,13.72,2.19,2.19,0,0,0,2.14,1.9c2.68.38,5.33.92,8,1.29,1,.13,1.36.44,1.35,1.46q0,10.41,0,20.82c0,1-.42,1.32-1.37,1.46-2.74.38-5.45.89-8.18,1.31a1.88,1.88,0,0,0-1.85,1.56,53.64,53.64,0,0,1-6.14,14.78,1.62,1.62,0,0,0,.12,2.11c2,2.62,3.82,5.3,5.6,7.8l-16.5,16.51c-2.23-1.58-4.75-3.25-7.13-5.12a2.67,2.67,0,0,0-3.55-.17,50.87,50.87,0,0,1-13.87,5.68,2,2,0,0,0-1.73,1.91c-.37,2.79-.91,5.56-1.33,8.34-.12.82-.45,1.18-1.3,1.18l-21.49,0a3.33,3.33,0,0,1-.73-.18c-.49-3-1-6-1.46-9a2.32,2.32,0,0,0-2-2.29,51.38,51.38,0,0,1-14.3-5.95,1.84,1.84,0,0,0-2.39.14c-2.57,1.92-5.21,3.76-7.7,5.53L92.92,189.43c1.76-2.46,3.59-5.1,5.51-7.66a1.85,1.85,0,0,0,.18-2.4,53.42,53.42,0,0,1-6.08-14.62,1.88,1.88,0,0,0-1.81-1.61c-2.79-.41-5.56-.94-8.35-1.33-.92-.13-1.26-.52-1.26-1.41q0-10.41,0-20.82c0-1,.36-1.35,1.35-1.49,2.74-.37,5.45-.89,8.18-1.3a2,2,0,0,0,1.91-1.71,53.06,53.06,0,0,1,6-14.47,1.82,1.82,0,0,0-.08-2.39C96.55,115.65,94.72,113,92.82,110.34Z"/><path class="cls-2" d="M123.6,172l-3.37,3c-10-9.67-14.74-31.61-1.63-48.46A38.32,38.32,0,1,1,176.08,177c-15.93,16-39.59,13.49-52,2l3-3.53c9,7.14,19.13,9.68,30.32,6.81a32.28,32.28,0,0,0,19.25-13.75,33.41,33.41,0,0,0-49.81-43.68C114.49,135.55,110.48,156.09,123.6,172Z"/><path class="cls-3" d="M168.48,136.91h4.69V163h-4.69Z"/><path class="cls-4" d="M197.34,149.81h-4.81a45,45,0,0,0-4.8-19.66l4.34-2.23A47.35,47.35,0,0,1,197.34,149.81Z"/><path class="cls-5" d="M189.32,123.11l-4.08,2.68-2.77-3.68,3.75-3.12Z"/><path class="cls-6" d="M179.07,118.45l-3.49-3,2.94-3.84,3.93,3.32Z"/><path class="cls-7" d="M87.57,213a1.66,1.66,0,0,1-1.34-1.91c0-8.74-.11-17.49.09-26.22.07-3.1-1-6.3.84-9.37.61-1,.09-2.7.09-4.08h-6v2.08c0,12.4,0,24.81,0,37.22a2.06,2.06,0,0,1-1.63,2.39c-5.23,1.78-8.25,6.66-7.92,12.42A12.08,12.08,0,0,0,81,236.23c.42.11.84.28,1.25.42h3.05a6.61,6.61,0,0,1,.93-.36,12,12,0,0,0,9.55-10.69C96.14,219.69,93.06,214.9,87.57,213Zm-3.75,18.59A7.17,7.17,0,1,1,91,224.39,7.17,7.17,0,0,1,83.82,231.63Z"/><path class="cls-8" d="M213.37,212.44c-5.47-.76-11.08,3-12.76,8.63-.36,1.2-.89,1.44-2,1.43-7.61,0-15.22,0-22.83,0-.49,0-1-.07-1.76-.13V212.12h-4.59v15.3h2.18c9.08,0,18.16,0,27.24,0a1.84,1.84,0,0,1,2.07,1.4,11.75,11.75,0,0,0,8.73,7.48,6.55,6.55,0,0,1,.92.37h3.05a8.11,8.11,0,0,1,.93-.36A12,12,0,0,0,224.2,224C223.88,217.85,219.61,213.3,213.37,212.44Zm-1.32,19.19a7.17,7.17,0,0,1,.14-14.33,7.17,7.17,0,1,1-.14,14.33Z"/><path class="cls-9" d="M228,73.11a12.09,12.09,0,0,0-23.77.25,12,12,0,0,0,8,13.49A1.87,1.87,0,0,1,213.7,89c0,11.28,0,22.56,0,33.84,0,.54,0,1.09-.08,1.7l-2.53.2v4.71h7.57V87.41l1.84-.68A12.09,12.09,0,0,0,228,73.11Zm-11.92,9.53a7.17,7.17,0,0,1,0-14.33,7.17,7.17,0,1,1,0,14.33Z"/><path class="cls-10" d="M127.15,79.32V73.19h-2.33c-9,0-18,0-27.07,0a1.83,1.83,0,0,1-2.14-1.5,12,12,0,0,0-12.18-8.33A12.1,12.1,0,0,0,81.5,87.25a11.93,11.93,0,0,0,14-7.64,1.93,1.93,0,0,1,2.17-1.51c7.61.05,15.23,0,22.84,0,.54,0,1.08.07,1.83.12V88.43c1.35,0,2.47,0,3.59,0,1,0,1.28-.42,1.27-1.34C127.13,84.51,127.15,81.92,127.15,79.32ZM84.29,82.64a7.17,7.17,0,1,1-.14-14.33,7.17,7.17,0,0,1,.14,14.33Z"/><path class="cls-11" d="M140.23,136.7c-4.57,0-9.13.05-13.7,0-1.49,0-2,.36-2,2,.08,7.55,0,15.1,0,22.65,0,.55.07,1.09.11,1.72h4.78v-9.27h7.83V163H142V136.79C141.33,136.75,140.78,136.7,140.23,136.7Zm-3,11.9h-7.76c0-2.16,0-4.27.05-6.37,0-.24.61-.65.95-.66,1.91-.07,3.82-.08,5.73,0a1.41,1.41,0,0,1,1,1C137.25,144.49,137.2,146.45,137.2,148.6Z"/><path class="cls-12" d="M146.55,136.8V163h4.61a6,6,0,0,0,.11-.7c0-2.31,0-4.63,0-6.94,0-2,0-2,2.08-2H162c.65,0,1.3-.07,2-.11V136.8ZM159,148.39h-7.7c0-2.07,0-4,0-6a1.17,1.17,0,0,1,.8-.81c2.24-.07,4.48,0,6.87,0Z"/></g></svg>