<svg id="Camada_1" data-name="Camada 1" xmlns="http://www.w3.org/2000/svg" xmlns:xlink="http://www.w3.org/1999/xlink" viewBox="0 0 300 300"><defs><style>.cls-1{fill:url(#Gradiente_sem_nome);}.cls-2{fill:url(#Gradiente_sem_nome-2);}.cls-3{fill:url(#Gradiente_sem_nome-3);}.cls-4{fill:url(#Gradiente_sem_nome-4);}.cls-5{fill:url(#Gradiente_sem_nome-5);}.cls-6{fill:url(#Gradiente_sem_nome-6);}</style><linearGradient id="Gradiente_sem_nome" x1="144.76" y1="13.85" x2="144.76" y2="285.67" gradientUnits="userSpaceOnUse"><stop offset="0" stop-color="#00ffe3"/><stop offset="0.17" stop-color="#08f3e3"/><stop offset="0.46" stop-color="#1fd3e2"/><stop offset="0.86" stop-color="#43a0e0"/><stop offset="0.97" stop-color="#4e90e0"/></linearGradient><linearGradient id="Gradiente_sem_nome-2" x1="151.31" y1="154.27" x2="151.31" y2="162.78" xlink:href="#Gradiente_sem_nome"/><linearGradient id="Gradiente_sem_nome-3" x1="151.4" y1="171.81" x2="151.4" y2="180.3" xlink:href="#Gradiente_sem_nome"/><linearGradient id="Gradiente_sem_nome-4" x1="125.01" y1="136.75" x2="125.01" y2="145.24" xlink:href="#Gradiente_sem_nome"/><linearGradient id="Gradiente_sem_nome-5" x1="210.52" y1="57.89" x2="210.52" y2="136.5" xlink:href="#Gradiente_sem_nome"/><linearGradient id="Gradiente_sem_nome-6" x1="74.66" y1="176" x2="74.66" y2="219.92" xlink:href="#Gradiente_sem_nome"/></defs><path class="cls-1" d="M215,44.54c28.44,2.62,47.44,26.52,48.17,50.53A51.6,51.6,0,0,1,249.89,132c-9.22,10.44-21,16.14-34.94,17.66v3.43q0,52.86,0,105.71c0,12.43-7.62,22.62-19.32,25.83a29.57,29.57,0,0,1-7.55,1q-47.65.09-95.3,0c-15.39,0-26.82-11.47-26.92-26.8,0-4.11,0-8.21,0-12.49-3.67-.65-4.66-3.11-4.4-6.42a9.88,9.88,0,0,0-.05-3.26,3.28,3.28,0,0,0-1.6-2,3,3,0,0,0-2.58.3c-1.87,1.59-3.5,3.47-5.28,5.16-2.51,2.38-4.69,2.38-7.17-.05q-6.17-6-12.21-12.2c-2.44-2.49-2.44-4.67-.06-7.17,1.64-1.72,3.45-3.28,5-5.1a4.37,4.37,0,0,0,.56-2.79c-.08-1.32-1-1.74-2.32-1.67a42.5,42.5,0,0,1-4.92,0,4.24,4.24,0,0,1-4.33-4.37q-.14-8.76,0-17.53c0-2.72,1.77-4.32,4.54-4.45,1.46-.07,2.92-.06,4.38,0,1.27,0,2.18-.09,2.74-1.57a2.43,2.43,0,0,0-.71-3.1q-2.6-2.43-5-5c-2.14-2.29-2.2-4.55,0-6.78q6.3-6.47,12.78-12.77c2.11-2.05,4.39-2,6.58,0,1.81,1.67,3.56,3.41,5.22,5.23,1,1.09,1.87,1,3.13.55s1.49-1.39,1.43-2.55c0-1,0-2,0-3,0-4,.55-4.84,4.38-6.38v-3.21q0-52.57,0-105.16c0-14,9-24.65,22.72-26.91a28.69,28.69,0,0,1,4.64-.25q47.1,0,94.21,0c16.25,0,27.47,11.27,27.52,27.57ZM101,119h61.47l-3-8.45H92.14v30.28H83.38c0-11.17,0-22.12,0-33.07,0-5,1.28-6.25,6.34-6.25H158c-.76-14.68,3.2-27.48,12.5-38.4S191.76,46.25,206,44.66c0-2,.11-3.86,0-5.67a17.52,17.52,0,0,0-12.42-15.44c-2.12-.64-3.68-.47-5.33,1.3-4.25,4.52-8.77,8.79-13.1,13.23a7,7,0,0,1-5.34,2.21q-29.44-.09-58.88,0a7,7,0,0,1-5.33-2.24c-4.33-4.45-8.85-8.71-13.1-13.23-1.66-1.78-3.23-1.9-5.34-1.26-7.7,2.38-12.44,9-12.44,17.66q0,52.85,0,105.7c0,.88.09,1.76.14,2.79,2.79,0,5.34,0,7.88,0,3.42.06,5,1.64,5.12,5a31.78,31.78,0,0,0,.07,4.37,3,3,0,0,0,1.45,2.11,3.33,3.33,0,0,0,2.8-.32c1.83-1.49,3.39-3.31,5.1-5,2.6-2.51,4.78-2.54,7.37,0q6.06,6,12,12c2.63,2.67,2.58,4.83-.08,7.58-1.52,1.57-3,3.15-4.66,4.63a2.4,2.4,0,0,0-.66,3.11,2.14,2.14,0,0,0,2.48,1.53c.91-.07,1.84.05,2.74,0,3.39-.3,6,.64,6.58,4.2h65.51V147.72c0-2.92-1.6-4.54-4.62-4.57a30.16,30.16,0,0,0-3.54.29q-8.29.94-16.58,1.91c-2.37.27-4.41-.17-5.51-2.55s-.12-4,1.5-5.63c2.41-2.36,4.8-4.76,7.17-7.17a25.06,25.06,0,0,0,1.6-2.11H101ZM74.76,246.22c0,5-.27,9.6.06,14.14.52,7.3,4.36,12.47,11.15,15.22,4.79,1.94,9.82,1.11,14.94,1.13,0-1.4,0-2.49,0-3.58,0-8.35,5.56-13.85,13.94-13.86q25.89,0,51.77,0a13.08,13.08,0,0,1,13.26,13.16c0,1.42,0,2.83,0,4.35h7.28c11.67,0,18.9-7.28,18.91-19q0-52.59,0-105.18c0-1-.08-1.93-.12-2.94l-8.53-1.37v43.56c0,4.84-1.33,6.17-6.16,6.17H122.92c0,3,.06,5.75,0,8.47-.09,2.91-1.73,4.53-4.63,4.65a42.43,42.43,0,0,1-4.65,0c-1.31-.08-2.24.36-2.31,1.67a4.33,4.33,0,0,0,.57,2.8c1.51,1.82,3.33,3.37,5,5.09,2.29,2.42,2.37,4.65.1,7q-6.19,6.38-12.58,12.59c-2.25,2.18-4.5,2.15-6.78,0-1.73-1.62-3.41-3.31-5-5a2.44,2.44,0,0,0-3.1-.76,2.3,2.3,0,0,0-1.6,2.71c.07,1.37.05,2.74,0,4.11-.11,3.2-1.73,4.82-5,4.88C80.26,246.26,77.63,246.22,74.76,246.22Zm100-111.15c2-.22,3.45-.47,4.87-.51,3.19-.09,6.29-1.23,9.56.66a42.67,42.67,0,0,0,27.4,5.27c20.59-2.6,37.33-21.16,37.65-42,.42-27.09-21.84-47.39-48.94-44.63C181,56.37,163,80.47,167.5,104.62a45,45,0,0,0,9.68,20.82c2.27,2.74,2.15,4.67-.23,7.22C176.36,133.3,175.79,134,174.78,135.07Zm-74.11,29.61c-1.79,1.94-3.34,3.74-5,5.41-2.09,2.09-3.7,2.25-6.43,1-2.07-.93-4.17-1.81-6.31-2.57-3-1.07-3.88-2.19-3.91-5.42,0-1.44,0-2.87,0-4.39H70.34c0,1.57,0,3,0,4.44,0,3.2-.92,4.3-4,5.38-2.14.76-4.24,1.65-6.32,2.59-2.71,1.22-4.27,1-6.42-1.06-1.75-1.69-3.46-3.42-4.77-4.72l-7.07,6.76c1.69,1.63,3.47,3.32,5.22,5a4.73,4.73,0,0,1,1,5.75c-1.05,2.42-2,4.88-2.94,7.35a4.63,4.63,0,0,1-4.75,3.37H35.42v8.66h4.45c3.21.05,4.29.92,5.38,4,.76,2.15,1.65,4.25,2.58,6.32,1.22,2.72,1,4.26-1.06,6.43-1.69,1.74-3.42,3.45-4.64,4.68L48.8,231c1.7-1.81,3.36-3.63,5.07-5.39a4.68,4.68,0,0,1,5.75-1c2.41,1.05,4.87,2,7.34,2.94a4.62,4.62,0,0,1,3.38,4.74c0,1.62,0,3.23,0,4.93H79c0-1.58,0-3,0-4.45,0-3.21.92-4.29,4-5.38,2.14-.76,4.24-1.65,6.31-2.59,2.73-1.22,4.25-1,6.43,1.07,1.75,1.69,3.46,3.4,4.78,4.7l7.22-6.91c-.83-.68-1.79-1.39-2.67-2.18s-1.7-1.66-2.52-2.52c-2-2.15-2.23-3.69-1-6.44.94-2.07,1.81-4.17,2.58-6.31,1.07-3,2.18-3.87,5.42-3.91h4.39v-8.66c-1.56,0-3,0-4.43,0-3.22,0-4.31-.92-5.39-4-.77-2.14-1.65-4.24-2.59-6.32-1.23-2.73-1-4.25,1.06-6.42,1.69-1.75,3.4-3.47,5.08-5.17Zm3-141.84-.31.55c2.42,2.34,4.79,4.75,7.29,7a4.27,4.27,0,0,0,2.64,1q27.08.09,54.15,0a3.39,3.39,0,0,0,2.05-.41c2.74-2.46,5.38-5,8.06-7.55l-.48-.57Zm6.08,253.74h61.11c.49-7.39-.48-8.45-7.5-8.45H115.78c-4.64,0-6,1.4-6,6.05Z"/><path class="cls-2" d="M122.92,162.78v-8.51H179.7v8.51Z"/><path class="cls-3" d="M179.79,171.81v8.49H123v-8.49Z"/><path class="cls-4" d="M101,145.24v-8.49h48v8.49Z"/><path class="cls-5" d="M206.09,66.88v-9H215c0,2.27.1,4.61,0,6.94-.09,1.61.47,2.32,2,2.93,6.94,2.76,11.47,9.55,10.92,16.17h-8.41c-.22-.82-.4-1.61-.65-2.38a8.68,8.68,0,0,0-9.75-6.1,8.7,8.7,0,0,0,.87,17.26,37.22,37.22,0,0,1,4.6.53,17.44,17.44,0,0,1,2.88,33.1c-1.93.79-2.68,1.7-2.48,3.76s0,4.16,0,6.4h-8.79v-8.88c-9.47-4.78-13.25-9.73-13.09-17.16h8.52c.18.66.38,1.43.61,2.19a8.69,8.69,0,0,0,9.65,6.26,8.7,8.7,0,0,0-.61-17.26,41.51,41.51,0,0,1-4.6-.53,17.49,17.49,0,0,1-2.9-33.25Z"/><path class="cls-6" d="M96.62,198a22,22,0,1,1-21.85-22A22,22,0,0,1,96.62,198Zm-35-.12a13.07,13.07,0,1,0,13.17-13A13.15,13.15,0,0,0,61.59,197.87Z"/></svg>