<svg id="Camada_1" data-name="Camada 1" xmlns="http://www.w3.org/2000/svg" xmlns:xlink="http://www.w3.org/1999/xlink" viewBox="0 0 300 300"><defs><style>.cls-1{fill:url(#Gradiente_sem_nome);}.cls-2{fill:url(#Gradiente_sem_nome-2);}.cls-3{fill:url(#Gradiente_sem_nome-3);}.cls-4{fill:url(#Gradiente_sem_nome-4);}.cls-5{fill:url(#Gradiente_sem_nome-5);}</style><linearGradient id="Gradiente_sem_nome" x1="7.6" y1="172.06" x2="287.89" y2="172.06" gradientUnits="userSpaceOnUse"><stop offset="0" stop-color="#00ffe3"/><stop offset="0.17" stop-color="#08f3e3"/><stop offset="0.46" stop-color="#1fd3e2"/><stop offset="0.86" stop-color="#43a0e0"/><stop offset="0.97" stop-color="#4e90e0"/></linearGradient><linearGradient id="Gradiente_sem_nome-2" x1="39.35" y1="158.82" x2="256.18" y2="158.82" xlink:href="#Gradiente_sem_nome"/><linearGradient id="Gradiente_sem_nome-3" x1="120.78" y1="43.01" x2="175.36" y2="43.01" xlink:href="#Gradiente_sem_nome"/><linearGradient id="Gradiente_sem_nome-4" x1="132.89" y1="58.39" x2="162.63" y2="58.39" xlink:href="#Gradiente_sem_nome"/><linearGradient id="Gradiente_sem_nome-5" x1="59.02" y1="157.3" x2="236.5" y2="157.3" xlink:href="#Gradiente_sem_nome"/></defs><path class="cls-1" d="M7.6,245.9c2.92-8.05,9.43-9.24,17.61-8.18-4.24-6.39-3.35-12.76-3.35-19q0-63.1,0-126.2c0-13,7.59-20.54,20.61-20.54H253c13.17,0,20.7,7.56,20.7,20.72q0,46.4,0,92.8c0,.92.33,2.09-.11,2.69-1,1.33-2.15,3-3.58,3.42-2.08.68-3.66-.81-4.23-2.9a12.61,12.61,0,0,1-.19-3.26q0-46.54,0-93.08c0-8.23-4-12.3-12.22-12.3q-105.54,0-211.07,0C34,80.08,30,84.13,30,92.3q0,66.52,0,133.05c0,8.08,4,12.11,12.09,12.11H253.4c8.14,0,12.15-4,12.16-12,0-5.75,0-11.5,0-17.25,0-3.4,1.59-5.35,4.19-5.27s3.91,1.91,3.92,5.22c0,5.11.23,10.23-.06,15.32-.27,4.55-1.11,9.07-1.75,14,.89,0,2.65,0,4.41,0,7.92.2,12.58,5.74,11.44,13.58-1.84,12.6-11.55,21.08-24.31,21.08q-115.67,0-231.33,0c-12.14,0-21.39-7.59-24-19.5a7.81,7.81,0,0,0-.49-1.26Zm140,18.13q57.74,0,115.47,0c8.8,0,15.4-5.48,16.56-13.6.53-3.68-.47-4.89-4.19-4.9q-13.41,0-26.82,0H183.52c-1.38,0-2.79-.45-3,2-.56,6.7-5.4,11.29-12.1,11.35q-20.66.2-41.32,0c-6.44,0-11.62-4.68-12.06-10.79-.17-2.38-1.14-2.56-3-2.56q-45.84.06-91.67,0c-4.13,0-5.17,1.32-4.39,5.42,1.5,8,7.86,13.08,16.45,13.08Q90,264.05,147.62,264Zm.07-13.25c6.47,0,12.94,0,19.41,0,1.07,0,2.47,0,3.13-.58,1-1,1.52-2.46,2.24-3.72a10.87,10.87,0,0,0-3-.9q-21.74-.09-43.47,0a11.4,11.4,0,0,0-2.88.77c.59,1.24.93,2.77,1.86,3.65.72.69,2.2.77,3.34.78C134.75,250.82,141.22,250.78,147.69,250.78Z"/><path class="cls-2" d="M147.94,91.52H244c8,0,12.16,4.16,12.16,12.1V213.93c0,7.95-4.21,12.19-12.11,12.19H51.37c-7.74,0-12-4.27-12-12V103.53c0-7.79,4.22-12,12-12ZM147.59,218h96.08c3.91,0,4.4-.49,4.4-4.42V104.09c0-4-.42-4.47-4.34-4.47H51.86c-4,0-4.4.43-4.4,4.4V213.51c0,4.08.43,4.49,4.61,4.49Z"/><path class="cls-3" d="M175.36,48c-1.18,1.37-1.93,3-3,3.29a6.22,6.22,0,0,1-4.68-.85,32.19,32.19,0,0,0-15.34-7.3,29.4,29.4,0,0,0-23.38,6c-.51.39-1,.82-1.51,1.18-2,1.4-4,1.39-5.61-.51s-1.31-4.1.63-5.81a36.36,36.36,0,0,1,17.69-8.68,37.1,37.1,0,0,1,32.32,8.76C173.56,45,174.23,46.43,175.36,48Z"/><path class="cls-4" d="M147.66,52.15a20.28,20.28,0,0,1,13.2,5.09c1.91,1.7,2.43,3.73.8,5.77s-3.83,2-6,.42c-5.7-4.22-10-4.25-15.94-.16-2.1,1.43-4.19,1.53-5.82-.5s-1.11-4.23.94-5.94A20.37,20.37,0,0,1,147.66,52.15Z"/><path class="cls-5" d="M87.43,167.1c5.28-4,10.14-7.53,14.74-11.34,3.18-2.64,6.51-4.28,10.71-3.71,2,.26,2.81-.38,2.63-2.53-.84-10.63,3.76-11.51,11.38-11.39,14,.22,28.1,0,42.15.11,2.17,0,3.1-.4,2.94-2.8a81.36,81.36,0,0,1,0-10.12c.14-2.29-.76-2.67-2.8-2.66-20.16.07-40.32,0-60.48,0-.92,0-2.09.31-2.68-.13-1.27-.95-3-2.23-3.11-3.51s1.26-2.93,2.38-4c.63-.6,2.08-.43,3.15-.43q31.47,0,62.95,0c6.13,0,8.64,2.52,8.66,8.6,0,4.11.13,8.22-.05,12.31-.1,2.22.65,2.73,2.76,2.72,15-.09,29.92-.05,44.88-.05,6.5,0,8.85,2.38,8.85,8.93q0,14.22,0,28.46c0,5.49-2.48,8-8,8.11-3.37.06-6.75.08-10.12,0-1.65,0-2.28.51-2.19,2.2.13,2.18,0,4.38,0,6.57a6.76,6.76,0,0,1-3.75,6.76c-2.8,1.43-5.45.87-7.91-1-5.64-4.34-11.24-8.72-17-12.92a8.2,8.2,0,0,0-4.45-1.49c-19.43-.1-38.86-.06-58.29-.07-7.18,0-9.35-2.16-9.36-9.26,0-3.38.07-6.75,0-10.13,0-1.36-.41-3.9-.63-3.9-2.09,0-4.63-.21-6.19.86-6,4.15-11.61,8.84-17.51,13.12a10.45,10.45,0,0,1-5.22,1.9,6.42,6.42,0,0,1-6.54-6.36c-.12-2.55-.12-5.11,0-7.66.07-1.7-.56-2.23-2.2-2.19q-5.34.12-10.68,0c-4.83-.13-7.4-2.74-7.42-7.54q-.06-15.19,0-30.38c0-4.73,2.74-7.47,7.48-7.52,6.75-.07,13.51,0,20.26,0,3.16,0,5.21,1.67,5,4.16-.26,2.89-2.11,4-4.91,3.94-5.74-.06-11.49,0-17.24-.06-1.82,0-2.56.37-2.53,2.39q.15,12.31,0,24.63c0,2,.75,2.45,2.56,2.4,3.46-.11,6.93-.1,10.4,0,4.6.12,7.22,2.79,7.36,7.39C87.48,161.8,87.43,164.13,87.43,167.1Zm120.68,23.56c0-3.07-.07-5.43,0-7.79.17-4.45,2.81-7.08,7.27-7.19,3.46-.09,6.93-.12,10.39,0,2,.08,2.69-.48,2.66-2.59q-.18-12.16,0-24.34c0-2.15-.73-2.53-2.68-2.53q-49.78.08-99.56,0c-2.32,0-2.66.85-2.63,2.84.09,7.84.15,15.69,0,23.52-.06,2.6.79,3.15,3.22,3.13,18.6-.09,37.2,0,55.8-.11a15.06,15.06,0,0,1,10.51,3.52C197.73,183,202.7,186.54,208.11,190.66Z"/></svg>