<svg id="Camada_1" data-name="Camada 1" xmlns="http://www.w3.org/2000/svg" xmlns:xlink="http://www.w3.org/1999/xlink" viewBox="0 0 300 300"><defs><style>.cls-1{fill:url(#_256);}.cls-2{fill:url(#_256-2);}</style><linearGradient id="_256" x1="2.27" y1="159.49" x2="297.73" y2="159.49" gradientUnits="userSpaceOnUse"><stop offset="0" stop-color="#00ffe3"/><stop offset="0.17" stop-color="#08f3e3"/><stop offset="0.46" stop-color="#1fd3e2"/><stop offset="0.86" stop-color="#43a0e0"/><stop offset="0.97" stop-color="#4e90e0"/></linearGradient><linearGradient id="_256-2" x1="130.42" y1="106.2" x2="238.23" y2="106.2" xlink:href="#_256"/></defs><path class="cls-1" d="M2.27,92Q10.48,79.13,18.7,66.25c3.27-5.11,7.54-5.13,10.8,0Q37,78,44.5,89.81c.64,1,1.61,2.46,1.32,3.35a7.76,7.76,0,0,1-2.91,4.1c-1.87,1.14-3.77.06-4.93-1.7-2.55-3.85-5-7.77-7.48-11.65-.49-.77-1-1.5-2.09-3v3.6c0,28.37,0,56.75.08,85.12a9.07,9.07,0,0,0,1.8,5.15c6.62,8.61,13.51,17,20.14,25.63,1.29,1.67,2.47,1.45,4.16,1.27s2.09-1.32,2.49-2.62Q63.8,177,70.59,155a3.25,3.25,0,0,0-.86-3.79,12.93,12.93,0,0,1-.9-17.11,13.11,13.11,0,0,1,16.63-3.38,12.88,12.88,0,0,1,5.82,16.1,3.43,3.43,0,0,0,.76,4q14.63,17.28,29.12,34.69c1,1.2,1.88,1.74,3.37,1.11a2.82,2.82,0,0,1,1.69-.27c4,1,5.25-1.73,6.76-4.48,2.31-4.2,4.83-8.28,7.4-12.64-.87-.69-1.68-1.31-2.47-1.95-25.24-20.7-35.6-47.25-27.95-79s28.83-50.79,60.81-57.54a69.76,69.76,0,0,1,27.24,0c3.1.58,4.77,2.54,4.34,5-.46,2.68-2.75,4-5.94,3.48-39.26-6.6-74.86,19.81-79.74,59.16-4.46,35.84,21.58,69.84,57.4,75,39.11,5.59,74.62-21.67,77.84-60.76,2.39-28.92-9.7-51.07-34.7-66-4.07-2.43-5.25-4.43-3.71-7.08s4-2.7,8.07-.45c45.65,25.2,53.08,88.55,14.5,123.72L233.64,165l8.66,15.75,1.78-.91c4.83-2.5,8.07-1.53,10.74,3.31q8.07,14.63,16.09,29.3Q283,234.6,295.18,256.7c5,9.06,2.6,17.11-6.46,22.11-5.21,2.88-10.41,5.8-15.67,8.59-8.15,4.33-16.46,1.94-20.93-6.13q-13.27-24-26.39-48c-1.7-3.11-1.18-5.65,1.31-6.92s4.56-.31,6.29,2.76,3.24,5.87,5,9.13l28.26-15.52-19.12-34.81-28.25,15.51c1.27,2.35,2.46,4.42,3.53,6.56,1.32,2.62.68,5-1.54,6.23s-4.52.44-6-2.14c-1.36-2.32-2.64-4.69-3.92-7.05-2.6-4.82-1.69-8,3.06-10.81.49-.29.94-.61,1.61-1.05-2.67-4.89-5.2-9.71-8-14.39-.36-.6-2.13-.8-3.07-.55a76.43,76.43,0,0,1-44.6-1.19c-4.18-1.39-8.19-3.26-12.62-5-3.11,5.27-6.36,10.68-9.45,16.18-.32.57.12,1.78.52,2.52,2.7,5.09,2.5,10-.9,14.64a12.68,12.68,0,0,1-13.58,4.73c-5.57-1.5-8.92-5.23-9.71-10.9a14.71,14.71,0,0,1,.71-6.19,3.43,3.43,0,0,0-.65-3.82Q100,173.87,85.51,156.45a3.55,3.55,0,0,0-3.87-1.5c-1.88.33-2.43,1.37-2.92,3q-6.64,21.92-13.45,43.78a3.5,3.5,0,0,0,.92,4A12.77,12.77,0,0,1,67,222.58,13.05,13.05,0,0,1,50.37,226a12.89,12.89,0,0,1-5.92-16.08,3.58,3.58,0,0,0-.66-4.11c-5-6.1-9.81-12.3-15.13-19v67.81H201.81c-.78-.63-1.27-1.11-1.85-1.48-4-2.59-8.15-5.1-12.15-7.76a4.3,4.3,0,1,1,4.65-7.24c8.63,5.42,17.26,10.84,25.77,16.43,3.68,2.42,3.58,6.91-.13,9.33-8.46,5.5-17,10.89-25.54,16.25-2.44,1.52-5,.87-6.27-1.31s-.66-4.43,1.68-6c3.77-2.49,7.61-4.86,11.42-7.29a5.59,5.59,0,0,0,2.07-2.11H29.34c-7.8,0-9.6-1.83-9.6-9.76V82.06l-.6-.31q-1.3,2.06-2.63,4.09Q13.87,90,11.24,94.11c-2.88,4.49-5.59,4.72-9,.78ZM254.69,268c2,3.57,3.66,6.91,5.62,10.07a5.68,5.68,0,0,0,7.83,2.07q9.06-4.75,17.93-9.85a5.63,5.63,0,0,0,2.35-7.74c-1.64-3.35-3.54-6.57-5.44-10.07Zm24.11-23.13-8-14.51-28.25,15.51c2.7,4.94,5.31,9.68,8,14.53ZM234.71,185c-2.81-5.1-5.42-9.87-8.05-14.64l-11,6.1,8.05,14.61ZM83.57,142.18a4.59,4.59,0,0,0-4.39-4.42,4.45,4.45,0,1,0,0,8.89A4.59,4.59,0,0,0,83.57,142.18Zm44,61.67a4.59,4.59,0,0,0,4.3-4.51,4.44,4.44,0,1,0-8.88.28A4.61,4.61,0,0,0,127.61,203.85ZM56.75,219a4.5,4.5,0,0,0,4.32-4.52,4.4,4.4,0,0,0-4.53-4.26,4.25,4.25,0,0,0-4.28,4.46A4.43,4.43,0,0,0,56.75,219Z"/><path class="cls-2" d="M184.3,160.1a53.9,53.9,0,1,1,53.93-53.94A54,54,0,0,1,184.3,160.1ZM164,146.37c19.32,10.42,46.65,4.74,59.64-17.84a45.19,45.19,0,1,0-79-43.8c-12.27,22.67-2.05,47.36,12.18,56.79L177,107.14c-1.62.73-2.47,1.09-3.29,1.49-3.95,2-7.88,4-11.85,5.94-3.05,1.5-5.44,1-6.68-1.43s-.3-4.7,2.75-6.25q12.84-6.54,25.71-13c4.85-2.42,8.71-.16,8.91,5.3.35,9.71.57,19.42.79,29.13.07,3.1-1.66,5.09-4.22,5.12s-4.29-1.94-4.41-5c-.17-4.42-.26-8.85-.42-13.27a22.91,22.91,0,0,0-.43-2.54Z"/></svg>