<?xml version="1.0" encoding="utf-8"?>
<!-- Generator: Adobe Illustrator 26.0.1, SVG Export Plug-In . SVG Version: 6.00 Build 0)  -->
<svg version="1.1" xmlns="http://www.w3.org/2000/svg" xmlns:xlink="http://www.w3.org/1999/xlink" x="0px" y="0px"
	 viewBox="0 0 300 300" style="enable-background:new 0 0 300 300;" xml:space="preserve">
<style type="text/css">
	.st0{fill:url(#SVGID_1_);}
	.st1{fill:url(#SVGID_00000083769076832364937270000013839070174282231225_);}
	.st2{fill:url(#SVGID_00000028303764657406948060000014738662949540850091_);}
	.st3{fill:url(#SVGID_00000067933123229207515980000017558442979577216691_);}
	.st4{fill:url(#SVGID_00000078748784254077158740000011413368152837597078_);}
	.st5{fill:url(#SVGID_00000053547146540319152880000013901095795528506814_);}
	.st6{fill:url(#SVGID_00000047767728422816735990000001596412523064656029_);}
	.st7{fill:url(#SVGID_00000060723191001785217870000011807569633835872926_);}
	.st8{fill:url(#SVGID_00000116958052522600886830000008332473694396934557_);}
	.st9{fill:url(#SVGID_00000004536055069579861820000016846132806251139494_);}
	.st10{fill:url(#SVGID_00000119087523050359321500000009564917043093193114_);}
	.st11{fill:url(#SVGID_00000049197747491893207530000016278739806106863524_);}
	.st12{fill:url(#SVGID_00000075851813712678510120000008951794798367632305_);}
	.st13{fill:url(#SVGID_00000034061694946104685860000016312773369904892593_);}
	.st14{fill:url(#SVGID_00000163031217681592976910000013879591475949454014_);}
	.st15{fill:url(#SVGID_00000126287610653734655470000011766026388473722542_);}
	.st16{fill:url(#SVGID_00000080900518915848965400000004544349595812717954_);}
	.st17{fill:url(#SVGID_00000003064083748948302880000009590842205901153669_);}
	.st18{fill:url(#SVGID_00000124864063692469356520000007615861196114804872_);}
	.st19{fill:url(#SVGID_00000005974885583591193380000001437226314834355332_);}
	.st20{fill:url(#SVGID_00000073712321009118812190000008487676045551901864_);}
	.st21{fill:url(#SVGID_00000129191941028250875070000004344942797422451897_);}
	.st22{fill:url(#SVGID_00000061457307777941062320000005027798527662780056_);}
	.st23{fill:url(#SVGID_00000168090718904342063350000017925372863701577103_);}
	.st24{fill:url(#SVGID_00000062901260463226744610000004247309044400535200_);}
	.st25{fill:url(#SVGID_00000124883244385520350000000017077769988897786019_);}
	.st26{fill:url(#SVGID_00000036222204902640323480000004950724020527713681_);}
	.st27{fill:url(#SVGID_00000072964568028656218660000005223928204151675818_);}
	.st28{fill:url(#SVGID_00000078737210470662463310000005112929309382306698_);}
	.st29{fill:url(#SVGID_00000137821956926399066140000009287522476490150787_);}
	.st30{fill:url(#SVGID_00000024690309355896456010000015393433896416541850_);}
	.st31{fill:url(#SVGID_00000043416440380377529030000018036279515304242609_);}
	.st32{fill:url(#SVGID_00000094609907800977508040000001873816178024980385_);}
	.st33{fill:url(#SVGID_00000094599713676420500280000008089029321489452430_);}
	.st34{fill:url(#SVGID_00000118390769995436851440000004736121752600505222_);}
	.st35{fill:url(#SVGID_00000072977524124210804470000018268403469389172131_);}
	.st36{fill:url(#SVGID_00000022540425507054237170000007869609855096255405_);}
	.st37{fill:url(#SVGID_00000176044846864734089630000002054022728128080028_);}
	.st38{fill:url(#SVGID_00000152222821953532448950000006591084021043463316_);}
	.st39{fill:url(#SVGID_00000012465870917086745290000018141938039214165435_);}
	.st40{fill:url(#SVGID_00000000197743798929554430000002210418169944320183_);}
	.st41{fill:url(#SVGID_00000022560120396810895310000001604945308129015224_);}
	.st42{fill:url(#SVGID_00000126306498736026157060000015321631712496498854_);}
	.st43{fill:url(#SVGID_00000039814359604210525800000008192680628283572879_);}
	.st44{fill:url(#SVGID_00000034070660140209782510000005059064687019195291_);}
	.st45{fill:url(#SVGID_00000068641805251131108850000015410808689363364515_);}
	.st46{fill:url(#SVGID_00000073716524695807881580000003047610081403278985_);}
	.st47{fill:url(#SVGID_00000124125971925578505570000017831634144120277683_);}
	.st48{fill:url(#SVGID_00000003827330467273001220000005790349066427961265_);}
	.st49{fill:url(#SVGID_00000052804565658618165410000003493624884523490969_);}
	.st50{fill:url(#SVGID_00000022538096064775636130000004939568279123038141_);}
	.st51{fill:url(#SVGID_00000074400904816827806550000001728360234201004449_);}
	.st52{fill:url(#SVGID_00000076602932187043280590000002692822141354728350_);}
	.st53{fill:url(#SVGID_00000017495811579252962000000008857101200710561673_);}
	.st54{fill:url(#SVGID_00000067930753385064316910000006986352984113199277_);}
	.st55{fill:url(#SVGID_00000119828452699223254590000014215271536873585322_);}
	.st56{fill:url(#SVGID_00000024699253328045402020000015624723678360941998_);}
	.st57{fill:url(#SVGID_00000127767025392231922920000018214468496781327249_);}
	.st58{fill:url(#SVGID_00000142138751243135113610000000164073801368937103_);}
	.st59{fill:url(#SVGID_00000023267219781360939690000012483981369267875718_);}
	.st60{fill:url(#SVGID_00000063608853790859959000000017273502994112938120_);}
	.st61{fill:url(#SVGID_00000070096311596870979880000012755532323481794462_);}
	.st62{fill:url(#SVGID_00000086674691612240005740000007115837093031965313_);}
	.st63{fill:url(#SVGID_00000178182378003566735400000007891211679690238084_);}
	.st64{fill:url(#SVGID_00000168082577356464894400000001488380761961906307_);}
	.st65{fill:url(#SVGID_00000113315514275018296780000007607144816330258817_);}
</style>
<g id="Camada_1">
	<g id="Camada_2_00000012456607074968530590000002334991459739438239_">
		
			<linearGradient id="SVGID_1_" gradientUnits="userSpaceOnUse" x1="61.9938" y1="-198.3811" x2="238.035" y2="-198.3811" gradientTransform="matrix(1 0 0 -1 0 300)">
			<stop  offset="0" style="stop-color:#00FFE3"/>
			<stop  offset="0.17" style="stop-color:#08F3E3"/>
			<stop  offset="0.46" style="stop-color:#1FD3E2"/>
			<stop  offset="0.86" style="stop-color:#43A0E0"/>
			<stop  offset="0.97" style="stop-color:#4E90E0"/>
		</linearGradient>
		<path class="st0" d="M97.2,454.4v-31.4c0-6,3.6-9.6,9.6-9.6h98.1c6.1,0,9.6,3.6,9.7,9.7c0,1.5,0,3.1,0,4.6
			c-0.1,2.2-1.1,3.3-3.3,3.3c-2.7,0-5.5,0-8.3,0v19.2c0.9-0.9,1.6-1.6,2.4-2.4c6.9-6.9,14.6-6.9,21.5,0.1c2.3,2.3,4.7,4.6,7,7
			c5.7,5.8,5.7,13.9,0,19.7c-2.2,2.2-4.4,4.4-6.6,6.6c-0.5,0.5-0.8,1.2-0.9,2c-0.1,23.3-0.1,46.7,0,70c0,0.2,0,0.5,0.1,0.9h7.8
			c2.8,0,3.9,1.1,3.8,3.9c-0.5,13.8-11.6,24.9-25.5,25.4c-6.9,0.1-13.8,0-20.7,0c-34.4,0-68.8,0-103.2,0
			c-14.3,0.1-26.1-11.2-26.6-25.5c-0.1-2.6,1-3.7,3.6-3.7c2.6,0,5.2,0,8.1,0v-83.8c0-9.9,6.1-16,16-16L97.2,454.4z M155.5,507.2
			h-36.7c-2.6,0-4-1.1-4-3s1.4-2.9,3.9-2.9h19.8c5.7,0,11.4,0,17.1,0c0.7,0,1.3-0.3,1.7-0.8c0.7-1.6,1.2-3.3,1.8-4.9
			c-0.1-0.1-0.3-0.1-0.4-0.1h-5c-2.7,0-3.7-1-3.7-3.8c0-3.3,0-6.6,0-9.9c0-3,1-3.9,4-3.9c6.6,0,13.2,0,19.8,0
			c0.6,0.1,1.2-0.1,1.7-0.3c1.9-1.6,3.6-3.4,5.4-5l-0.3-0.5h-38c-0.6,0-1.2,0-1.8-0.1c-1.6-0.3-2.6-1.8-2.3-3.4
			c0.2-1.2,1.1-2.1,2.3-2.3c0.5-0.1,1.1-0.1,1.6-0.1c13,0,25.9,0,38.9,0c1.4,0,2.7,0.7,4.4,1.2c3.3-3.3,7-7,10.7-10.8
			c0.4-0.6,0.6-1.3,0.6-2c0-6.2,0-12.3,0-18.5v-17h-89.6c-3.3,0-4.2,0.9-4.2,4.2v118.9h93.8v-31.1l-4.1,4.4c-3.7,4-8.5,6.8-13.9,8.2
			c-6.4,1.6-12.7,3.5-19.1,5.1c-2.6,0.7-5.2,1.7-7.8,1.7c-11.1,0.2-22.2,0.1-33.4,0.1c-2.4,0-3.8-1.1-3.8-3c0-1.9,1.4-2.9,3.9-2.9
			h32c0.5-1.9,1-3.8,1.6-5.9h-2c-4.8,0-9.5,0-14.3,0c-2.3,0-3.6-1.2-3.6-3c0-1.9,1.3-2.9,3.5-2.9c2.9,0,5.9,0,8.8,0h9.1
			C154.4,511.1,154.9,509.2,155.5,507.2z M231.9,560.2c-0.3-0.1-0.6-0.1-0.8-0.1c-18.2,0-36.4,0-54.6,0c-0.7,0.1-1.3,0.4-1.6,1
			c-1.1,1.8-1.9,3.8-2.9,5.7c-1.5,3.1-4.7,5.1-8.2,5c-9.2,0-18.3,0-27.5,0c-3.5,0.1-6.7-1.9-8.1-5c-0.9-1.7-1.8-3.5-2.6-5.2
			c-0.4-1-1.4-1.7-2.5-1.5c-17.7,0-35.3,0-53,0h-1.9c0.2,0.8,0.2,1.4,0.4,2c2.3,9.2,10.6,15.7,20.1,15.6c16.6,0,33.1,0,49.7,0
			c24.2,0,48.4,0,72.6,0c4.4,0.1,8.7-1.1,12.3-3.6C227.9,570.8,231,565.8,231.9,560.2L231.9,560.2z M208.6,499.6
			c-1.7,1.8-3.1,3.3-4.5,4.6c-0.9,0.7-1.3,1.9-1.3,3c0,12.2,0,24.4,0,36.7c0,3.6-0.8,4.4-4.4,4.4h-96.8c-3.6,0-4.4-0.8-4.4-4.4
			v-71.8c-5.2-0.4-5.9,0.2-5.9,5.1V554h117.3L208.6,499.6z M97.1,460.2h-8c-6,0-9.6,3.6-9.6,9.6c0,27.4,0,54.9,0,82.3v1.9h5.9v-2.3
			c0-25.4,0-50.8,0-76.2c0-5.7,3.7-9.4,9.4-9.4h2.3L97.1,460.2z M220.3,488.4l-0.4-0.3c-1.4,1.5-2.7,3-4.1,4.3
			c-0.9,0.8-1.3,1.9-1.3,3c0,18.9,0,37.8,0,56.7v1.9h5.8L220.3,488.4z M166.1,495.5c-0.8,1.3-1.5,2.6-2.1,3.9
			c-0.9,2.5-1.5,5-2.4,7.5c-0.4,0.9-0.1,2,0.6,2.6c2.2,1.9,4.3,4,6.2,6.2c2.5,3.3,5.3,3.9,9.1,2.3c2.6-1.1,5.4-1.8,7.6-3.6
			L166.1,495.5z M207.4,469.3l-29.3,29.3l4,4.1l29.4-29.4L207.4,469.3z M210.2,451.2l19.2,19.2c3.2-2.6,3.6-7.3,1-10.4
			c-0.2-0.2-0.3-0.4-0.5-0.6c-2.8-2.9-5.6-5.8-8.5-8.6c-2.9-3-7.6-3.1-10.6-0.3C210.6,450.7,210.4,450.9,210.2,451.2z M168.6,560.1
			h-37.3c0.7,1.4,1.3,2.6,1.9,3.9c0.5,1.2,1.8,2,3.1,1.9c9.1,0,18.2,0,27.3-0.1c1.1-0.1,2.1-0.6,2.8-1.4
			C167.3,563,168,561.6,168.6,560.1z M200.1,461.8l-29.2,29.3l2.4,2.6l29.4-29.4L200.1,461.8z M218.7,480.9l-2.5-2.8L187,507.3
			l2.6,2.7L218.7,480.9z M205.6,455.8l-1.2,1.3l19.2,19.3l1.3-1.2L205.6,455.8z M169.1,484.2l-0.3-0.4H156v5.8c2.3,0,4.5,0,6.7,0
			c0.4,0,0.8-0.1,1.1-0.4C165.6,487.5,167.3,485.8,169.1,484.2L169.1,484.2z M157.1,523.5l8.2-2.3l-5.9-6
			C158.6,517.9,157.9,520.5,157.1,523.5L157.1,523.5z M208.7,424.9c-0.2-1.9,0.7-4-1.4-5.2c-1-0.5-2.2-0.5-3.2,0
			c-2,1.2-1.2,3.3-1.3,5.2L208.7,424.9z"/>
		
			<linearGradient id="SVGID_00000109729503046384903070000004233475717823972264_" gradientUnits="userSpaceOnUse" x1="114.77" y1="-145.56" x2="149.97" y2="-145.56" gradientTransform="matrix(1 0 0 -1 0 300)">
			<stop  offset="0" style="stop-color:#00FFE3"/>
			<stop  offset="0.17" style="stop-color:#08F3E3"/>
			<stop  offset="0.46" style="stop-color:#1FD3E2"/>
			<stop  offset="0.86" style="stop-color:#43A0E0"/>
			<stop  offset="0.97" style="stop-color:#4E90E0"/>
		</linearGradient>
		<path style="fill:url(#SVGID_00000109729503046384903070000004233475717823972264_);" d="M132.4,460.2c-4.7,0-9.3,0-13.9,0
			c-2.6,0-3.7-1-3.7-3.7c0-7.3,0-14.7,0-22c0-2.6,1-3.7,3.7-3.7h27.9c2.6,0,3.7,1,3.7,3.7c0,7.3,0,14.7,0,22c0,2.6-1,3.7-3.6,3.7
			C141.7,460.2,137,460.2,132.4,460.2z M120.7,454.2H144v-17.4h-23.3V454.2z"/>
		
			<linearGradient id="SVGID_00000030482657221937902320000007565652724531013035_" gradientUnits="userSpaceOnUse" x1="155.8599" y1="-145.5737" x2="185.1701" y2="-145.5737" gradientTransform="matrix(1 0 0 -1 0 300)">
			<stop  offset="0" style="stop-color:#00FFE3"/>
			<stop  offset="0.17" style="stop-color:#08F3E3"/>
			<stop  offset="0.46" style="stop-color:#1FD3E2"/>
			<stop  offset="0.86" style="stop-color:#43A0E0"/>
			<stop  offset="0.97" style="stop-color:#4E90E0"/>
		</linearGradient>
		<path style="fill:url(#SVGID_00000030482657221937902320000007565652724531013035_);" d="M170.5,442.6c3.7,0,7.5,0,11.2,0
			c2.2,0,3.5,1.1,3.5,2.9c0,1.8-1.3,2.9-3.4,3h-22.4c-2.2,0-3.5-1.1-3.5-2.9s1.3-2.9,3.5-2.9C163,442.6,166.8,442.6,170.5,442.6z"/>
		
			<linearGradient id="SVGID_00000179609175441294420560000011205822294262013088_" gradientUnits="userSpaceOnUse" x1="155.86" y1="-157.2728" x2="185.17" y2="-157.2728" gradientTransform="matrix(1 0 0 -1 0 300)">
			<stop  offset="0" style="stop-color:#00FFE3"/>
			<stop  offset="0.17" style="stop-color:#08F3E3"/>
			<stop  offset="0.46" style="stop-color:#1FD3E2"/>
			<stop  offset="0.86" style="stop-color:#43A0E0"/>
			<stop  offset="0.97" style="stop-color:#4E90E0"/>
		</linearGradient>
		<path style="fill:url(#SVGID_00000179609175441294420560000011205822294262013088_);" d="M170.7,454.4c3.7,0,7.3,0,11,0
			c2.2,0,3.5,1.1,3.5,2.9c0,1.8-1.3,2.9-3.5,2.9c-7.4,0-14.9,0-22.4,0c-2.2,0-3.5-1.1-3.5-2.9s1.3-2.9,3.5-2.9
			C163.1,454.3,166.9,454.4,170.7,454.4z"/>
		
			<linearGradient id="SVGID_00000112590048722515997960000016921437680593238929_" gradientUnits="userSpaceOnUse" x1="114.7781" y1="-180.7822" x2="144.0913" y2="-180.7822" gradientTransform="matrix(1 0 0 -1 0 300)">
			<stop  offset="0" style="stop-color:#00FFE3"/>
			<stop  offset="0.17" style="stop-color:#08F3E3"/>
			<stop  offset="0.46" style="stop-color:#1FD3E2"/>
			<stop  offset="0.86" style="stop-color:#43A0E0"/>
			<stop  offset="0.97" style="stop-color:#4E90E0"/>
		</linearGradient>
		<path style="fill:url(#SVGID_00000112590048722515997960000016921437680593238929_);" d="M129.5,483.7c-3.7,0-7.5,0-11.2,0
			c-2.2,0-3.5-1.1-3.6-2.8s1.3-3,3.6-3h22.2c2.2,0,3.5,1.1,3.6,2.8c0.1,1.8-1.3,3-3.6,3C136.9,483.7,133.2,483.7,129.5,483.7z"/>
		
			<linearGradient id="SVGID_00000006693306992331158270000004498684232835661186_" gradientUnits="userSpaceOnUse" x1="114.7798" y1="-192.4844" x2="144.0902" y2="-192.4844" gradientTransform="matrix(1 0 0 -1 0 300)">
			<stop  offset="0" style="stop-color:#00FFE3"/>
			<stop  offset="0.17" style="stop-color:#08F3E3"/>
			<stop  offset="0.46" style="stop-color:#1FD3E2"/>
			<stop  offset="0.86" style="stop-color:#43A0E0"/>
			<stop  offset="0.97" style="stop-color:#4E90E0"/>
		</linearGradient>
		<path style="fill:url(#SVGID_00000006693306992331158270000004498684232835661186_);" d="M129.3,495.4c-3.7,0-7.3,0-11,0
			c-2.2,0-3.5-1.1-3.5-2.9s1.3-3,3.4-3c7.5,0,14.9,0,22.4,0c2.2,0,3.5,1.1,3.5,2.9s-1.3,2.9-3.4,3
			C136.9,495.5,133.1,495.4,129.3,495.4z"/>
		
			<linearGradient id="SVGID_00000000934493178953468810000012368531106017783456_" gradientUnits="userSpaceOnUse" x1="161.7287" y1="-133.85" x2="185.1713" y2="-133.85" gradientTransform="matrix(1 0 0 -1 0 300)">
			<stop  offset="0" style="stop-color:#00FFE3"/>
			<stop  offset="0.17" style="stop-color:#08F3E3"/>
			<stop  offset="0.46" style="stop-color:#1FD3E2"/>
			<stop  offset="0.86" style="stop-color:#43A0E0"/>
			<stop  offset="0.97" style="stop-color:#4E90E0"/>
		</linearGradient>
		<path style="fill:url(#SVGID_00000000934493178953468810000012368531106017783456_);" d="M173.4,436.8c-2.8,0-5.5,0-8.2,0
			c-2.1,0-3.4-1.2-3.4-3s1.3-2.8,3.4-2.8c5.6,0,11.1,0,16.7,0c2.1,0,3.4,1.2,3.4,3c-0.1,1.8-1.3,2.8-3.4,2.9
			C179,436.8,176.2,436.8,173.4,436.8z"/>
		
			<linearGradient id="SVGID_00000117640178523191844670000013020575473605490060_" gradientUnits="userSpaceOnUse" x1="120.6482" y1="-169.005" x2="132.3582" y2="-169.005" gradientTransform="matrix(1 0 0 -1 0 300)">
			<stop  offset="0" style="stop-color:#00FFE3"/>
			<stop  offset="0.17" style="stop-color:#08F3E3"/>
			<stop  offset="0.46" style="stop-color:#1FD3E2"/>
			<stop  offset="0.86" style="stop-color:#43A0E0"/>
			<stop  offset="0.97" style="stop-color:#4E90E0"/>
		</linearGradient>
		<path style="fill:url(#SVGID_00000117640178523191844670000013020575473605490060_);" d="M126.4,471.9c-1,0-2,0-2.9,0
			c-1.6,0-2.9-1.4-2.8-3c0,0,0,0,0,0c0-1.5,1.3-2.8,2.8-2.8c2-0.1,4-0.1,6,0c1.5,0,2.8,1.3,2.8,2.8c0.1,1.6-1.2,2.9-2.8,3
			c0,0,0,0,0,0C128.5,472,127.4,471.9,126.4,471.9z"/>
		
			<linearGradient id="SVGID_00000136385833107374381920000009608798351415415484_" gradientUnits="userSpaceOnUse" x1="114.78" y1="-215.9806" x2="126.49" y2="-215.9806" gradientTransform="matrix(1 0 0 -1 0 300)">
			<stop  offset="0" style="stop-color:#00FFE3"/>
			<stop  offset="0.17" style="stop-color:#08F3E3"/>
			<stop  offset="0.46" style="stop-color:#1FD3E2"/>
			<stop  offset="0.86" style="stop-color:#43A0E0"/>
			<stop  offset="0.97" style="stop-color:#4E90E0"/>
		</linearGradient>
		<path style="fill:url(#SVGID_00000136385833107374381920000009608798351415415484_);" d="M120.5,518.9c-0.9,0-1.8,0-2.8,0
			c-1.6,0-3-1.2-3-2.8c0,0,0,0,0,0c0-1.6,1.2-2.9,2.8-2.9c0,0,0.1,0,0.1,0c2-0.1,3.9-0.1,5.9,0c1.6,0,2.9,1.3,2.9,2.9
			c0,1.6-1.3,2.9-2.9,2.9C122.6,518.9,121.5,518.9,120.5,518.9z"/>
	</g>
	
		<linearGradient id="SVGID_00000110448775741490591610000013624389114531904182_" gradientUnits="userSpaceOnUse" x1="150.0144" y1="158.7358" x2="150.0144" y2="158.7358">
		<stop  offset="0" style="stop-color:#00FFE3"/>
		<stop  offset="0.17" style="stop-color:#08F3E3"/>
		<stop  offset="0.46" style="stop-color:#1FD3E2"/>
		<stop  offset="0.86" style="stop-color:#43A0E0"/>
		<stop  offset="0.97" style="stop-color:#4E90E0"/>
	</linearGradient>
	<path style="fill:url(#SVGID_00000110448775741490591610000013624389114531904182_);" d="M150,158.7"/>
	<g>
		<g>
			
				<linearGradient id="SVGID_00000163783545827840162300000012523055163210685610_" gradientUnits="userSpaceOnUse" x1="645.2532" y1="195.4272" x2="934.7468" y2="195.4272">
				<stop  offset="0" style="stop-color:#00FFE3"/>
				<stop  offset="0.17" style="stop-color:#08F3E3"/>
				<stop  offset="0.46" style="stop-color:#1FD3E2"/>
				<stop  offset="0.86" style="stop-color:#43A0E0"/>
				<stop  offset="0.97" style="stop-color:#4E90E0"/>
			</linearGradient>
			<path style="fill:url(#SVGID_00000163783545827840162300000012523055163210685610_);" d="M934.7,252.6c-0.2,0.7-0.5,1.4-0.7,2.1
				c-2.5,10.1-11,17.1-21.5,17.8c-1.4,0.1-2.8,0.1-4.2,0.1c-78.9,0-157.9,0-236.8,0c-6.8,0-13.1-1.3-18.3-6
				c-5-4.5-7.7-10.2-7.9-16.9c-0.2-6.2-0.1-12.4,0-18.7c0-2.9,1.6-4.7,4.1-4.8c2.5-0.1,4.3,1.8,4.3,4.8c0,5.8,0,11.7,0,17.5
				c0,8.7,5.7,14.8,14.3,15.5c1.2,0.1,2.4,0.1,3.7,0.1c78.8,0,157.7,0,236.5,0c2.2,0,4.4,0,6.5-0.5c6.3-1.3,11.2-7.2,11.5-13.7
				c0.1-1.1,0-2.3,0-3.4c0-40.5,0-81,0-121.5c0-0.8,0-1.7,0-2.5c0.1-2.3,1.1-3.7,3-4.3c2-0.6,3.5,0.2,4.7,1.7
				c0.2,0.3,0.5,0.5,0.7,0.8C934.7,164.8,934.7,208.7,934.7,252.6z"/>
			
				<linearGradient id="SVGID_00000030467722871438976980000006675109023700445090_" gradientUnits="userSpaceOnUse" x1="645.2872" y1="130.0818" x2="1052.8745" y2="130.0818">
				<stop  offset="0" style="stop-color:#00FFE3"/>
				<stop  offset="0.17" style="stop-color:#08F3E3"/>
				<stop  offset="0.46" style="stop-color:#1FD3E2"/>
				<stop  offset="0.86" style="stop-color:#43A0E0"/>
				<stop  offset="0.97" style="stop-color:#4E90E0"/>
			</linearGradient>
			<path style="fill:url(#SVGID_00000030467722871438976980000006675109023700445090_);" d="M934.3,63.1
				c-3.2-12.7-11.5-19.3-24.6-19.3c-39.2,0-78.4,0-117.6,0c-0.8,0-1.5,0-2.3,0c-2.5,0.2-3.9,1.7-4,3.9c-0.1,2.4,1.3,4,3.9,4.3
				c1.1,0.1,2.3,0.1,3.4,0.1c38.5,0,77.1,0,115.6,0c1.4,0,2.8,0,4.2,0.2c7.3,0.8,13,6.9,13.2,14.2c0.1,6.8,0,13.6,0.1,20.4
				c0,1.5-0.4,2.2-2,2.2c-13.8,0-63.8-0.1-77.6,0c-63,0-126.1,0-189.1,0c-0.6,0-1.1-0.1-1.7,0c-1.8,0.2-2.2-0.6-2.2-2.3
				c0.1-6.7,0-13.4,0.1-20.1c0.1-6.2,4.2-11.8,10.1-13.6c2.2-0.7,4.6-0.9,7-0.9c32.7-0.1,65.4,0,98.1,0c1.2,0,2.5,0,3.7-0.2
				c2.2-0.4,3.4-2.1,3.3-4.2c-0.1-2-1.4-3.5-3.5-3.8c-0.7-0.1-1.5-0.1-2.3-0.1c-33.5,0-67.1,0-100.6,0c-1.9,0-3.8,0.1-5.6,0.5
				c-11.2,2.4-18.6,11.8-18.6,23.8c0,47.5,0,95,0,142.5c0,0.7,0,1.3,0,2c0.3,2.3,2,3.9,4.2,3.9c2.1,0,3.9-1.6,4.2-3.9
				c0.1-0.9,0.1-1.9,0.1-2.8c0-36.1,0-72.2,0-108.3c0-4,0-4,4.1-4c62.8,0,125.7,0,188.5,0c9.2,0,55.5,0,64.7,0c3.9,0,7.7,0,11.6,0
				c4.3,0,3.6-0.3,3.7,3.6c0,1.1-0.1,2.3,0,3.4c0.2,1.9,1.1,3.1,3,3.7c1.7,0.6,3.1,0,4.3-1.2c0.4-0.4,0.7-0.8,1.1-1.2V63.8
				C934.6,63.5,934.4,63.3,934.3,63.1z"/>
			<g>
				
					<linearGradient id="SVGID_00000089550796978836470280000004096248630164162742_" gradientUnits="userSpaceOnUse" x1="668.2618" y1="70.3338" x2="694.6318" y2="70.3338">
					<stop  offset="0" style="stop-color:#00FFE3"/>
					<stop  offset="0.17" style="stop-color:#08F3E3"/>
					<stop  offset="0.46" style="stop-color:#1FD3E2"/>
					<stop  offset="0.86" style="stop-color:#43A0E0"/>
					<stop  offset="0.97" style="stop-color:#4E90E0"/>
				</linearGradient>
				<path style="fill:url(#SVGID_00000089550796978836470280000004096248630164162742_);" d="M681.3,57.1c-7.2,0.1-13,6-13,13.2
					c0,7.4,5.8,13.3,13.2,13.2c7.4,0,13.2-5.9,13.2-13.3C694.6,62.9,688.6,57,681.3,57.1z M681.4,75.1c-2.7,0-4.8-2.2-4.8-4.9
					c0.1-2.6,2.2-4.7,4.7-4.7c2.6-0.1,4.9,2.1,4.9,4.8C686.3,73,684.1,75.2,681.4,75.1z"/>
				
					<linearGradient id="SVGID_00000134967956889611420470000003654094820186965928_" gradientUnits="userSpaceOnUse" x1="700.4894" y1="70.3339" x2="726.86" y2="70.3339">
					<stop  offset="0" style="stop-color:#00FFE3"/>
					<stop  offset="0.17" style="stop-color:#08F3E3"/>
					<stop  offset="0.46" style="stop-color:#1FD3E2"/>
					<stop  offset="0.86" style="stop-color:#43A0E0"/>
					<stop  offset="0.97" style="stop-color:#4E90E0"/>
				</linearGradient>
				<path style="fill:url(#SVGID_00000134967956889611420470000003654094820186965928_);" d="M713.5,57.1c-7.2,0.1-13,6-13,13.2
					c0,7.4,5.8,13.3,13.2,13.3c7.4,0,13.2-5.9,13.2-13.3C726.8,62.9,720.8,57,713.5,57.1z M713.7,75.1c-2.6,0-4.7-2-4.8-4.6
					c-0.1-2.7,2-5,4.6-5.1c2.6-0.1,4.9,2.1,4.9,4.8C718.5,73,716.4,75.1,713.7,75.1z"/>
				
					<linearGradient id="SVGID_00000135669978276331967110000007673298934383040429_" gradientUnits="userSpaceOnUse" x1="732.7199" y1="70.3348" x2="759.0836" y2="70.3348">
					<stop  offset="0" style="stop-color:#00FFE3"/>
					<stop  offset="0.17" style="stop-color:#08F3E3"/>
					<stop  offset="0.46" style="stop-color:#1FD3E2"/>
					<stop  offset="0.86" style="stop-color:#43A0E0"/>
					<stop  offset="0.97" style="stop-color:#4E90E0"/>
				</linearGradient>
				<path style="fill:url(#SVGID_00000135669978276331967110000007673298934383040429_);" d="M745.9,57.1c-7.2,0-13.1,5.8-13.2,13
					c-0.1,7.4,5.7,13.4,13,13.4c7.4,0.1,13.3-5.7,13.3-13.1C759.1,63.1,753.2,57.1,745.9,57.1z M745.9,75.1c-2.7,0-4.8-2.2-4.8-4.9
					c0-2.6,2.1-4.7,4.7-4.8c2.6-0.1,4.9,2.1,4.9,4.8C750.7,73,748.6,75.1,745.9,75.1z"/>
			</g>
		</g>
		<g>
			
				<radialGradient id="SVGID_00000064347576267859099720000000526596120162224542_" cx="789" cy="178.1431" r="72.4696" gradientUnits="userSpaceOnUse">
				<stop  offset="0" style="stop-color:#00FFE3"/>
				<stop  offset="0.17" style="stop-color:#08F3E3"/>
				<stop  offset="0.46" style="stop-color:#1FD3E2"/>
				<stop  offset="0.86" style="stop-color:#43A0E0"/>
				<stop  offset="0.97" style="stop-color:#4E90E0"/>
			</radialGradient>
			<path style="fill:url(#SVGID_00000064347576267859099720000000526596120162224542_);" d="M853.8,102c-2.2-1.5-4.5-1.2-6.6,0.1
				c-1.5,0.9-2.8,2.2-4,3.4c-1.3,1.4-2.5,2.9-3.7,4.5c-0.3,0.5-0.7,0.8-1.1,1c-0.7,0.4-1.4,0.3-1.6,0.3c-1.3,0-32.5,0-75.5,0
				c-10.1,0-20.2,0-30.3,0c-1,0-1.9,0-2.9,0.2c-3,0.4-5.6,2.7-6.3,5.7c-0.2,1-0.3,2.1-0.3,3.2c0,28.5,0,57,0,85.5c0,0.5,0,0.9,0,1.4
				c0.3,4.5,3.5,7.6,8,7.6c3.2,0,6.4,0,9.5,0c0.6,0,1.1,0.1,1.8,0.1c-0.4,7.6,2.7,12.6,10.2,14.7c-0.2,0.6-0.4,1.2-0.6,1.7
				c-2.4,6.5-4.7,13-7.1,19.5c-0.7,1.8-0.6,3.3,1,4.5h15c0.6-0.8,1.5-1.6,1.9-2.5c2.6-7,5.1-14,7.7-21c0.8-2.2,0.3-2.1,3.1-2.1
				c1.2,0,2.5,0,3.9,0c0,0.9,0.1,1.5,0.1,2.2c0,6.6,0,13.3,0,19.9c0,1.5,0.3,2.8,1.7,3.6h14.3c1.1-0.9,1.5-2.1,1.5-3.6
				c-0.1-6.6,0-13.3,0-19.9v-2.1c2.1,0,4-0.1,6,0.1c0.4,0,0.8,0.9,1,1.4c2.6,7.2,5.2,14.4,7.9,21.5c0.4,1,1.1,1.7,1.7,2.6h15
				c1.8-1.4,2-2.1,1.2-4.2c-2.4-6.6-4.8-13.1-7.1-19.7c-0.2-0.6-0.4-1.1-0.5-1.7c0.3-0.2,0.4-0.3,0.6-0.3c6.8-2.5,9.2-5.7,9.5-13
				c0-0.5,0.1-1,0.2-1.5c3.9,0,7.6,0,11.4,0c3.7,0,6.7-2.4,7.5-6c0.2-1,0.2-2,0.2-3c0-24.4,0-48.8,0-73.2c0-1,0.2-2.1,0.6-3.1
				c2.1-5.5,4.4-10.9,6.5-16.4c0.6-1.6,1-3.3,1.2-4.9C856.6,105.7,856,103.4,853.8,102z M756.6,250h-7.1c0.2-0.6,0.3-1.1,0.4-1.5
				c2.1-5.8,4.3-11.6,6.3-17.4c0.4-1.2,1-1.6,2.2-1.5c1.7,0.1,3.5,0,5.6,0C761.5,236.7,759,243.4,756.6,250z M788.1,250h-6.5
				c0-0.6-0.1-1.1-0.1-1.7c0-5.6,0-11.2,0-16.9c0-1.9,0-1.9,1.9-1.9c1.5,0,3,0,4.7,0V250z M820.1,249.8c0,0,0,0.1-0.1,0.3
				c-2,0-4.1,0-6.2,0c-0.3,0-0.8-0.4-1-0.7c-2.4-6.4-4.7-12.9-7-19.3c0,0,0-0.1,0.1-0.4c2,0,4.1,0,6.2,0c0.3,0,0.8,0.4,1,0.8
				C815.5,236.9,817.8,243.4,820.1,249.8z M816.1,224.3c-20.7,0-41.3-0.1-62,0.1c-4.9,0-8.7-3.4-7.7-9.4h76.7
				C824.5,220.1,821.4,224.3,816.1,224.3z M850.4,110.8c-2.4,6-4.7,12-7.2,18c-4.6,10.8-9.7,21.4-15.7,31.5
				c-0.9,1.5-1.8,2.9-2.8,4.4c-3.7-2.1-7.3-4.2-11.1-6.4c0.2-0.5,0.4-1,0.6-1.4c2.9-4.9,5.8-9.9,8.7-14.8c0.4-0.7,0.9-1.3,1.3-2
				c0.8-1.5,0.6-3-0.6-3.8c-1.3-0.9-2.8-0.6-3.8,0.9c-1.9,2.9-3.8,5.9-5.6,8.9c-3.3,5.5-6.4,11.1-8.5,17.2c-0.2,0.5-0.7,1-1.2,1.3
				c-1.4,0.9-2.9,1.8-4.4,2.6c-0.5,0.3-1.1,0.6-1.7,0.5c-4.7-0.3-8.6,1.2-12.3,4.1c-6.6,5.3-16.1,2.1-18.1-6
				c-1-4.3,0.1-8.1,3.4-11.1c1.7-1.5,2.8-3.2,2.8-5.6c0-2.7-1.2-4.8-3.6-6.2c-2.4-1.3-4.9-1.2-7.2,0.4c-1.1,0.7-2,1.7-2.9,2.6
				c-0.4,0.3-0.7,0.8-1,1.1c-0.7,0.7-1.5,0.8-2.3,0.1c-0.7-0.6-0.7-1.5-0.1-2.1c0.9-1.1,1.9-2.1,2.9-3.1c2.7-2.5,5.8-4.3,9.3-5.6
				c2.9-1.1,4.6-3.1,4.8-6.2c0.4-5.1-4.5-8.6-9.5-6.8c-11.2,4.1-19.4,11.5-24.2,22.3c-5.3,11.8-5.1,23.6,0.3,35.4
				c0.2,0.4,0.3,0.7,0.6,1.1c0.8,1.2,2.2,1.6,3.4,1.1c1.3-0.6,1.8-2,1.3-3.4c-0.9-2.3-2-4.6-2.6-7c-5.1-18.1,4.7-37.4,22.2-44.1
				c1.8-0.7,2.7-0.6,3.1,0.5c0.5,1.1-0.1,1.8-2,2.5c-5.2,2.1-9.7,5.2-13.3,9.5c-3.4,3.9-2.5,8.6,2,11.2c0.1,0.1,0.3,0.2,0.3,0.2
				c-0.6,2.8-1.3,5.4-1.7,8.1c-0.6,3.5,0.1,7,1.1,10.4c0.5,1.7,1.9,2.5,3.3,2.1c1.5-0.5,2.3-1.9,1.7-3.7c-1.3-4-1.4-8-0.2-12.1
				c1-3.5,2.9-6.4,5.5-8.8c0.4-0.4,0.9-0.9,1.4-1c0.5-0.1,1.3,0.1,1.6,0.4c0.3,0.4,0.4,1.2,0.2,1.7c-0.2,0.5-0.7,0.9-1.1,1.2
				c-5.2,4.9-6.7,12.3-3.9,18.7c2.8,6.5,9.4,10.5,16.5,10c3.4-0.2,6.5-1.5,9.2-3.6c1.3-1,2.8-1.7,4.2-2.5c0.5-0.3,1.2-0.3,2-0.4
				c-0.1,0.6-0.1,1-0.2,1.3c-0.6,2.4-0.4,4.7,0.4,7c0.8,2.6,0.9,4.9-1,7.2c-1.5,1.8-0.6,4.4,1.5,5.5c0.4,0.2,0.8,0.3,1.4,0.6
				c-3.3,2.1-6.6,3.4-10.2,4.2c-13.5,2.9-25.2-0.6-35.1-10.3c-0.4-0.4-0.7-0.8-1.1-1.1c-1.1-1-2.7-1.1-3.7-0.1
				c-1.1,1-1.2,2.6-0.1,3.8c1.4,1.5,2.9,3.1,4.5,4.4c8.6,7,18.5,10.3,29.5,9.7c9.1-0.5,17.2-3.8,24.3-9.6c0.7-0.5,1.5-1,2.4-1.2
				c8.9-1.9,15.1-9.3,15.4-18.4c0-0.6,0.2-1.3,0.5-1.7c6.5-7.7,11.1-16.6,15.7-25.5c0.9-1.8,1.8-3.7,3.1-5.5v1.6
				c0,20.3,0,40.5,0,60.8c0,3.1-0.7,3.8-3.8,3.8c-36.1,0-72.2,0-108.3,0c-0.5,0-0.9,0-1.4,0c-1.4-0.2-2.1-1-2.3-2.3
				c-0.1-0.6,0-1.1,0-1.7c0-28.3,0-56.5,0-84.8c0-0.6,0-1.1,0-1.7c0.1-1.5,0.9-2.2,2.4-2.3c0.3,0,0.7,0,1,0c34,0,68,0,102,0h1.7
				c-0.4,0.6-0.7,1.1-1,1.5c-2.3,3.1-4.5,6.1-6.8,9.2c-0.3,0.4-0.6,0.8-0.8,1.3c-0.5,1.1-0.1,2.5,0.9,3.2c1,0.7,2.2,0.7,3.1-0.1
				c0.5-0.4,0.9-1,1.3-1.6c5.4-7.1,10.9-14.1,16.3-21.2c0.9-1.1,1.8-2.3,3.5-2.5C851.3,108.1,850.9,109.5,850.4,110.8z M800.6,179.5
				c-1.1-4.2,1.4-8.7,5.6-9.9c0.5-0.1,1.2,0,1.7,0.3c3.1,1.7,6.2,3.6,9.3,5.3c0.8,0.5,1.1,1,0.9,1.9c-0.9,6.8-6.2,11.9-13.1,12.3
				c-1.1,0.1-2.3,0.1-3.4,0.1c-0.3,0-0.5-0.1-0.6-0.1c0.1-2.3,0.3-4.4,0.3-6.6C801.3,181.7,800.9,180.6,800.6,179.5z M810.5,165.3
				c0.3-0.7,0.5-1.2,0.8-2.1c3.4,2,6.7,3.9,10.2,5.9c-0.6,0.7-1,1.2-1.4,1.7C816.8,168.9,813.7,167.1,810.5,165.3z"/>
		</g>
	</g>
	<g>
		<g>
			
				<linearGradient id="SVGID_00000121998910385343407990000002957077654524520354_" gradientUnits="userSpaceOnUse" x1="966.0817" y1="196.1147" x2="1253.9183" y2="196.1147">
				<stop  offset="0" style="stop-color:#00FFE3"/>
				<stop  offset="0.17" style="stop-color:#08F3E3"/>
				<stop  offset="0.46" style="stop-color:#1FD3E2"/>
				<stop  offset="0.86" style="stop-color:#43A0E0"/>
				<stop  offset="0.97" style="stop-color:#4E90E0"/>
			</linearGradient>
			<path style="fill:url(#SVGID_00000121998910385343407990000002957077654524520354_);" d="M1253.9,253c-0.2,0.7-0.5,1.4-0.7,2.1
				c-2.5,10.1-10.9,17-21.4,17.7c-1.4,0.1-2.8,0.1-4.2,0.1c-78.5,0-157,0-235.5,0c-6.8,0-13-1.3-18.2-5.9c-5-4.5-7.7-10.1-7.8-16.8
				c-0.2-6.2-0.1-12.4,0-18.5c0-2.9,1.6-4.7,4-4.8c2.5-0.1,4.3,1.8,4.3,4.8c0,5.8,0,11.6,0,17.4c0,8.6,5.7,14.7,14.3,15.4
				c1.2,0.1,2.4,0.1,3.6,0.1c78.4,0,156.8,0,235.2,0c2.1,0,4.3,0,6.4-0.5c6.3-1.3,11.1-7.1,11.5-13.6c0.1-1.1,0-2.2,0-3.4
				c0-40.3,0-80.5,0-120.8c0-0.8,0-1.7,0-2.5c0.1-2.3,1.1-3.7,3-4.3c2-0.6,3.5,0.2,4.7,1.7c0.2,0.3,0.5,0.5,0.7,0.8
				C1253.9,165.7,1253.9,209.3,1253.9,253z"/>
			
				<linearGradient id="SVGID_00000160893401725016508110000005121424066099894932_" gradientUnits="userSpaceOnUse" x1="966.1155" y1="131.1433" x2="1371.3699" y2="131.1433">
				<stop  offset="0" style="stop-color:#00FFE3"/>
				<stop  offset="0.17" style="stop-color:#08F3E3"/>
				<stop  offset="0.46" style="stop-color:#1FD3E2"/>
				<stop  offset="0.86" style="stop-color:#43A0E0"/>
				<stop  offset="0.97" style="stop-color:#4E90E0"/>
			</linearGradient>
			<path style="fill:url(#SVGID_00000160893401725016508110000005121424066099894932_);" d="M1253.5,64.5
				c-3.2-12.6-11.4-19.2-24.4-19.2c-39,0-77.9,0-116.9,0c-0.7,0-1.5,0-2.2,0c-2.4,0.2-3.9,1.7-4,3.9c-0.1,2.4,1.3,4,3.9,4.3
				c1.1,0.1,2.2,0.1,3.4,0.1c38.3,0,76.6,0,115,0c1.4,0,2.8,0,4.2,0.2c7.3,0.8,13,6.8,13.1,14.2c0.1,6.7,0,13.5,0.1,20.2
				c0,1.5-0.4,2.1-2,2.1c-13.7,0-63.4-0.1-77.2,0c-62.7,0-125.4,0-188,0c-0.6,0-1.1-0.1-1.7,0c-1.8,0.2-2.2-0.6-2.2-2.3
				c0.1-6.7,0-13.3,0.1-20c0.1-6.2,4.1-11.7,10-13.5c2.2-0.7,4.6-0.9,6.9-0.9c32.5-0.1,65,0,97.5,0c1.2,0,2.5,0,3.6-0.2
				c2.1-0.4,3.4-2.1,3.3-4.2c-0.1-2-1.4-3.5-3.5-3.8c-0.7-0.1-1.5-0.1-2.2-0.1c-33.4,0-66.7,0-100.1,0c-1.9,0-3.8,0.1-5.6,0.5
				c-11.2,2.4-18.5,11.8-18.5,23.6c0,47.2,0,94.4,0,141.7c0,0.7,0,1.3,0,2c0.3,2.2,2,3.8,4.1,3.8c2.1,0,3.9-1.6,4.1-3.8
				c0.1-0.9,0.1-1.9,0.1-2.8c0-35.9,0-71.8,0-107.6c0-4,0-4,4-4c62.5,0,125,0,187.5,0c9.2,0,55.2,0,64.3,0c3.8,0,7.7,0,11.5,0
				c4.3,0,3.6-0.2,3.7,3.5c0,1.1-0.1,2.3,0,3.4c0.2,1.8,1.1,3.1,2.9,3.7c1.7,0.6,3.1,0,4.3-1.2c0.4-0.4,0.7-0.8,1.1-1.2V65.2
				C1253.8,65,1253.5,64.8,1253.5,64.5z"/>
			<g>
				
					<linearGradient id="SVGID_00000078763240455590161880000005881392414135564194_" gradientUnits="userSpaceOnUse" x1="988.9586" y1="71.7373" x2="1015.1777" y2="71.7373">
					<stop  offset="0" style="stop-color:#00FFE3"/>
					<stop  offset="0.17" style="stop-color:#08F3E3"/>
					<stop  offset="0.46" style="stop-color:#1FD3E2"/>
					<stop  offset="0.86" style="stop-color:#43A0E0"/>
					<stop  offset="0.97" style="stop-color:#4E90E0"/>
				</linearGradient>
				<path style="fill:url(#SVGID_00000078763240455590161880000005881392414135564194_);" d="M1001.9,58.6
					c-7.2,0.1-12.9,6-12.9,13.1c0,7.3,5.8,13.2,13.1,13.2c7.3,0,13.1-5.9,13.1-13.2C1015.1,64.4,1009.1,58.5,1001.9,58.6z
					 M1002,76.5c-2.7,0-4.8-2.2-4.7-4.9c0.1-2.5,2.1-4.6,4.7-4.7c2.6-0.1,4.9,2.1,4.9,4.8C1006.9,74.4,1004.7,76.5,1002,76.5z"/>
				
					<linearGradient id="SVGID_00000154413427008148924610000002419291251462446772_" gradientUnits="userSpaceOnUse" x1="1021.0017" y1="71.7374" x2="1047.2214" y2="71.7374">
					<stop  offset="0" style="stop-color:#00FFE3"/>
					<stop  offset="0.17" style="stop-color:#08F3E3"/>
					<stop  offset="0.46" style="stop-color:#1FD3E2"/>
					<stop  offset="0.86" style="stop-color:#43A0E0"/>
					<stop  offset="0.97" style="stop-color:#4E90E0"/>
				</linearGradient>
				<path style="fill:url(#SVGID_00000154413427008148924610000002419291251462446772_);" d="M1034,58.6c-7.2,0.1-12.9,5.9-13,13.1
					c0,7.3,5.8,13.2,13.1,13.2c7.3,0,13.1-5.9,13.1-13.2C1047.2,64.4,1041.2,58.5,1034,58.6z M1034.1,76.5c-2.6,0-4.6-2-4.8-4.5
					c-0.1-2.7,2-4.9,4.6-5c2.6-0.1,4.9,2.1,4.9,4.7C1038.9,74.4,1036.8,76.5,1034.1,76.5z"/>
				
					<linearGradient id="SVGID_00000150794304004861090380000013328315965389339287_" gradientUnits="userSpaceOnUse" x1="1053.0477" y1="71.7383" x2="1079.2605" y2="71.7383">
					<stop  offset="0" style="stop-color:#00FFE3"/>
					<stop  offset="0.17" style="stop-color:#08F3E3"/>
					<stop  offset="0.46" style="stop-color:#1FD3E2"/>
					<stop  offset="0.86" style="stop-color:#43A0E0"/>
					<stop  offset="0.97" style="stop-color:#4E90E0"/>
				</linearGradient>
				<path style="fill:url(#SVGID_00000150794304004861090380000013328315965389339287_);" d="M1066.2,58.6c-7.1,0-13,5.8-13.1,13
					c-0.1,7.3,5.7,13.3,13,13.3c7.4,0.1,13.2-5.7,13.3-13.1C1079.3,64.5,1073.4,58.6,1066.2,58.6z M1066.1,76.5
					c-2.7,0-4.8-2.1-4.8-4.8c0-2.5,2.1-4.7,4.6-4.7c2.6-0.1,4.9,2.1,4.9,4.7C1071,74.4,1068.8,76.5,1066.1,76.5z"/>
			</g>
		</g>
		<g>
			
				<radialGradient id="SVGID_00000145030971211505163270000017899149407829935240_" cx="1096.6886" cy="181.2423" r="68.5388" gradientUnits="userSpaceOnUse">
				<stop  offset="0" style="stop-color:#00FFE3"/>
				<stop  offset="0.17" style="stop-color:#08F3E3"/>
				<stop  offset="0.46" style="stop-color:#1FD3E2"/>
				<stop  offset="0.86" style="stop-color:#43A0E0"/>
				<stop  offset="0.97" style="stop-color:#4E90E0"/>
			</radialGradient>
			<path style="fill:url(#SVGID_00000145030971211505163270000017899149407829935240_);" d="M1035.1,170.1c0.9-1.3,1.7-2.7,2.8-3.8
				c1.1-1.1,2.7-1.3,4.2-1.3c3.1,0,6.1,0,9.2,0c0.6,0,1.1,0,1.5-0.8c1.5-4,3.1-8.1,4.8-12.4c-1.7-1.7-3.7-3.7-5.7-5.7
				c-0.6-0.6-1.2-1.2-1.7-1.8c-2.4-2.7-2.5-6.5,0-9.1c4.5-4.7,9.2-9.3,13.8-13.8c2.7-2.6,6.5-2.4,9.3,0.2c1.3,1.2,2.5,2.5,3.7,3.7
				c1.2,1.2,2.5,2.5,3.7,3.8c1.7-0.8,3.2-1.6,4.8-2.3c2.3-0.9,4.6-1.8,7-2.6c1-0.3,1.3-0.8,1.3-1.8c-0.1-2.6,0.1-5.3,0-7.9
				c-0.2-4,1.4-6.8,5.2-8.2c7.4,0,14.8,0,22.2,0c1.3,0.9,2.7,1.7,3.8,2.8c1.2,1.2,1.3,2.9,1.3,4.5c0,3,0,5.9,0,8.9
				c0,0.5,0.3,1.2,0.7,1.3c4,1.7,8.1,3.2,12.5,4.9c2.2-2.2,4.7-4.7,7.2-7.2c2.1-2.1,4.6-2.8,7.3-1.5c1.4,0.7,2.7,1.9,3.8,3.1
				c0.8,0.8,0.6,1.9-0.2,2.8c-0.7,0.8-2,0.9-2.9,0.2c-0.5-0.4-0.9-0.9-1.4-1.3c-1.2-1.2-2.3-1.2-3.6,0c-2.5,2.5-5,5-7.4,7.4
				c-1.9,1.9-2.9,2-5.2,0.7c-3.9-2.2-8-3.9-12.4-5.1c-2.2-0.6-3-1.6-3-3.9c0-3.4,0-6.8,0-10.2c0-2.4-0.7-3.1-3-3.1
				c-5.8,0-11.7,0-17.5,0c-2.2,0-2.9,0.7-2.9,2.9c0,3.5,0,6.9,0,10.4c0,2.3-0.8,3.3-2.9,3.9c-4.4,1.2-8.6,3-12.6,5.2
				c-2,1.1-3.1,0.9-4.7-0.6c-2.5-2.4-4.9-4.9-7.3-7.3c-1.6-1.6-2.6-1.6-4.2-0.1c-4.2,4.2-8.3,8.3-12.5,12.5c-1.5,1.5-1.5,2.6,0,4.1
				c2.4,2.5,4.9,4.9,7.3,7.3c1.7,1.7,1.8,2.8,0.7,4.8c-2.3,4-4,8.2-5.2,12.7c-0.6,2.1-1.6,2.9-3.8,2.9c-3.5,0-7,0-10.5,0
				c-2.1,0-2.8,0.7-2.8,2.8c0,5.9,0,11.9,0,17.8c0,2.1,0.7,2.8,2.8,2.8c3.5,0,6.9,0,10.4,0c2.4,0,3.4,0.7,4,3
				c1.2,4.3,2.9,8.5,5.1,12.4c1.2,2.2,1.1,3.3-0.7,5.1c-2.4,2.5-4.9,4.9-7.3,7.3c-1.4,1.4-1.4,2.5,0,3.9c4.2,4.2,8.5,8.5,12.7,12.7
				c1.4,1.4,2.5,1.4,4-0.1c2.5-2.4,4.9-4.9,7.3-7.3c1.7-1.7,2.8-1.9,4.9-0.7c4,2.2,8.1,4,12.5,5.2c2.2,0.6,2.9,1.6,2.9,3.9
				c0,3.5,0,7,0,10.5c0,2,0.8,2.7,2.7,2.8c6,0,12,0,18,0c2,0,2.7-0.8,2.7-2.8c0-3.3,0-6.5,0-9.8c0-0.6,0-1.2,0.2-1.7
				c0.3-1,1.1-1.5,2.1-1.4c1.1,0.1,1.8,0.7,2.1,1.7c0.1,0.4,0.1,0.9,0.1,1.3c0,3.3,0,6.5,0,9.8c-0.1,4.8-2.7,7.4-7.5,7.4
				c-5.9,0-11.9,0-17.8,0c-4.3,0-7.1-2.6-7.2-6.9c-0.1-3.1,0-6.1,0-9.2c0-0.7,0-1.2-0.9-1.6c-4-1.5-8-3.1-11.9-4.6
				c0-0.1,0-0.3,0-0.4c-0.3,0.3-0.7,0.6-1,0.9c-2.1,2.1-4.3,4.3-6.4,6.4c-3,2.9-6.9,2.9-9.9,0c-4.4-4.3-8.7-8.7-13-13
				c-3-3-3-6.9,0-10c2.4-2.4,4.8-4.8,7.3-7.3c-0.2-0.4-0.3-0.7-0.5-1.1c-1.5-3.5-3-7.1-4.4-10.6c-0.4-0.9-0.7-1.3-1.7-1.3
				c-2.6,0.1-5.3-0.1-7.9,0c-4,0.2-6.8-1.3-8.2-5.2C1035.1,184.9,1035.1,177.5,1035.1,170.1z"/>
			
				<radialGradient id="SVGID_00000003097169557062910440000011515083275062896532_" cx="1110.0082" cy="181.2473" r="47.1401" gradientUnits="userSpaceOnUse">
				<stop  offset="0" style="stop-color:#00FFE3"/>
				<stop  offset="0.17" style="stop-color:#08F3E3"/>
				<stop  offset="0.46" style="stop-color:#1FD3E2"/>
				<stop  offset="0.86" style="stop-color:#43A0E0"/>
				<stop  offset="0.97" style="stop-color:#4E90E0"/>
			</radialGradient>
			<path style="fill:url(#SVGID_00000003097169557062910440000011515083275062896532_);" d="M1102.3,223.3c0-3.1,0-5.9,0-8.6
				c0-2.7,0-5.5,0-8.2c0-0.6-0.3-1.3-0.7-1.7c-1.7-1.9-1.8-4.6-0.1-6.3c1.7-1.7,4.4-1.7,6.1-0.1c1.8,1.7,1.8,4.4,0,6.3
				c-0.3,0.4-0.7,0.9-0.7,1.3c0,5.8,0,11.7,0,17.7c2.1,0,4.2,0,6.4,0c0-0.6,0-1.1,0-1.6c0-5.5,0-10.9,0-16.4c0-1.6,0.5-2.8,1.6-3.9
				c1.5-1.4,3-2.9,4.4-4.5c0.4-0.5,0.8-1.2,0.8-1.9c0.1-2.4,0.1-4.9,0-7.3c0-0.6-0.3-1.2-0.7-1.6c-1.8-1.9-1.8-4.5-0.1-6.3
				c1.7-1.7,4.4-1.7,6.1,0c1.8,1.7,1.8,4.4,0.1,6.3c-0.4,0.4-0.7,1.1-0.7,1.7c-0.1,2.6-0.1,5.3,0,7.9c0,1.6-0.5,2.8-1.6,3.9
				c-1.6,1.5-3.1,3-4.5,4.6c-0.4,0.4-0.7,1-0.7,1.5c0,5.5,0,10.9,0,16.4c0,0.1,0.1,0.3,0.1,0.7c1.5-0.4,3.1-0.7,4.6-1.1
				c1.9-0.5,1.9-0.6,1.9-2.6c0-1.5,0-2.9,0-4.4c0-1.5-0.1-2.7-1.2-4c-1.5-1.6-1-4.3,0.7-5.7c1.8-1.5,4.3-1.4,5.9,0.3
				c1.6,1.6,1.8,4.2,0.2,5.8c-1,0.9-1.1,1.9-1.1,3.1c0.1,1.5,0,3.1,0,4.6c0.1,0.1,0.2,0.2,0.3,0.3c2.1-1.4,4.2-2.7,6.3-4.1
				c0.3-0.2,0.3-0.8,0.3-1.2c0-5.2,0-10.4,0-15.6c0-0.5-0.4-1.2-0.7-1.6c-1.4-1.5-1.7-3.3-0.8-5.1c0.8-1.5,2.6-2.6,4.2-2.4
				c2,0.2,3.5,1.6,3.9,3.6c0.3,1.6-0.2,2.8-1.3,4c-0.3,0.4-0.7,0.9-0.7,1.3c0,4,0,8,0,12c0,0.1,0.1,0.3,0.2,0.6
				c0.9-1,1.8-1.9,2.5-2.9c19.9-24.7,7-61.5-23.9-68.5c-23.9-5.4-47.6,10.9-51.3,35.1c-0.2,1.2-0.3,2.4-0.5,3.6
				c-0.2,1.6-1.2,2.4-2.5,2.2c-1.3-0.2-2.1-1.3-2-2.8c0.6-6.9,2.4-13.4,5.8-19.4c7.8-13.4,19.4-21.6,34.7-23.8
				c25.1-3.5,47.1,13.1,52.4,36c5.8,25.3-9.4,50-34.5,56.4c-26.1,6.7-52.9-10.6-57.7-37.1c-0.3-1.5,0.4-2.7,1.7-2.9
				c1.3-0.3,2.4,0.4,2.7,2c1,4.9,2.6,9.6,5.2,13.9c4.3,7.2,10.2,12.7,17.7,16.5c0.2,0.1,0.5,0.2,1,0.4c0-1.5,0.1-2.9,0-4.2
				c0-0.4-0.4-0.9-0.7-1.2c-1.5-1.6-3.1-3.1-4.6-4.7c-1-0.9-1.4-2.1-1.4-3.4c0-2.7,0-5.4,0-8c0-0.8-0.2-1.3-0.8-1.9
				c-1.8-1.7-1.8-4.4-0.1-6.1c1.7-1.7,4.5-1.7,6.2,0c1.7,1.7,1.7,4.4,0,6.2c-0.6,0.6-0.8,1.2-0.8,2c0,2.3,0,4.6,0.1,6.9
				c0,0.7,0.4,1.5,0.8,2c1.4,1.6,3,3.1,4.5,4.6c1.1,1,1.5,2.2,1.5,3.7c0,1.8,0,3.5,0,5.3c0,0.4,0.2,1,0.5,1
				C1098.7,222.3,1100.3,222.7,1102.3,223.3z"/>
			
				<radialGradient id="SVGID_00000057134117265419431400000017227818604905757599_" cx="1158.54" cy="186.3314" r="44.142" gradientUnits="userSpaceOnUse">
				<stop  offset="0" style="stop-color:#00FFE3"/>
				<stop  offset="0.17" style="stop-color:#08F3E3"/>
				<stop  offset="0.46" style="stop-color:#1FD3E2"/>
				<stop  offset="0.86" style="stop-color:#43A0E0"/>
				<stop  offset="0.97" style="stop-color:#4E90E0"/>
			</radialGradient>
			<path style="fill:url(#SVGID_00000057134117265419431400000017227818604905757599_);" d="M1162.4,151.8c1.7,4.3,3.3,8.3,4.8,12.4
				c0.3,0.9,0.9,0.7,1.5,0.7c3.2,0,6.4,0,9.6,0.1c3.2,0.1,5.6,2.1,6.3,5.1c0.1,0.6,0.2,1.2,0.2,1.7c0,6.2,0,12.4,0,18.6
				c0,4.1-2.7,6.9-6.8,7c-3.1,0.1-6.2,0.1-9.4,0c-1,0-1.3,0.4-1.6,1.2c-1.4,3.6-2.9,7.1-4.4,10.6c-0.4,0.9-0.3,1.3,0.4,2
				c2.2,2.1,4.3,4.2,6.4,6.4c3,3.1,3.1,7,0.1,10c-4.3,4.4-8.7,8.7-13,13c-3.1,3-6.9,3-10,0c-2.4-2.4-4.8-4.8-7.3-7.3
				c-1.1,0.6-2.2,1.1-3.3,1.6c-1.5,0.7-2.8,0.4-3.4-0.8c-0.6-1.2-0.1-2.4,1.4-3.2c1.2-0.6,2.4-1.3,3.6-1.9c1.8-0.9,2.9-0.8,4.4,0.6
				c2.5,2.5,5,5,7.4,7.4c1.7,1.7,2.7,1.7,4.3,0c4.1-4.1,8.3-8.3,12.4-12.4c1.5-1.5,1.5-2.6,0-4.1c-2.4-2.5-4.9-4.9-7.3-7.3
				c-1.7-1.7-1.9-2.8-0.7-4.9c2.2-4,4-8.1,5.2-12.5c0.6-2.2,1.6-2.9,3.9-2.9c3.5,0,7,0,10.5,0c2,0,2.7-0.8,2.7-2.7c0-6,0-12,0-18
				c0-1.9-0.8-2.7-2.6-2.7c-3.5,0-7,0-10.5,0c-2.5,0-3.4-0.7-4.1-3.1c-1.2-4.3-2.9-8.4-5.1-12.2c-1.3-2.3-1.1-3.3,0.7-5.2
				c2.4-2.4,4.8-4.8,7.2-7.2c1.5-1.5,1.4-2.5,0-4c-1.3-1.3-2.6-2.6-3.9-3.9c-1.1-1.1-1.2-2.4-0.2-3.4c0.9-1,2.2-0.9,3.4,0.1
				c1.5,1.5,3,2.9,4.4,4.4c2.7,2.8,2.6,6.7,0,9.5c-2.1,2.2-4.3,4.4-6.5,6.5C1162.8,151.3,1162.5,151.7,1162.4,151.8z"/>
			
				<radialGradient id="SVGID_00000001665685540378882140000000301034548359094681_" cx="1092.6853" cy="166.2032" r="12.8859" gradientUnits="userSpaceOnUse">
				<stop  offset="0" style="stop-color:#00FFE3"/>
				<stop  offset="0.17" style="stop-color:#08F3E3"/>
				<stop  offset="0.46" style="stop-color:#1FD3E2"/>
				<stop  offset="0.86" style="stop-color:#43A0E0"/>
				<stop  offset="0.97" style="stop-color:#4E90E0"/>
			</radialGradient>
			<path style="fill:url(#SVGID_00000001665685540378882140000000301034548359094681_);" d="M1104.3,177.7c0,1.5-0.6,2.3-1.7,2.5
				c-1.2,0.3-2-0.2-2.5-1.3c-0.5-1.1-0.9-2.2-1.3-3.4c-0.3-0.8-0.6-1.1-1.5-1c-3,0.1-6,0-9.1,0c-0.8,0-1.2,0.2-1.5,1
				c-0.3,1-0.7,2-1.1,3c-0.6,1.5-1.7,2.1-2.9,1.6c-1.3-0.5-1.8-1.7-1.2-3.2c2.5-6.7,5.1-13.4,7.7-20.2c0.3-0.9,0.7-1.7,1-2.6
				c0.5-1.3,1.3-2,2.7-2c1.4,0,2.2,0.8,2.7,2.1c2.6,6.8,5.2,13.6,7.7,20.5C1103.6,175.8,1104,176.9,1104.3,177.7z M1092.9,160.1
				c-0.1,0-0.2,0-0.3,0c-1.2,3.2-2.4,6.4-3.7,9.7c2.7,0,5.1,0,7.7,0C1095.3,166.5,1094.1,163.3,1092.9,160.1z"/>
			
				<radialGradient id="SVGID_00000098191640250078264250000011317706495831167139_" cx="1117.6853" cy="166.1676" r="11.8158" gradientUnits="userSpaceOnUse">
				<stop  offset="0" style="stop-color:#00FFE3"/>
				<stop  offset="0.17" style="stop-color:#08F3E3"/>
				<stop  offset="0.46" style="stop-color:#1FD3E2"/>
				<stop  offset="0.86" style="stop-color:#43A0E0"/>
				<stop  offset="0.97" style="stop-color:#4E90E0"/>
			</radialGradient>
			<path style="fill:url(#SVGID_00000098191640250078264250000011317706495831167139_);" d="M1113.2,169.9c0,2.7,0,5.1,0,7.5
				c0,0.5-0.1,1.1-0.2,1.6c-0.4,1-1.2,1.4-2.2,1.3c-1.1-0.1-1.8-0.7-2-1.8c-0.1-0.4,0-0.9,0-1.3c0-7.3,0-14.6,0-21.9
				c0-2.4,0.7-3.1,3.1-3.1c2.2,0,4.5-0.1,6.7,0.1c4.6,0.4,8.2,4.4,8.1,9c-0.1,4.7-3.8,8.5-8.5,8.7
				C1116.6,170,1115,169.9,1113.2,169.9z M1113.3,165.4c1.8,0,3.4,0.1,5.1,0c2-0.2,3.7-2.2,3.8-4.2c0.1-1.9-1.5-4.1-3.4-4.3
				c-1.7-0.2-3.5,0-5.4,0C1113.3,159.6,1113.3,162.4,1113.3,165.4z"/>
			
				<radialGradient id="SVGID_00000046312736102631960440000003642214145667485105_" cx="1133.155" cy="165.8379" r="10.1047" gradientUnits="userSpaceOnUse">
				<stop  offset="0" style="stop-color:#00FFE3"/>
				<stop  offset="0.17" style="stop-color:#08F3E3"/>
				<stop  offset="0.46" style="stop-color:#1FD3E2"/>
				<stop  offset="0.86" style="stop-color:#43A0E0"/>
				<stop  offset="0.97" style="stop-color:#4E90E0"/>
			</radialGradient>
			<path style="fill:url(#SVGID_00000046312736102631960440000003642214145667485105_);" d="M1135.4,165.9c0,3.7,0.1,7.5,0,11.2
				c0,0.8-0.4,1.8-0.9,2.3c-1.2,1.2-3.2,0.4-3.5-1.3c-0.1-0.4-0.1-0.9-0.1-1.3c0-7.3,0-14.7,0-22c0-0.1,0-0.3,0-0.4
				c0.1-1.6,0.9-2.6,2.1-2.6c1.3-0.1,2.3,1,2.4,2.6C1135.4,158.2,1135.4,162,1135.4,165.9z"/>
		</g>
	</g>
	<g>
		<g>
			
				<linearGradient id="SVGID_00000033353311974949554960000004438727747132004775_" gradientUnits="userSpaceOnUse" x1="5.818" y1="195.7821" x2="294.2107" y2="195.7821">
				<stop  offset="0" style="stop-color:#00FFE3"/>
				<stop  offset="0.17" style="stop-color:#08F3E3"/>
				<stop  offset="0.46" style="stop-color:#1FD3E2"/>
				<stop  offset="0.86" style="stop-color:#43A0E0"/>
				<stop  offset="0.97" style="stop-color:#4E90E0"/>
			</linearGradient>
			<path style="fill:url(#SVGID_00000033353311974949554960000004438727747132004775_);" d="M294.2,252.8c-0.2,0.7-0.5,1.4-0.7,2.1
				c-2.5,10.1-10.9,17.1-21.4,17.8c-1.4,0.1-2.8,0.1-4.2,0.1c-78.6,0-157.3,0-235.9,0c-6.8,0-13-1.3-18.2-6
				c-5-4.5-7.7-10.1-7.8-16.8c-0.2-6.2-0.1-12.4,0-18.6c0-2.9,1.6-4.7,4-4.8c2.5-0.1,4.3,1.8,4.3,4.8c0,5.8,0,11.6,0,17.5
				c0,8.6,5.7,14.7,14.3,15.4c1.2,0.1,2.4,0.1,3.7,0.1c78.5,0,157.1,0,235.6,0c2.1,0,4.3,0,6.4-0.5c6.3-1.3,11.2-7.2,11.5-13.6
				c0.1-1.1,0-2.3,0-3.4c0-40.4,0-80.7,0-121.1c0-0.8,0-1.7,0-2.5c0.1-2.3,1.1-3.7,3-4.3c2-0.6,3.5,0.2,4.7,1.7
				c0.2,0.3,0.5,0.5,0.7,0.8C294.2,165.3,294.2,209,294.2,252.8z"/>
			
				<linearGradient id="SVGID_00000060026331658874818970000010361739291499366275_" gradientUnits="userSpaceOnUse" x1="5.852" y1="130.6851" x2="411.8892" y2="130.6851">
				<stop  offset="0" style="stop-color:#00FFE3"/>
				<stop  offset="0.17" style="stop-color:#08F3E3"/>
				<stop  offset="0.46" style="stop-color:#1FD3E2"/>
				<stop  offset="0.86" style="stop-color:#43A0E0"/>
				<stop  offset="0.97" style="stop-color:#4E90E0"/>
			</linearGradient>
			<path style="fill:url(#SVGID_00000060026331658874818970000010361739291499366275_);" d="M293.8,63.9
				c-3.2-12.7-11.5-19.2-24.5-19.2c-39,0-78.1,0-117.1,0c-0.8,0-1.5,0-2.3,0c-2.4,0.2-3.9,1.7-4,3.9c-0.1,2.4,1.3,4,3.9,4.3
				c1.1,0.1,2.2,0.1,3.4,0.1c38.4,0,76.8,0,115.2,0c1.4,0,2.8,0,4.2,0.2c7.3,0.8,13,6.9,13.2,14.2c0.1,6.8,0,13.5,0.1,20.3
				c0,1.5-0.4,2.1-2,2.1c-13.8,0-63.5-0.1-77.3,0c-62.8,0-125.6,0-188.4,0c-0.6,0-1.1-0.1-1.7,0c-1.8,0.2-2.2-0.6-2.2-2.3
				c0.1-6.7,0-13.3,0.1-20c0.1-6.2,4.1-11.7,10-13.6c2.2-0.7,4.6-0.9,6.9-0.9c32.6-0.1,65.1,0,97.7,0c1.2,0,2.5,0,3.6-0.2
				c2.1-0.4,3.4-2.1,3.3-4.2c-0.1-2-1.4-3.5-3.5-3.8c-0.7-0.1-1.5-0.1-2.2-0.1c-33.4,0-66.8,0-100.2,0c-1.9,0-3.8,0.1-5.6,0.5
				C13.2,47.7,5.9,57,5.9,68.9c0,47.3,0,94.6,0,141.9c0,0.7,0,1.3,0,2c0.3,2.2,2,3.8,4.1,3.8c2.1,0,3.9-1.6,4.1-3.9
				c0.1-0.9,0.1-1.9,0.1-2.8c0-36,0-71.9,0-107.9c0-4,0-4,4-4c62.6,0,125.2,0,187.8,0c9.2,0,55.3,0,64.5,0c3.8,0,7.7,0,11.5,0
				c4.3,0,3.6-0.3,3.7,3.5c0,1.1-0.1,2.3,0,3.4c0.2,1.8,1.1,3.1,2.9,3.7c1.7,0.6,3.1,0,4.3-1.2c0.4-0.4,0.7-0.8,1.1-1.2V64.6
				C294.1,64.4,293.8,64.2,293.8,63.9z"/>
			<g>
				
					<linearGradient id="SVGID_00000008145719543964307560000000416439891715935666_" gradientUnits="userSpaceOnUse" x1="28.7392" y1="71.1644" x2="55.0089" y2="71.1644">
					<stop  offset="0" style="stop-color:#00FFE3"/>
					<stop  offset="0.17" style="stop-color:#08F3E3"/>
					<stop  offset="0.46" style="stop-color:#1FD3E2"/>
					<stop  offset="0.86" style="stop-color:#43A0E0"/>
					<stop  offset="0.97" style="stop-color:#4E90E0"/>
				</linearGradient>
				<path style="fill:url(#SVGID_00000008145719543964307560000000416439891715935666_);" d="M41.7,58c-7.2,0.1-12.9,6-13,13.2
					c0,7.4,5.8,13.2,13.2,13.2c7.3,0,13.2-5.9,13.1-13.3C55,63.8,49,57.9,41.7,58z M41.8,76c-2.7,0-4.8-2.2-4.7-4.9
					c0.1-2.5,2.1-4.7,4.7-4.7c2.6-0.1,4.9,2.1,4.9,4.8C46.7,73.9,44.5,76,41.8,76z"/>
				
					<linearGradient id="SVGID_00000050653382291574885380000003388502537880084906_" gradientUnits="userSpaceOnUse" x1="60.8442" y1="71.1645" x2="87.1146" y2="71.1645">
					<stop  offset="0" style="stop-color:#00FFE3"/>
					<stop  offset="0.17" style="stop-color:#08F3E3"/>
					<stop  offset="0.46" style="stop-color:#1FD3E2"/>
					<stop  offset="0.86" style="stop-color:#43A0E0"/>
					<stop  offset="0.97" style="stop-color:#4E90E0"/>
				</linearGradient>
				<path style="fill:url(#SVGID_00000050653382291574885380000003388502537880084906_);" d="M73.8,58c-7.2,0.1-12.9,6-13,13.2
					c0,7.4,5.8,13.2,13.2,13.2c7.3,0,13.2-5.9,13.1-13.2C87.1,63.8,81.1,57.9,73.8,58z M74,76c-2.6,0-4.7-2-4.8-4.5
					c-0.1-2.7,2-4.9,4.6-5c2.6-0.1,4.9,2.1,4.9,4.7C78.8,73.8,76.7,76,74,76z"/>
				
					<linearGradient id="SVGID_00000074422729911672234980000005286622766421370531_" gradientUnits="userSpaceOnUse" x1="92.9521" y1="71.1654" x2="119.2155" y2="71.1654">
					<stop  offset="0" style="stop-color:#00FFE3"/>
					<stop  offset="0.17" style="stop-color:#08F3E3"/>
					<stop  offset="0.46" style="stop-color:#1FD3E2"/>
					<stop  offset="0.86" style="stop-color:#43A0E0"/>
					<stop  offset="0.97" style="stop-color:#4E90E0"/>
				</linearGradient>
				<path style="fill:url(#SVGID_00000074422729911672234980000005286622766421370531_);" d="M106.1,58c-7.2,0-13,5.8-13.1,13
					c-0.1,7.4,5.7,13.3,13,13.4c7.4,0.1,13.2-5.7,13.3-13.1C119.3,63.9,113.4,58,106.1,58z M106.1,76c-2.7,0-4.8-2.1-4.8-4.8
					c0-2.5,2.1-4.7,4.6-4.7c2.6-0.1,4.9,2.1,4.9,4.8C110.9,73.8,108.8,76,106.1,76z"/>
			</g>
		</g>
		<g>
			
				<radialGradient id="SVGID_00000168113468402763778670000001404802384885250481_" cx="105.4137" cy="231.7713" r="5.8321" gradientUnits="userSpaceOnUse">
				<stop  offset="0" style="stop-color:#00FFE3"/>
				<stop  offset="0.17" style="stop-color:#08F3E3"/>
				<stop  offset="0.46" style="stop-color:#1FD3E2"/>
				<stop  offset="0.86" style="stop-color:#43A0E0"/>
				<stop  offset="0.97" style="stop-color:#4E90E0"/>
			</radialGradient>
			<path style="fill:url(#SVGID_00000168113468402763778670000001404802384885250481_);" d="M105.4,229.6c-1.8,0-3.6,0-5.5,0
				c-1.5,0-2.5,0.9-2.5,2.1c0,1.3,1,2.3,2.5,2.3c3.6,0,7.3,0,10.9,0c1.5,0,2.4-1,2.4-2.2c0-1.3-1-2.2-2.5-2.2
				C109.1,229.5,107.3,229.6,105.4,229.6z"/>
			
				<radialGradient id="SVGID_00000019678558945433879580000017543089715124063155_" cx="149.7838" cy="179.5857" r="70.5428" gradientUnits="userSpaceOnUse">
				<stop  offset="0" style="stop-color:#00FFE3"/>
				<stop  offset="0.17" style="stop-color:#08F3E3"/>
				<stop  offset="0.46" style="stop-color:#1FD3E2"/>
				<stop  offset="0.86" style="stop-color:#43A0E0"/>
				<stop  offset="0.97" style="stop-color:#4E90E0"/>
			</radialGradient>
			<path style="fill:url(#SVGID_00000019678558945433879580000017543089715124063155_);" d="M158.7,255.3c-3.4-1.3-3.8-4.1-3.5-7.4
				c-0.8,0-1.3,0-1.9,0c-14.3,0-28.5,0-42.8,0c-0.6,0-1.3,0-1.9-0.2c-1.1-0.3-1.7-1.2-1.5-2.4c0.1-1.1,0.8-1.8,2-1.9
				c0.5-0.1,1,0,1.5,0c14.2,0,28.4,0,42.6,0c0.6,0,1.2,0,1.9,0c0-3.1,0-6.2,0-9.5c-0.5,0-1.1,0-1.7,0c-11.2,0-22.4,0-33.6,0
				c-0.6,0-1.3,0-1.9-0.2c-1-0.4-1.4-1.2-1.3-2.2c0.1-1.1,0.7-1.7,1.8-1.9c0.5-0.1,1.1-0.1,1.6-0.1c11.1,0,22.2,0,33.3,0
				c0.6,0,1.2,0,1.8,0c0-2.8,0-5.4,0-8.2c-21.8,0-43.7,0-65.6,0c0,0.4-0.1,0.8-0.1,1.3c0,6.4,0,12.7,0,19.1c0,1.4,0.4,1.8,1.8,1.8
				c2.5-0.1,4.9,0,7.4,0c1.6,0,2.6,0.8,2.6,2.2c0,1.3-1,2.2-2.6,2.2c-2.8,0-5.5,0.1-8.3,0c-3.2-0.1-5.3-2.2-5.3-5.3
				c0-5.7,0-11.4,0-17.2c0-34.3,0-68.6,0-103c0-1.6,0.1-3.2,1.2-4.4c1.2-1.3,2.6-1.8,4.3-1.8c6.4,0,12.7,0,19.1,0c1,0,1.6-0.3,2.3-1
				c15-15.3,38.8-15.2,53.9,0.1c0.5,0.5,1.3,0.8,2,0.8c6.3,0.1,12.5,0,18.8,0c4.1,0,6,1.9,6,6c0,18.2,0,36.5,0,54.7
				c0,0.6,0,1.3,0,2.1c1.1,0,2.1,0.1,3,0c3.5-0.4,6.1,0.8,8.5,3.4c2.8,3.2,5.9,6.1,9,9c1.2,1.2,1.8,2.5,1.8,4.2
				c0,18.1,0,36.3,0,54.4c0,2.6-1.2,4.1-3.4,5.2C193.8,255.3,176.2,255.3,158.7,255.3z M153.4,125.1c-0.5-0.4-0.8-0.7-1.2-1
				c-10.5-8.4-25.7-5.3-32.6,6.5c-1,1.6-2.1,2.1-3.3,1.4c-1.3-0.7-1.4-1.9-0.5-3.6c5.6-10.2,17.5-15.5,28.8-12.8
				c4.6,1.1,8.6,3.3,12.1,6.4c2.3-1.5,3.2-1.7,4.2-0.7c1,1,0.8,2-1,4.2c0.3,0.5,0.7,1,1,1.6c0.4,0.6,0.7,1.2,1,1.8
				c0.6,1.3,0.4,2.5-0.7,3.1c-1.1,0.7-2.3,0.3-3.1-1c-0.5-0.8-1-1.7-1.6-2.6c-3,2.7-5.9,5.3-8.8,7.9c-0.6,0.5-1.1,0.9-0.7,1.8
				c0.4,1,1,0.9,1.7,0.9c7.1,0,14.2,0,21.3,0c0.5,0,0.9,0,1.6-0.1c-1.3-11.9-6.8-21-17.1-26.5c-11.9-6.4-23.8-5.6-34.9,2.1
				c-8.4,5.8-12.8,14.1-13.7,24.5c1.4,0,2.6,0,3.8,0c1.2,0,2.4,0,3.6,0c1.5,0,2.3,0.8,2.4,2.1c0.1,1.3-0.9,2.3-2.3,2.3
				c-2.7,0.1-5.4,0.1-8.1,0c-2.3-0.1-3.8-1.8-3.7-4.1c0.2-4.6,1.2-9,3.1-13.1c0.8-1.8,1.8-3.6,2.8-5.5c-0.6,0-1.1,0-1.6,0
				c-4.8,0-9.6,0-14.4,0c-2,0-2.1,0-2.1,2c0,30.8,0,61.6,0,92.5c0,0.5,0,1.1,0,1.6c22,0,43.9,0,65.8,0c0-0.8,0-1.6,0.1-2.3
				c0.3-1.2,1.1-1.9,2.3-1.8c1.2,0.1,1.9,0.8,2,2c0.1,0.5,0,1,0,1.5c0,11,0,22,0,33c0,0.6,0,1.1,0,1.7c17,0,33.7,0,50.6,0
				c0-0.3,0.1-0.6,0.1-0.9c0-17.9,0-35.9,0-53.8c0-0.6-0.4-1.3-0.8-1.8c-3.3-3.4-6.6-6.7-9.9-9.9c-0.5-0.5-1.4-0.9-2.2-0.9
				c-12-0.1-24.1,0-36.1,0c-0.5,0-1,0-1.5,0.1c0,0.6-0.1,1.1-0.1,1.5c0,6.3,0,12.6,0,18.9c0,1.6-0.8,2.6-2.2,2.6
				c-1.3,0-2.2-1-2.2-2.6c0-0.5,0-1-0.1-1.6c-0.7,0-1.2,0-1.8,0c-7.8,0-15.7,0-23.5,0c-0.5,0-1,0-1.5,0c-1.1-0.2-1.8-0.9-1.9-2
				c-0.1-1.1,0.5-1.9,1.5-2.2c0.5-0.2,1.1-0.1,1.6-0.1c8,0,16,0,24,0c0.5,0,1,0,1.5,0c0-1.8,0-3.4,0-5.1c-0.6,0-1.2,0-1.7,0
				c-7.9,0-15.8,0-23.7,0c-0.4,0-0.9,0-1.3,0c-1.2-0.2-1.9-0.9-1.9-2.1c-0.1-1.2,0.6-2,1.7-2.2c0.5-0.1,1-0.1,1.5-0.1
				c7.9,0,15.9,0,23.8,0c0.5,0,1,0,1.7,0c0-1.4,0-2.5,0-3.7c0-4,1.7-5.7,5.8-5.7c8.4,0,16.9,0,25.3,0c0.6,0,1.1,0,1.9,0
				c0-0.8,0-1.5,0-2.1c0-17.9,0-35.7,0-53.6c0-0.4,0-0.9,0-1.3c0.1-1.1-0.4-1.5-1.5-1.4c-3.3,0-6.5,0-9.8,0c-2.2,0-4.4,0-6.8,0
				c0.2,0.4,0.3,0.7,0.4,0.9c3.2,5.2,5,10.8,5.4,16.8c0.3,3.4-1.1,5-4.5,5c-7.6,0-15.2,0-22.8,0c-0.9,0-1.4,0.1-1.8,1.1
				c-1.5,3.6-4.3,5.5-8.1,5.5c-3.7,0.1-6.8-2-8.3-5.6c-0.3-0.8-0.7-1-1.5-1c-1.6,0.1-3.3,0-4.9,0c-1.6,0-2.6-0.9-2.5-2.3
				c0-1.3,0.9-2.1,2.5-2.1c1.7,0,3.4,0,5,0c0.4,0,1.1-0.4,1.3-0.8c2.4-5.3,7.3-7.2,12.6-4.8c0.3,0.2,1,0.2,1.3-0.1
				C147.3,130.7,150.3,127.9,153.4,125.1z M138.6,145.6c2.5,0,4.4-1.9,4.5-4.3c0.1-2.4-1.9-4.5-4.3-4.5c-2.4-0.1-4.4,1.9-4.5,4.3
				C134.3,143.6,136.2,145.6,138.6,145.6z"/>
			
				<radialGradient id="SVGID_00000166667856444055898740000007527914887756811652_" cx="105.4137" cy="231.7713" r="5.8321" gradientUnits="userSpaceOnUse">
				<stop  offset="0" style="stop-color:#00FFE3"/>
				<stop  offset="0.17" style="stop-color:#08F3E3"/>
				<stop  offset="0.46" style="stop-color:#1FD3E2"/>
				<stop  offset="0.86" style="stop-color:#43A0E0"/>
				<stop  offset="0.97" style="stop-color:#4E90E0"/>
			</radialGradient>
			<path style="fill:url(#SVGID_00000166667856444055898740000007527914887756811652_);" d="M105.4,229.6c1.8,0,3.6,0,5.5,0
				c1.5,0,2.4,0.9,2.5,2.2c0,1.3-0.9,2.2-2.4,2.2c-3.6,0-7.3,0-10.9,0c-1.6,0-2.6-1-2.5-2.3c0-1.3,1-2.1,2.5-2.1
				C101.8,229.5,103.6,229.6,105.4,229.6z"/>
			
				<radialGradient id="SVGID_00000042727547277428034120000011288905000332990348_" cx="153.1516" cy="160.7932" r="18.972" gradientUnits="userSpaceOnUse">
				<stop  offset="0" style="stop-color:#00FFE3"/>
				<stop  offset="0.17" style="stop-color:#08F3E3"/>
				<stop  offset="0.46" style="stop-color:#1FD3E2"/>
				<stop  offset="0.86" style="stop-color:#43A0E0"/>
				<stop  offset="0.97" style="stop-color:#4E90E0"/>
			</radialGradient>
			<path style="fill:url(#SVGID_00000042727547277428034120000011288905000332990348_);" d="M153.1,163c-7.8,0-15.7,0-23.5,0
				c-0.5,0-1.1,0-1.6-0.1c-1.1-0.3-1.6-1.1-1.5-2.2c0.1-1.1,0.8-1.8,1.8-2c0.4-0.1,0.9,0,1.3,0c15.7,0,31.4,0,47.1,0
				c0.4,0,0.8,0,1.2,0c1.2,0.2,1.9,0.9,2,2.1c0.1,1.2-0.6,2-1.7,2.3c-0.5,0.1-1,0.1-1.5,0.1C168.8,163,160.9,163,153.1,163z"/>
			
				<radialGradient id="SVGID_00000049910649804025566870000003227138259969421184_" cx="144.9524" cy="170.2741" r="13.2077" gradientUnits="userSpaceOnUse">
				<stop  offset="0" style="stop-color:#00FFE3"/>
				<stop  offset="0.17" style="stop-color:#08F3E3"/>
				<stop  offset="0.46" style="stop-color:#1FD3E2"/>
				<stop  offset="0.86" style="stop-color:#43A0E0"/>
				<stop  offset="0.97" style="stop-color:#4E90E0"/>
			</radialGradient>
			<path style="fill:url(#SVGID_00000049910649804025566870000003227138259969421184_);" d="M144.9,172.5c-5.1,0-10.2,0-15.2,0
				c-0.4,0-0.8,0-1.2,0c-1.2-0.2-2-0.9-2.1-2.1c-0.1-1.2,0.8-2.2,2.1-2.3c1.4-0.1,2.9,0,4.3,0c9,0,18,0,27.1,0c0.4,0,0.8,0,1.2,0
				c1.6,0.1,2.5,0.9,2.5,2.3c0,1.3-1,2.1-2.5,2.1c-3.6,0-7.2,0-10.8,0C148.4,172.5,146.7,172.5,144.9,172.5z"/>
			
				<radialGradient id="SVGID_00000020384075218796187880000016793973867421069456_" cx="184.9373" cy="227.0333" r="11.1775" gradientUnits="userSpaceOnUse">
				<stop  offset="0" style="stop-color:#00FFE3"/>
				<stop  offset="0.17" style="stop-color:#08F3E3"/>
				<stop  offset="0.46" style="stop-color:#1FD3E2"/>
				<stop  offset="0.86" style="stop-color:#43A0E0"/>
				<stop  offset="0.97" style="stop-color:#4E90E0"/>
			</radialGradient>
			<path style="fill:url(#SVGID_00000020384075218796187880000016793973867421069456_);" d="M185,224.8c4.2,0,8.5,0,12.7,0
				c1.9,0,2.9,0.8,2.9,2.2c0,1.4-1.1,2.2-2.9,2.2c-8.5,0-17,0-25.5,0c-0.2,0-0.5,0-0.7,0c-1.4-0.2-2.2-1.1-2.1-2.4
				c0.1-1.2,0.9-2,2.3-2C176,224.8,180.5,224.8,185,224.8C185,224.8,185,224.8,185,224.8z"/>
			
				<radialGradient id="SVGID_00000004546146873069764920000006573096534845998991_" cx="184.9404" cy="207.096" r="11.1736" gradientUnits="userSpaceOnUse">
				<stop  offset="0" style="stop-color:#00FFE3"/>
				<stop  offset="0.17" style="stop-color:#08F3E3"/>
				<stop  offset="0.46" style="stop-color:#1FD3E2"/>
				<stop  offset="0.86" style="stop-color:#43A0E0"/>
				<stop  offset="0.97" style="stop-color:#4E90E0"/>
			</radialGradient>
			<path style="fill:url(#SVGID_00000004546146873069764920000006573096534845998991_);" d="M184.8,209.3c-4.1,0-8.2,0-12.3,0
				c-0.5,0-1.1,0-1.6-0.1c-1-0.2-1.6-0.9-1.7-2c0-1.1,0.5-1.9,1.6-2.2c0.6-0.1,1.2-0.1,1.8-0.1c8.2,0,16.4,0,24.6,0
				c2.3,0,3.4,0.7,3.4,2.2c0,1.5-1.1,2.2-3.3,2.2C193.1,209.3,189,209.3,184.8,209.3z"/>
			
				<radialGradient id="SVGID_00000082369248795259354430000009285213724700172933_" cx="180.0055" cy="217.0491" r="7.7403" gradientUnits="userSpaceOnUse">
				<stop  offset="0" style="stop-color:#00FFE3"/>
				<stop  offset="0.17" style="stop-color:#08F3E3"/>
				<stop  offset="0.46" style="stop-color:#1FD3E2"/>
				<stop  offset="0.86" style="stop-color:#43A0E0"/>
				<stop  offset="0.97" style="stop-color:#4E90E0"/>
			</radialGradient>
			<path style="fill:url(#SVGID_00000082369248795259354430000009285213724700172933_);" d="M180,219.3c-2.7,0-5.4,0-8.1,0
				c-1.6,0-2.6-0.8-2.6-2.2c0-1.3,0.9-2.2,2.6-2.2c5.5,0,10.9,0,16.4,0c1.6,0,2.5,0.9,2.5,2.3c0,1.3-0.9,2.1-2.5,2.1
				C185.5,219.3,182.7,219.3,180,219.3z"/>
			
				<radialGradient id="SVGID_00000160906735761721891190000001560471408679964063_" cx="190.2209" cy="197.1671" r="7.4982" gradientUnits="userSpaceOnUse">
				<stop  offset="0" style="stop-color:#00FFE3"/>
				<stop  offset="0.17" style="stop-color:#08F3E3"/>
				<stop  offset="0.46" style="stop-color:#1FD3E2"/>
				<stop  offset="0.86" style="stop-color:#43A0E0"/>
				<stop  offset="0.97" style="stop-color:#4E90E0"/>
			</radialGradient>
			<path style="fill:url(#SVGID_00000160906735761721891190000001560471408679964063_);" d="M190.2,194.9c2.6,0,5.2,0,7.8,0
				c1.6,0,2.6,0.9,2.6,2.2c0,1.3-1,2.2-2.6,2.2c-5.2,0-10.4,0-15.6,0c-1.6,0-2.5-0.9-2.5-2.3c0-1.3,0.9-2.1,2.5-2.1
				C184.9,194.9,187.6,194.9,190.2,194.9z"/>
			
				<radialGradient id="SVGID_00000151537409607607771580000001289506281064712066_" cx="177.9021" cy="236.9471" r="6.2912" gradientUnits="userSpaceOnUse">
				<stop  offset="0" style="stop-color:#00FFE3"/>
				<stop  offset="0.17" style="stop-color:#08F3E3"/>
				<stop  offset="0.46" style="stop-color:#1FD3E2"/>
				<stop  offset="0.86" style="stop-color:#43A0E0"/>
				<stop  offset="0.97" style="stop-color:#4E90E0"/>
			</radialGradient>
			<path style="fill:url(#SVGID_00000151537409607607771580000001289506281064712066_);" d="M177.9,239.2c-2,0-4,0-6.1,0
				c-1.7,0-2.5-0.9-2.5-2.2c0-1.3,0.9-2.2,2.5-2.2c4.1,0,8.3,0,12.4,0c1.5,0,2.4,0.9,2.4,2.3c0,1.3-0.9,2.1-2.5,2.2
				C182,239.2,179.9,239.2,177.9,239.2z"/>
			
				<radialGradient id="SVGID_00000140723651818836822790000003905698592531937931_" cx="173.3715" cy="170.2747" r="4.888" gradientUnits="userSpaceOnUse">
				<stop  offset="0" style="stop-color:#00FFE3"/>
				<stop  offset="0.17" style="stop-color:#08F3E3"/>
				<stop  offset="0.46" style="stop-color:#1FD3E2"/>
				<stop  offset="0.86" style="stop-color:#43A0E0"/>
				<stop  offset="0.97" style="stop-color:#4E90E0"/>
			</radialGradient>
			<path style="fill:url(#SVGID_00000140723651818836822790000003905698592531937931_);" d="M173.3,172.5c-1.4,0-2.8,0-4.1,0
				c-1.5,0-2.4-0.9-2.4-2.3c0-1.2,0.9-2.1,2.3-2.1c2.8,0,5.5,0,8.3,0c1.5,0,2.5,0.9,2.5,2.2c0,1.3-1,2.2-2.4,2.2
				C176.1,172.5,174.7,172.5,173.3,172.5z"/>
			
				<radialGradient id="SVGID_00000177473944496180507400000012424749551959382954_" cx="173.345" cy="197.1816" r="3.2699" gradientUnits="userSpaceOnUse">
				<stop  offset="0" style="stop-color:#00FFE3"/>
				<stop  offset="0.17" style="stop-color:#08F3E3"/>
				<stop  offset="0.46" style="stop-color:#1FD3E2"/>
				<stop  offset="0.86" style="stop-color:#43A0E0"/>
				<stop  offset="0.97" style="stop-color:#4E90E0"/>
			</radialGradient>
			<path style="fill:url(#SVGID_00000177473944496180507400000012424749551959382954_);" d="M173.4,195c0.6,0,1.3,0,1.9,0
				c1.3,0.1,2,0.8,2.1,2.1c0.1,1.3-0.6,2.1-1.8,2.3c-1.5,0.2-2.9,0.2-4.4,0c-1.2-0.1-1.9-1-1.8-2.3c0.1-1.3,0.8-2,2.1-2.1
				C172,194.9,172.7,195,173.4,195z"/>
			
				<radialGradient id="SVGID_00000160908220723719690860000009012765051964935575_" cx="196.7343" cy="217.0292" r="3.148" gradientUnits="userSpaceOnUse">
				<stop  offset="0" style="stop-color:#00FFE3"/>
				<stop  offset="0.17" style="stop-color:#08F3E3"/>
				<stop  offset="0.46" style="stop-color:#1FD3E2"/>
				<stop  offset="0.86" style="stop-color:#43A0E0"/>
				<stop  offset="0.97" style="stop-color:#4E90E0"/>
			</radialGradient>
			<path style="fill:url(#SVGID_00000160908220723719690860000009012765051964935575_);" d="M196.7,219.3c-0.6,0-1.2,0-1.8,0
				c-1.2-0.1-2-0.8-2-2.1c-0.1-1.3,0.7-2.1,1.9-2.2c1.3-0.1,2.6-0.1,3.8,0c1.2,0.1,1.9,0.9,2,2.2c0.1,1.2-0.9,2.1-2.1,2.2
				C197.9,219.3,197.3,219.3,196.7,219.3z"/>
			<g>
				
					<radialGradient id="SVGID_00000062153261051354905380000002380162721128513429_" cx="110.1706" cy="165.5279" r="12.7049" gradientUnits="userSpaceOnUse">
					<stop  offset="0" style="stop-color:#00FFE3"/>
					<stop  offset="0.17" style="stop-color:#08F3E3"/>
					<stop  offset="0.46" style="stop-color:#1FD3E2"/>
					<stop  offset="0.86" style="stop-color:#43A0E0"/>
					<stop  offset="0.97" style="stop-color:#4E90E0"/>
				</radialGradient>
				<path style="fill:url(#SVGID_00000062153261051354905380000002380162721128513429_);" d="M110.2,152.8c-7,0-12.8,5.8-12.7,12.8
					c0.1,7,5.8,12.6,12.8,12.6c7,0,12.6-5.7,12.6-12.7C122.9,158.5,117.2,152.8,110.2,152.8z M110.1,173.8c-4.6,0-8.3-3.8-8.2-8.3
					c0.1-4.5,3.8-8.2,8.4-8.2c4.6,0,8.2,3.7,8.2,8.3C118.4,170.2,114.7,173.8,110.1,173.8z"/>
				
					<radialGradient id="SVGID_00000179613730702846774570000001000066194876002964_" cx="110.2275" cy="165.9211" r="5.4591" gradientUnits="userSpaceOnUse">
					<stop  offset="0" style="stop-color:#00FFE3"/>
					<stop  offset="0.17" style="stop-color:#08F3E3"/>
					<stop  offset="0.46" style="stop-color:#1FD3E2"/>
					<stop  offset="0.86" style="stop-color:#43A0E0"/>
					<stop  offset="0.97" style="stop-color:#4E90E0"/>
				</radialGradient>
				<path style="fill:url(#SVGID_00000179613730702846774570000001000066194876002964_);" d="M112.4,162.2c-1,1-1.9,2-3.1,3.3
					c-0.6-0.7-1-1.3-1.4-1.7c-1-0.9-2.3-0.9-3.2-0.1c-0.9,0.9-0.9,2.2,0.1,3.2c0.9,1,1.9,2,2.9,2.9c1.1,1,2.3,1.1,3.4,0
					c1.5-1.5,3-3,4.5-4.5c1-1.1,1.1-2.4,0.2-3.3C114.8,161,113.6,161,112.4,162.2z"/>
				
					<radialGradient id="SVGID_00000057109332976114846380000015610869376796022206_" cx="110.2275" cy="165.9211" r="5.4591" gradientUnits="userSpaceOnUse">
					<stop  offset="0" style="stop-color:#00FFE3"/>
					<stop  offset="0.17" style="stop-color:#08F3E3"/>
					<stop  offset="0.46" style="stop-color:#1FD3E2"/>
					<stop  offset="0.86" style="stop-color:#43A0E0"/>
					<stop  offset="0.97" style="stop-color:#4E90E0"/>
				</radialGradient>
				<path style="fill:url(#SVGID_00000057109332976114846380000015610869376796022206_);" d="M112.4,162.2c-1,1-1.9,2-3.1,3.3
					c-0.6-0.7-1-1.3-1.4-1.7c-1-0.9-2.3-0.9-3.2-0.1c-0.9,0.9-0.9,2.2,0.1,3.2c0.9,1,1.9,2,2.9,2.9c1.1,1,2.3,1.1,3.4,0
					c1.5-1.5,3-3,4.5-4.5c1-1.1,1.1-2.4,0.2-3.3C114.8,161,113.6,161,112.4,162.2z"/>
			</g>
			
				<radialGradient id="SVGID_00000141447848585461194080000002550514868789568667_" cx="110.2275" cy="165.9211" r="5.4591" gradientUnits="userSpaceOnUse">
				<stop  offset="0" style="stop-color:#00FFE3;stop-opacity:0"/>
				<stop  offset="1.402446e-05" style="stop-color:#06F6E3;stop-opacity:1.993471e-02"/>
				<stop  offset="6.347145e-05" style="stop-color:#19DBE2;stop-opacity:9.021991e-02"/>
				<stop  offset="1.202679e-04" style="stop-color:#29C5E1;stop-opacity:0.171"/>
				<stop  offset="1.866046e-04" style="stop-color:#35B4E1;stop-opacity:0.2652"/>
				<stop  offset="2.687040e-04" style="stop-color:#3DA9E0;stop-opacity:0.3819"/>
				<stop  offset="3.838423e-04" style="stop-color:#42A2E0;stop-opacity:0.5456"/>
				<stop  offset="7.035193e-04" style="stop-color:#43A0E0"/>
			</radialGradient>
			<path style="fill:url(#SVGID_00000141447848585461194080000002550514868789568667_);" d="M109.3,165.5c1.2-1.3,2.1-2.3,3.1-3.3
				c1.2-1.1,2.4-1.2,3.4-0.2c0.9,0.9,0.8,2.2-0.2,3.3c-1.5,1.5-3,3-4.5,4.5c-1.1,1.1-2.3,1-3.4,0c-1-0.9-2-1.9-2.9-2.9
				c-0.9-1-0.9-2.3-0.1-3.2c0.9-0.9,2.1-0.9,3.2,0.1C108.3,164.2,108.7,164.7,109.3,165.5z"/>
			<g>
				
					<radialGradient id="SVGID_00000023994048472116429070000004990469635944135847_" cx="110.1706" cy="194.9417" r="12.7049" gradientUnits="userSpaceOnUse">
					<stop  offset="0" style="stop-color:#00FFE3"/>
					<stop  offset="0.17" style="stop-color:#08F3E3"/>
					<stop  offset="0.46" style="stop-color:#1FD3E2"/>
					<stop  offset="0.86" style="stop-color:#43A0E0"/>
					<stop  offset="0.97" style="stop-color:#4E90E0"/>
				</radialGradient>
				<path style="fill:url(#SVGID_00000023994048472116429070000004990469635944135847_);" d="M110.2,182.2c-7,0-12.8,5.8-12.7,12.8
					c0.1,7,5.8,12.6,12.8,12.6c7,0,12.6-5.7,12.6-12.7C122.9,187.9,117.2,182.2,110.2,182.2z M110.1,203.2c-4.6,0-8.3-3.8-8.2-8.3
					c0.1-4.5,3.8-8.2,8.4-8.2c4.6,0,8.2,3.7,8.2,8.3C118.4,199.6,114.7,203.2,110.1,203.2z"/>
				
					<radialGradient id="SVGID_00000136392668902773916690000000174134457785238693_" cx="110.2275" cy="195.3349" r="5.4591" gradientUnits="userSpaceOnUse">
					<stop  offset="0" style="stop-color:#00FFE3"/>
					<stop  offset="0.17" style="stop-color:#08F3E3"/>
					<stop  offset="0.46" style="stop-color:#1FD3E2"/>
					<stop  offset="0.86" style="stop-color:#43A0E0"/>
					<stop  offset="0.97" style="stop-color:#4E90E0"/>
				</radialGradient>
				<path style="fill:url(#SVGID_00000136392668902773916690000000174134457785238693_);" d="M112.4,191.6c-1,1-1.9,2-3.1,3.3
					c-0.6-0.7-1-1.3-1.4-1.7c-1-0.9-2.3-0.9-3.2-0.1c-0.9,0.9-0.9,2.2,0.1,3.2c0.9,1,1.9,2,2.9,2.9c1.1,1,2.3,1.1,3.4,0
					c1.5-1.5,3-3,4.5-4.5c1-1.1,1.1-2.4,0.2-3.3C114.8,190.4,113.6,190.5,112.4,191.6z"/>
				
					<radialGradient id="SVGID_00000030475760991077496360000002553678150121798038_" cx="110.2275" cy="195.3349" r="5.4591" gradientUnits="userSpaceOnUse">
					<stop  offset="0" style="stop-color:#00FFE3"/>
					<stop  offset="0.17" style="stop-color:#08F3E3"/>
					<stop  offset="0.46" style="stop-color:#1FD3E2"/>
					<stop  offset="0.86" style="stop-color:#43A0E0"/>
					<stop  offset="0.97" style="stop-color:#4E90E0"/>
				</radialGradient>
				<path style="fill:url(#SVGID_00000030475760991077496360000002553678150121798038_);" d="M112.4,191.6c-1,1-1.9,2-3.1,3.3
					c-0.6-0.7-1-1.3-1.4-1.7c-1-0.9-2.3-0.9-3.2-0.1c-0.9,0.9-0.9,2.2,0.1,3.2c0.9,1,1.9,2,2.9,2.9c1.1,1,2.3,1.1,3.4,0
					c1.5-1.5,3-3,4.5-4.5c1-1.1,1.1-2.4,0.2-3.3C114.8,190.4,113.6,190.5,112.4,191.6z"/>
			</g>
			
				<radialGradient id="SVGID_00000011720699439857999670000014596018193809437880_" cx="110.2275" cy="195.3349" r="5.4591" gradientUnits="userSpaceOnUse">
				<stop  offset="0" style="stop-color:#00FFE3;stop-opacity:0"/>
				<stop  offset="1.402446e-05" style="stop-color:#06F6E3;stop-opacity:1.993471e-02"/>
				<stop  offset="6.347145e-05" style="stop-color:#19DBE2;stop-opacity:9.021991e-02"/>
				<stop  offset="1.202679e-04" style="stop-color:#29C5E1;stop-opacity:0.171"/>
				<stop  offset="1.866046e-04" style="stop-color:#35B4E1;stop-opacity:0.2652"/>
				<stop  offset="2.687040e-04" style="stop-color:#3DA9E0;stop-opacity:0.3819"/>
				<stop  offset="3.838423e-04" style="stop-color:#42A2E0;stop-opacity:0.5456"/>
				<stop  offset="7.035193e-04" style="stop-color:#43A0E0"/>
			</radialGradient>
			<path style="fill:url(#SVGID_00000011720699439857999670000014596018193809437880_);" d="M109.3,194.9c1.2-1.3,2.1-2.3,3.1-3.3
				c1.2-1.1,2.4-1.2,3.4-0.2c0.9,0.9,0.8,2.2-0.2,3.3c-1.5,1.5-3,3-4.5,4.5c-1.1,1.1-2.3,1-3.4,0c-1-0.9-2-1.9-2.9-2.9
				c-0.9-1-0.9-2.3-0.1-3.2c0.9-0.9,2.1-0.9,3.2,0.1C108.3,193.6,108.7,194.1,109.3,194.9z"/>
		</g>
	</g>
	<g>
		<g>
			
				<radialGradient id="SVGID_00000046330205442033203790000001673449704185708726_" cx="470" cy="181.5857" r="69.6707" gradientUnits="userSpaceOnUse">
				<stop  offset="0" style="stop-color:#00FFE3"/>
				<stop  offset="0.17" style="stop-color:#08F3E3"/>
				<stop  offset="0.46" style="stop-color:#1FD3E2"/>
				<stop  offset="0.86" style="stop-color:#43A0E0"/>
				<stop  offset="0.97" style="stop-color:#4E90E0"/>
			</radialGradient>
			<path style="fill:url(#SVGID_00000046330205442033203790000001673449704185708726_);" d="M509.8,107.7c0.1,0.1,0.1,0.2,0.2,0.2
				c6.4,1.9,9.2,5.7,9.2,12.3c0,5,0,10,0,15c0,0.5,0,1-0.1,1.4c-0.2,1.2-1,1.9-2.2,1.8c-1.2-0.1-2-0.8-2-2.1c0-2.3,0-4.6,0-6.9
				c0-3.4,0-6.7,0-10.1c0-4.5-3-7.4-7.5-7.4c-23.5,0-47,0-70.5,0c-0.5,0-0.9,0-1.5,0.1c0,0.6-0.1,1.1-0.1,1.6c0,5.7,0,11.4,0,17.2
				c0,4.8-2.5,7.3-7.3,7.3c-5.8,0-11.5,0-17.3,0c-1.2,0-1.5,0.4-1.5,1.5c0,33.7,0,67.3,0,101c0,4,2.8,7.2,6.7,7.2
				c11,0.1,21.9,0,33.2,0c-1.3-2.4-2.8-4.6-3.7-7c-0.9-2.4-1.1-5-1.7-7.8c-0.7,0-1.7,0-2.8,0c-1.8,0-3.7,0.1-5.5,0
				c-4.7-0.2-7.9-3.6-8.1-8.3c0-0.2,0-0.4,0-0.6c0-23.7,0-47.4,0-71.1c0-5.5,3.3-8.8,8.8-8.8c2,0,4-0.1,6.1,0
				c1.3,0.1,1.9-0.1,2.2-1.7c1-5.2,5.7-8.9,11-8.8c5.3,0.1,9.7,3.7,10.8,8.8c0.1,0.5,0.2,1,0.4,1.6c0.6,0,1.2,0,1.7,0
				c19.3,0,38.6,0,57.8,0c5.7,0,9,3.3,9,8.9c0,23.6,0,47.1,0,70.7c0,5.9-3.2,9.1-9.1,9.1c-19.2,0-38.4,0-57.6,0c-0.6,0-1.2,0-2.1,0
				c1.2,5.8-2.3,10-4.7,14.8c0.6,0,1.1,0.1,1.6,0.1c14.6,0,29.2,0,43.9,0c4.6,0,7.2-2.3,7.8-6.8c0.2-1.6,1.1-2.4,2.4-2.2
				c1.3,0.1,2,1.2,1.9,2.8c-0.5,6.2-5.3,10.5-11.7,10.6c-15.5,0-31,0-46.5,0c-1.2,0-1.9,0.2-2.5,1.3c-1.5,2.6-4.9,2.6-6.3-0.1
				c-0.6-1.1-1.3-1.3-2.4-1.3c-10.9,0-21.8,0-32.7,0c-7.5,0-12.2-4.7-12.2-12.3c0-33.3,0-66.5,0-99.8c0-3.4,1.1-6.2,3.6-8.6
				c6.5-6.4,12.9-12.8,19.3-19.3c2.1-2.1,4.2-3.9,7.2-4.5C459.8,107.7,484.8,107.7,509.8,107.7z M530.9,166c-21.5,0-42.8,0-64.2,0
				c0,20.9,0,41.8,0,62.7c0.6,0,1.1,0,1.5,0c19.3,0,38.6,0,57.8,0c3.5,0,4.8-1.3,4.8-4.8c0-18.8,0-37.6,0-56.4
				C530.9,167.1,530.9,166.6,530.9,166z M431.7,166c0,0.7,0,1.1,0,1.6c0,18.8,0,37.6,0,56.4c0,0.5,0,1.1,0.1,1.6
				c0.3,1.7,1.4,3,3,3.1c3.1,0.1,6.1,0,9.4,0c0-0.6,0-1.2,0-1.7c0-13.5,0-27,0-40.5c0-0.6,0-1.2,0.1-1.7c0.2-1.1,1-1.8,2.1-1.7
				c1.2,0,1.9,0.7,2.1,1.8c0.1,0.6,0.1,1.2,0.1,1.7c0,15.1,0,30.3,0,45.4c0,0.6,0,1.2,0,1.8c1.7,0,3.1,0,4.7,0c0-26,0-51.8,0-77.8
				c-1.6,0-3,0-4.7,0c0,0.6,0,1.1,0,1.6c0,5,0,10,0,15c0,0.8,0,1.6,0,2.4c-0.1,1.2-0.8,1.9-2,2c-1.2,0.1-2.1-0.7-2.2-2
				c-0.1-1.8-0.1-3.6-0.1-5.3c0-1.2,0-2.5,0-3.7C439.9,166,435.9,166,431.7,166z M530.9,161.5c0-2.8,0-5.5,0-8.2
				c0-3.3-1.4-4.7-4.6-4.7c-19.4,0-38.7,0-58.1,0c-0.5,0-1,0-1.5,0.1c0,4.4,0,8.6,0,12.8C488.1,161.5,509.4,161.5,530.9,161.5z
				 M457.7,155.9c0,26,0,51.9,0,77.8c1.6,0,3,0,4.5,0c0-26,0-51.9,0-77.8C460.6,155.9,459.2,155.9,457.7,155.9z M412.8,133.7
				c0.3,0,0.6,0.1,1,0.1c4.8,0,9.6,0,14.4,0c2.2,0,2.8-0.7,2.8-2.9c0-4.8,0-9.6,0-14.4c0-0.3-0.1-0.7-0.1-0.9
				C424.8,121.7,418.8,127.7,412.8,133.7z M462.2,151.5c0-2.4,0.1-4.6,0-6.9c-0.1-3.3-2.8-6.1-6.1-6.4c-3.4-0.3-6.8,1.8-7.3,5.1
				c-0.4,2.7-0.1,5.4-0.1,8.2C453.1,151.5,457.6,151.5,462.2,151.5z M444.1,148.7c-3.1,0-6.1-0.1-9.1,0c-1.6,0.1-3,1.4-3.1,3.1
				c-0.2,3.2,0,6.4,0,9.7c4.1,0,8.2,0,12.3,0C444.1,157.2,444.1,153.1,444.1,148.7z M448.9,238.2c0.2,0.5,0.4,1,0.6,1.4
				c1.3,2.5,2.8,4.9,4,7.5c0.5,0.9,1.1,0.9,1.9,0.9c0.8,0,1.4,0,1.9-0.9c1.3-2.5,2.7-5,4-7.5c0.2-0.4,0.4-0.8,0.6-1.4
				C457.5,238.2,453.3,238.2,448.9,238.2z"/>
			
				<radialGradient id="SVGID_00000039132490995908638300000008090456563648403617_" cx="498.8816" cy="201.3232" r="17.2692" gradientUnits="userSpaceOnUse">
				<stop  offset="0" style="stop-color:#00FFE3"/>
				<stop  offset="0.17" style="stop-color:#08F3E3"/>
				<stop  offset="0.46" style="stop-color:#1FD3E2"/>
				<stop  offset="0.86" style="stop-color:#43A0E0"/>
				<stop  offset="0.97" style="stop-color:#4E90E0"/>
			</radialGradient>
			<path style="fill:url(#SVGID_00000039132490995908638300000008090456563648403617_);" d="M498.9,199.2c7.3,0,14.6,0,21.9,0.1
				c0.8,0,1.8,0.5,2.2,1.2c0.3,0.4,0.3,1.7-0.1,2.1c-0.5,0.6-1.5,1-2.3,1c-4,0.1-8.1,0-12.1,0c-10.2,0-20.5,0-30.7,0
				c-0.6,0-1.2,0-1.7-0.2c-1.1-0.4-1.6-1.2-1.4-2.3c0.2-1.1,0.8-1.7,1.9-1.8c0.4,0,0.8,0,1.2,0C484.7,199.2,491.8,199.2,498.9,199.2
				z"/>
			
				<radialGradient id="SVGID_00000129904261339822595950000017165403169411404701_" cx="498.9326" cy="190.6425" r="17.302" gradientUnits="userSpaceOnUse">
				<stop  offset="0" style="stop-color:#00FFE3"/>
				<stop  offset="0.17" style="stop-color:#08F3E3"/>
				<stop  offset="0.46" style="stop-color:#1FD3E2"/>
				<stop  offset="0.86" style="stop-color:#43A0E0"/>
				<stop  offset="0.97" style="stop-color:#4E90E0"/>
			</radialGradient>
			<path style="fill:url(#SVGID_00000129904261339822595950000017165403169411404701_);" d="M498.9,188.5c7.1,0,14.1,0,21.2,0
				c0.4,0,0.9,0,1.3,0c1.2,0.2,1.8,0.9,1.9,2c0.1,1.1-0.6,1.9-1.7,2.2c-0.4,0.1-0.9,0.1-1.3,0.1c-14.3,0-28.5,0-42.8,0
				c-0.4,0-0.9,0-1.3-0.1c-1.1-0.3-1.7-1-1.7-2.2c0.1-1.2,0.7-1.8,1.9-2c0.4-0.1,0.9,0,1.3,0C484.8,188.5,491.9,188.5,498.9,188.5z"
				/>
			
				<radialGradient id="SVGID_00000123402132606880361890000004939804472060956033_" cx="504.7584" cy="179.9708" r="13.2354" gradientUnits="userSpaceOnUse">
				<stop  offset="0" style="stop-color:#00FFE3"/>
				<stop  offset="0.17" style="stop-color:#08F3E3"/>
				<stop  offset="0.46" style="stop-color:#1FD3E2"/>
				<stop  offset="0.86" style="stop-color:#43A0E0"/>
				<stop  offset="0.97" style="stop-color:#4E90E0"/>
			</radialGradient>
			<path style="fill:url(#SVGID_00000123402132606880361890000004939804472060956033_);" d="M504.6,177.8c5.4,0,10.8,0,16.1,0
				c2,0,3.2,1.6,2.3,3.1c-0.4,0.6-1.4,1.2-2.1,1.2c-10.8,0.1-21.6,0.1-32.4,0c-1.5,0-2.4-0.9-2.4-2.1c0-1.3,0.9-2.2,2.5-2.2
				C494,177.8,499.3,177.8,504.6,177.8z"/>
			
				<radialGradient id="SVGID_00000036955395939035738890000016765161959915119772_" cx="492.4977" cy="211.9793" r="12.7851" gradientUnits="userSpaceOnUse">
				<stop  offset="0" style="stop-color:#00FFE3"/>
				<stop  offset="0.17" style="stop-color:#08F3E3"/>
				<stop  offset="0.46" style="stop-color:#1FD3E2"/>
				<stop  offset="0.86" style="stop-color:#43A0E0"/>
				<stop  offset="0.97" style="stop-color:#4E90E0"/>
			</radialGradient>
			<path style="fill:url(#SVGID_00000036955395939035738890000016765161959915119772_);" d="M492.6,209.8c5,0,10.1,0,15.1,0
				c1.8,0,2.8,0.8,2.8,2.2c0,1.4-1,2.1-2.7,2.1c-10.2,0-20.4,0-30.5,0c-1.9,0-2.9-1-2.6-2.6c0.3-1.4,1.3-1.8,2.6-1.8
				C482.3,209.8,487.4,209.8,492.6,209.8z"/>
			
				<radialGradient id="SVGID_00000110438119227489063920000004641151259134244539_" cx="506.2226" cy="155.0857" r="2.0857" gradientUnits="userSpaceOnUse">
				<stop  offset="0" style="stop-color:#00FFE3"/>
				<stop  offset="0.17" style="stop-color:#08F3E3"/>
				<stop  offset="0.46" style="stop-color:#1FD3E2"/>
				<stop  offset="0.86" style="stop-color:#43A0E0"/>
				<stop  offset="0.97" style="stop-color:#4E90E0"/>
			</radialGradient>
			<path style="fill:url(#SVGID_00000110438119227489063920000004641151259134244539_);" d="M506.2,153c1.1,0,2.1,0.9,2.1,2.1
				c0,1.1-0.9,2-2,2.1c-1.2,0.1-2.2-0.8-2.2-2C504.1,154,505,153,506.2,153z"/>
			
				<radialGradient id="SVGID_00000058552358925966953300000001268004364112882860_" cx="496.8027" cy="155.0874" r="2.0688" gradientUnits="userSpaceOnUse">
				<stop  offset="0" style="stop-color:#00FFE3"/>
				<stop  offset="0.17" style="stop-color:#08F3E3"/>
				<stop  offset="0.46" style="stop-color:#1FD3E2"/>
				<stop  offset="0.86" style="stop-color:#43A0E0"/>
				<stop  offset="0.97" style="stop-color:#4E90E0"/>
			</radialGradient>
			<path style="fill:url(#SVGID_00000058552358925966953300000001268004364112882860_);" d="M496.9,153c1.1,0,2.1,1,2,2.2
				c-0.1,1.2-1,2-2.2,2c-1.1-0.1-1.9-1-1.9-2.1C494.8,153.9,495.7,153,496.9,153z"/>
			
				<radialGradient id="SVGID_00000022531163421337152470000006049306012858294931_" cx="515.6449" cy="155.0868" r="2.0692" gradientUnits="userSpaceOnUse">
				<stop  offset="0" style="stop-color:#00FFE3"/>
				<stop  offset="0.17" style="stop-color:#08F3E3"/>
				<stop  offset="0.46" style="stop-color:#1FD3E2"/>
				<stop  offset="0.86" style="stop-color:#43A0E0"/>
				<stop  offset="0.97" style="stop-color:#4E90E0"/>
			</radialGradient>
			<path style="fill:url(#SVGID_00000022531163421337152470000006049306012858294931_);" d="M517.7,155.1c0,1.2-0.9,2.1-2.1,2.1
				c-1.1,0-2-0.9-2.1-2c-0.1-1.1,0.9-2.1,2-2.2C516.7,153,517.7,153.9,517.7,155.1z"/>
		</g>
		<g>
			
				<linearGradient id="SVGID_00000118394135365137165940000004864255438248072357_" gradientUnits="userSpaceOnUse" x1="325.8036" y1="195.721" x2="614.1964" y2="195.721">
				<stop  offset="0" style="stop-color:#00FFE3"/>
				<stop  offset="0.17" style="stop-color:#08F3E3"/>
				<stop  offset="0.46" style="stop-color:#1FD3E2"/>
				<stop  offset="0.86" style="stop-color:#43A0E0"/>
				<stop  offset="0.97" style="stop-color:#4E90E0"/>
			</linearGradient>
			<path style="fill:url(#SVGID_00000118394135365137165940000004864255438248072357_);" d="M614.2,252.7c-0.2,0.7-0.5,1.4-0.7,2.1
				c-2.5,10.1-10.9,17.1-21.4,17.8c-1.4,0.1-2.8,0.1-4.2,0.1c-78.6,0-157.3,0-235.9,0c-6.8,0-13-1.3-18.2-6
				c-5-4.5-7.7-10.1-7.8-16.8c-0.2-6.2-0.1-12.4,0-18.6c0-2.9,1.6-4.7,4-4.8c2.5-0.1,4.3,1.8,4.3,4.8c0,5.8,0,11.6,0,17.5
				c0,8.6,5.7,14.7,14.3,15.4c1.2,0.1,2.4,0.1,3.7,0.1c78.5,0,157.1,0,235.6,0c2.1,0,4.3,0,6.4-0.5c6.3-1.3,11.2-7.2,11.5-13.6
				c0.1-1.1,0-2.3,0-3.4c0-40.4,0-80.7,0-121.1c0-0.8,0-1.7,0-2.5c0.1-2.3,1.1-3.7,3-4.3c2-0.6,3.5,0.2,4.7,1.7
				c0.2,0.3,0.5,0.5,0.7,0.8C614.2,165.2,614.2,208.9,614.2,252.7z"/>
			
				<linearGradient id="SVGID_00000086689199895293907060000012574159561739312776_" gradientUnits="userSpaceOnUse" x1="325.8376" y1="130.6241" x2="731.8748" y2="130.6241">
				<stop  offset="0" style="stop-color:#00FFE3"/>
				<stop  offset="0.17" style="stop-color:#08F3E3"/>
				<stop  offset="0.46" style="stop-color:#1FD3E2"/>
				<stop  offset="0.86" style="stop-color:#43A0E0"/>
				<stop  offset="0.97" style="stop-color:#4E90E0"/>
			</linearGradient>
			<path style="fill:url(#SVGID_00000086689199895293907060000012574159561739312776_);" d="M613.8,63.9
				c-3.2-12.7-11.5-19.2-24.5-19.2c-39,0-78.1,0-117.1,0c-0.8,0-1.5,0-2.3,0c-2.4,0.2-3.9,1.7-4,3.9c-0.1,2.4,1.3,4,3.9,4.3
				c1.1,0.1,2.2,0.1,3.4,0.1c38.4,0,76.8,0,115.2,0c1.4,0,2.8,0,4.2,0.2c7.3,0.8,13,6.9,13.2,14.2c0.1,6.8,0,13.5,0.1,20.3
				c0,1.5-0.4,2.1-2,2.1c-13.8,0-63.5-0.1-77.3,0c-62.8,0-125.6,0-188.4,0c-0.6,0-1.1-0.1-1.7,0c-1.8,0.2-2.2-0.6-2.2-2.3
				c0.1-6.7,0-13.3,0.1-20c0.1-6.2,4.1-11.7,10-13.6c2.2-0.7,4.6-0.9,6.9-0.9c32.6-0.1,65.1,0,97.7,0c1.2,0,2.5,0,3.6-0.2
				c2.1-0.4,3.4-2.1,3.3-4.2c-0.1-2-1.4-3.5-3.5-3.8c-0.7-0.1-1.5-0.1-2.2-0.1c-33.4,0-66.8,0-100.2,0c-1.9,0-3.8,0.1-5.6,0.5
				c-11.2,2.4-18.5,11.8-18.5,23.7c0,47.3,0,94.6,0,141.9c0,0.7,0,1.3,0,2c0.3,2.2,2,3.8,4.1,3.8c2.1,0,3.9-1.6,4.1-3.9
				c0.1-0.9,0.1-1.9,0.1-2.8c0-36,0-71.9,0-107.9c0-4,0-4,4-4c62.6,0,125.2,0,187.8,0c9.2,0,55.3,0,64.5,0c3.8,0,7.7,0,11.5,0
				c4.3,0,3.6-0.3,3.7,3.5c0,1.1-0.1,2.3,0,3.4c0.2,1.8,1.1,3.1,2.9,3.7c1.7,0.6,3.1,0,4.3-1.2c0.4-0.4,0.7-0.8,1.1-1.2V64.6
				C614,64.3,613.8,64.1,613.8,63.9z"/>
			<g>
				
					<linearGradient id="SVGID_00000121272809408150626410000016118036438390085294_" gradientUnits="userSpaceOnUse" x1="348.7248" y1="71.1033" x2="374.9945" y2="71.1033">
					<stop  offset="0" style="stop-color:#00FFE3"/>
					<stop  offset="0.17" style="stop-color:#08F3E3"/>
					<stop  offset="0.46" style="stop-color:#1FD3E2"/>
					<stop  offset="0.86" style="stop-color:#43A0E0"/>
					<stop  offset="0.97" style="stop-color:#4E90E0"/>
				</linearGradient>
				<path style="fill:url(#SVGID_00000121272809408150626410000016118036438390085294_);" d="M361.7,57.9c-7.2,0.1-12.9,6-13,13.2
					c0,7.4,5.8,13.2,13.2,13.2c7.3,0,13.2-5.9,13.1-13.3C374.9,63.7,368.9,57.8,361.7,57.9z M361.8,75.9c-2.7,0-4.8-2.2-4.7-4.9
					c0.1-2.5,2.1-4.7,4.7-4.7c2.6-0.1,4.9,2.1,4.9,4.8C366.7,73.8,364.5,75.9,361.8,75.9z"/>
				
					<linearGradient id="SVGID_00000093161404143639700740000015340318197313443760_" gradientUnits="userSpaceOnUse" x1="380.8298" y1="71.1034" x2="407.1002" y2="71.1034">
					<stop  offset="0" style="stop-color:#00FFE3"/>
					<stop  offset="0.17" style="stop-color:#08F3E3"/>
					<stop  offset="0.46" style="stop-color:#1FD3E2"/>
					<stop  offset="0.86" style="stop-color:#43A0E0"/>
					<stop  offset="0.97" style="stop-color:#4E90E0"/>
				</linearGradient>
				<path style="fill:url(#SVGID_00000093161404143639700740000015340318197313443760_);" d="M393.8,57.9c-7.2,0.1-12.9,6-13,13.2
					c0,7.4,5.8,13.2,13.2,13.2c7.3,0,13.2-5.9,13.1-13.2C407.1,63.7,401.1,57.8,393.8,57.9z M394,75.9c-2.6,0-4.7-2-4.8-4.5
					c-0.1-2.7,2-4.9,4.6-5c2.6-0.1,4.9,2.1,4.9,4.7C398.8,73.8,396.7,75.9,394,75.9z"/>
				
					<linearGradient id="SVGID_00000121994102746414382040000000933729901424644484_" gradientUnits="userSpaceOnUse" x1="412.9377" y1="71.1043" x2="439.2011" y2="71.1043">
					<stop  offset="0" style="stop-color:#00FFE3"/>
					<stop  offset="0.17" style="stop-color:#08F3E3"/>
					<stop  offset="0.46" style="stop-color:#1FD3E2"/>
					<stop  offset="0.86" style="stop-color:#43A0E0"/>
					<stop  offset="0.97" style="stop-color:#4E90E0"/>
				</linearGradient>
				<path style="fill:url(#SVGID_00000121994102746414382040000000933729901424644484_);" d="M426.1,57.9c-7.2,0-13,5.8-13.1,13
					c-0.1,7.4,5.7,13.3,13,13.4c7.4,0.1,13.2-5.7,13.3-13.1C439.2,63.9,433.4,57.9,426.1,57.9z M426.1,75.9c-2.7,0-4.8-2.1-4.8-4.8
					c0-2.5,2.1-4.7,4.6-4.7c2.6-0.1,4.9,2.1,4.9,4.8C430.9,73.8,428.8,75.9,426.1,75.9z"/>
			</g>
		</g>
	</g>
</g>
<g id="Camada_2">
</g>
<g id="Camada_3">
</g>
<g id="Camada_4">
</g>
<g id="Camada_5">
</g>
<g id="Camada_6">
</g>
<g id="Camada_7">
</g>
<g id="Camada_8">
</g>
<g id="Camada_9">
</g>
<g id="Camada_10">
</g>
</svg>
