<svg id="Camada_1" data-name="Camada 1" xmlns="http://www.w3.org/2000/svg" xmlns:xlink="http://www.w3.org/1999/xlink" viewBox="0 0 300 300"><defs><style>.cls-1{fill:url(#_256);}.cls-2{fill:url(#Gradiente_sem_nome_253);}.cls-3{fill:url(#_256-2);}.cls-4{fill:url(#_256-3);}.cls-5{fill:url(#Gradiente_sem_nome_253-2);}</style><linearGradient id="_256" x1="26.23" y1="153.48" x2="255.82" y2="153.48" gradientUnits="userSpaceOnUse"><stop offset="0" stop-color="#00ffe3"/><stop offset="0.17" stop-color="#08f3e3"/><stop offset="0.46" stop-color="#1fd3e2"/><stop offset="0.86" stop-color="#43a0e0"/><stop offset="0.97" stop-color="#4e90e0"/></linearGradient><linearGradient id="Gradiente_sem_nome_253" x1="67.03" y1="119.88" x2="215" y2="119.88" gradientUnits="userSpaceOnUse"><stop offset="0" stop-color="#00ffe3"/><stop offset="0.12" stop-color="#08f3e3"/><stop offset="0.33" stop-color="#1fd3e2"/><stop offset="0.6" stop-color="#43a0e0"/><stop offset="0.68" stop-color="#4e90e0"/><stop offset="0.78" stop-color="#508de0"/><stop offset="0.83" stop-color="#5685e0"/><stop offset="0.88" stop-color="#6077df"/><stop offset="0.92" stop-color="#6e62de"/><stop offset="0.96" stop-color="#8148dd"/><stop offset="0.99" stop-color="#9728dc"/><stop offset="1" stop-color="#9c21dc"/></linearGradient><linearGradient id="_256-2" x1="67.03" y1="122.27" x2="215" y2="122.27" xlink:href="#_256"/><linearGradient id="_256-3" x1="101.3" y1="121.91" x2="192.02" y2="121.91" xlink:href="#_256"/><linearGradient id="Gradiente_sem_nome_253-2" x1="135.34" y1="51.69" x2="146.66" y2="51.69" xlink:href="#Gradiente_sem_nome_253"/></defs><path class="cls-1" d="M77.4,298.84a10,10,0,0,1-4.19-6.36c-2.48-9.78-5.2-19.51-7.92-29.6-3.56.93-7,1.81-10.42,2.72-6.57,1.76-13.15,3.49-19.7,5.32-2.9.81-5.65,1.13-7.74-1.57s-1.13-5.23.4-7.87c11.47-19.78,22.85-39.63,34.36-59.39,1.1-1.89,1.08-2.92-.57-4.47a31.92,31.92,0,0,1-9.73-19.08,22.11,22.11,0,0,0-7.76-13.76c-12.65-10.95-16-23.53-10.49-39.18a22.71,22.71,0,0,0,0-15.55c-5.48-15.56-2-28.38,10.63-39.15a22,22,0,0,0,7.65-13.51C54.51,41.93,64.66,31.7,79.94,29.07a23.2,23.2,0,0,0,14.39-8.32c9.85-11.84,23.55-15.56,38-10.29a23.69,23.69,0,0,0,16.87,0c14.41-5.25,28-1.67,37.86,10a24.31,24.31,0,0,0,15.39,8.7,32.61,32.61,0,0,1,27.05,27,24.32,24.32,0,0,0,8.69,15.41c11.68,9.83,15.28,23.44,10,37.84a23.74,23.74,0,0,0,0,16.87c5.31,14.58,1.51,28.26-10.47,38.23-4.08,3.4-6.94,7.53-7.77,12.8-1.35,8.63-4.88,16-11.68,21.94.53,1,1,1.87,1.52,2.75q16.86,29.23,33.73,58.45c.43.74.86,1.47,1.28,2.21,1.28,2.28,1.36,4.55-.29,6.63a5.6,5.6,0,0,1-6.36,1.91c-9.76-2.65-19.53-5.24-29.29-7.84-.63-.17-1.28-.28-2.21-.48-1.77,6.52-3.51,13-5.25,19.41-.92,3.38-2,6.72-2.68,10.14a9.46,9.46,0,0,1-4.18,6.36H201.2c-1.47-1.53-3.33-2.83-4.37-4.61-12.46-21.4-24.8-42.88-37.23-64.3a5.84,5.84,0,0,0-2.69-2.52c-2.83-1-5.84-1.51-8.69-2.46a22.54,22.54,0,0,0-15,.07,34.31,34.31,0,0,1-6.78,2c-2.18.29-3.21,1.41-4.21,3.15q-18.45,32.09-37,64.08c-1,1.78-2.9,3.08-4.38,4.61ZM121.8,19.4c-8.12.23-13.87,2.6-18.08,7.85A35.5,35.5,0,0,1,81,40.45C71.44,42,64.77,48.94,63.22,58.59A34,34,0,0,1,51,80c-8.31,6.94-10.67,15.57-7,25.66a34.09,34.09,0,0,1,0,24.38c-3.68,10-1.4,18.69,6.74,25.49a34.51,34.51,0,0,1,12.44,21.89,21.25,21.25,0,0,0,18,18,34.62,34.62,0,0,1,21.91,12.43c6.86,8.17,15.48,10.42,25.49,6.75a34,34,0,0,1,24.38,0c10,3.71,18.79,1.32,25.68-7a33.89,33.89,0,0,1,21.15-12.14c10.12-1.69,16.72-8,18.48-18.09a35.35,35.35,0,0,1,12.72-22.07c7.77-6.38,10.18-15.31,6.66-24.75a35.27,35.27,0,0,1,0-25.46c3.47-9.37,1.19-18.22-6.46-24.55a35.76,35.76,0,0,1-12.92-22.27c-1.73-9.89-8.08-16.18-17.94-17.94-8.5-1.51-15.71-5.14-21.32-11.85-7.43-8.9-15.66-11.14-26.59-7.2a33.31,33.31,0,0,1-23.3,0A72.17,72.17,0,0,0,121.8,19.4Zm48.87,206.94,30.06,52c.5-1.77.79-2.75,1.05-3.74,1.72-6.38,3.41-12.77,5.14-19.16,1.21-4.45,3.78-5.95,8.29-4.81,2.47.62,4.92,1.35,7.38,2,5.06,1.34,10.13,2.66,15.74,4.13l-29.75-51.49c-2.93.6-5.42,1.14-7.92,1.63-4.69.94-8.91,2.91-11.93,6.61C184,219.38,178.37,224,170.67,226.34ZM81.26,278.4l30-52c-7.74-2.33-13.47-6.89-18.29-12.84a19.37,19.37,0,0,0-11.34-6.54c-2.66-.59-5.34-1.09-8.28-1.69L43.64,256.86l22.5-6.05c5.36-1.43,7.63-.09,9.11,5.36C77.18,263.33,79.12,270.48,81.26,278.4Z"/><path class="cls-2" d="M67,119.61c.2,2.73.34,5.47.63,8.2,4.45,43.35,46.73,74,89.23,64,28.05-6.57,47-24.09,54.93-51.83,8-28,.74-52.71-19.69-73.42a68.15,68.15,0,0,0-23.4-15.2c-3.39-1.36-6.57-.12-7.82,2.9s.08,6,3.49,7.6c.51.24,1,.43,1.56.66A62.44,62.44,0,0,1,130.7,181.37c-26.16-4.19-46.46-24.56-51.39-51.57-4.55-25,8.11-51.54,30.66-64.22,2.54-1.43,5.26-2.55,7.89-3.84,3.22-1.58,4.48-4.49,3.24-7.47s-4.3-4.16-7.56-3c-.62.23-1.23.48-1.84.74A74.28,74.28,0,0,0,67,119.61Zm74.09-73.55a5.57,5.57,0,0,0-5.77,5.4,5.66,5.66,0,1,0,11.31.24A5.58,5.58,0,0,0,141.12,46.06Z"/><path class="cls-3" d="M67,119.61A74.28,74.28,0,0,1,111.7,52c.61-.26,1.22-.51,1.84-.74,3.26-1.16,6.34.07,7.56,3s0,5.89-3.24,7.47c-2.63,1.29-5.35,2.41-7.89,3.84C87.42,78.26,74.76,104.85,79.31,129.8c4.93,27,25.23,47.38,51.39,51.57A62.44,62.44,0,0,0,166,62.53c-.52-.23-1.05-.42-1.56-.66-3.41-1.57-4.77-4.54-3.49-7.6s4.43-4.26,7.82-2.9a68.15,68.15,0,0,1,23.4,15.2C212.56,87.28,219.81,112,211.82,140c-7.92,27.74-26.88,45.26-54.93,51.83-42.5,10-84.78-20.66-89.23-64C67.37,125.08,67.23,122.34,67,119.61Z"/><path class="cls-4" d="M140.08,110.57l23-23c4.34-4.34,6.83-4.32,11.21.07,5.09,5.09,10.19,10.16,15.25,15.27,3.29,3.32,3.3,6.27,0,9.57Q167.3,134.75,145,157c-3.35,3.34-6.26,3.38-9.56.09q-15.9-15.83-31.73-31.72c-3.19-3.2-3.2-6.16,0-9.35q8.19-8.28,16.46-16.46c3-3,6.11-3,9.18,0C132.86,103.11,136.32,106.74,140.08,110.57Zm28.39-12.44c-7.72,7.75-15.33,15.4-22.95,23-4,4-6.72,4-10.79-.09-3.3-3.32-6.56-6.69-9.68-9.88l-9.38,9.4L140.05,145l37.58-37.59Z"/><path class="cls-5" d="M141.12,46.06a5.58,5.58,0,0,1,5.54,5.64,5.66,5.66,0,1,1-11.31-.24A5.57,5.57,0,0,1,141.12,46.06Z"/></svg>