<svg id="Camada_1" data-name="Camada 1" xmlns="http://www.w3.org/2000/svg" xmlns:xlink="http://www.w3.org/1999/xlink" viewBox="0 0 300 300"><defs><style>.cls-1{fill:url(#Gradiente_sem_nome);}.cls-2{fill:url(#Gradiente_sem_nome-2);}.cls-3{fill:url(#Gradiente_sem_nome-3);}.cls-4{fill:url(#Gradiente_sem_nome-4);}.cls-5{fill:url(#Gradiente_sem_nome-5);}.cls-6{fill:url(#Gradiente_sem_nome-6);}.cls-7{fill:url(#Gradiente_sem_nome-7);}.cls-8{fill:url(#Gradiente_sem_nome-8);}</style><linearGradient id="Gradiente_sem_nome" x1="158.71" y1="9.54" x2="158.71" y2="289.99" gradientUnits="userSpaceOnUse"><stop offset="0" stop-color="#00ffe3"/><stop offset="0.17" stop-color="#08f3e3"/><stop offset="0.46" stop-color="#1fd3e2"/><stop offset="0.86" stop-color="#43a0e0"/><stop offset="0.97" stop-color="#4e90e0"/></linearGradient><linearGradient id="Gradiente_sem_nome-2" x1="134.28" y1="177.54" x2="134.28" y2="214.33" xlink:href="#Gradiente_sem_nome"/><linearGradient id="Gradiente_sem_nome-3" x1="183.18" y1="177.54" x2="183.18" y2="214.32" xlink:href="#Gradiente_sem_nome"/><linearGradient id="Gradiente_sem_nome-4" x1="252.59" y1="132.77" x2="252.59" y2="169.57" xlink:href="#Gradiente_sem_nome"/><linearGradient id="Gradiente_sem_nome-5" x1="252.58" y1="177.73" x2="252.58" y2="214.52" xlink:href="#Gradiente_sem_nome"/><linearGradient id="Gradiente_sem_nome-6" x1="158.73" y1="34.76" x2="158.73" y2="136.25" xlink:href="#Gradiente_sem_nome"/><linearGradient id="Gradiente_sem_nome-7" x1="64.87" y1="132.76" x2="64.87" y2="169.57" xlink:href="#Gradiente_sem_nome"/><linearGradient id="Gradiente_sem_nome-8" x1="64.87" y1="177.72" x2="64.87" y2="214.52" xlink:href="#Gradiente_sem_nome"/></defs><path class="cls-1" d="M21.24,290c-1.86-1.35-3.4-2.91-2.47-5.46s3-2.84,5.38-2.78c2.54.08,5.1,0,7.87,0V124.58c-1.75,0-3.54,0-5.33,0-4.8-.12-8-3.31-8.17-8.11-.08-2.82-.08-5.66,0-8.48a7.86,7.86,0,0,1,8-8c5.75-.11,11.5-.08,17.25,0,2.75,0,4.43,1.78,4.36,4.22s-1.73,3.91-4.35,3.94c-5.55.06-11.11,0-16.86,0v8.07H83.57l-2.35-8.07c-5.2,0-10.46,0-15.73,0-4.38,0-6.44-1.35-6.36-4.19s2.06-4,6.28-4H79.55c-2.7-27.73,5.5-51.35,26.15-70C122,15.17,141.39,8.48,163.26,9.67c44,2.39,80.22,41.31,74.62,90.26h3c15.88,0,31.77.11,47.65-.07,4.92-.06,8.49,1.42,10.46,6.07v12.6c-2.42,6.58-8.09,6.29-13.56,6V281.77c2.72,0,5.27.13,7.8,0a5.7,5.7,0,0,1,5.76,2.78V290Zm255.53-8.29V124.58H233.29c-3.28,0-4.87,1.48-5.11,4.79-.06.82,0,1.64,0,2.46V224.4c0,4.55-1.18,6.44-4,6.5s-4.16-1.82-4.16-6.57V140.45c-16.79,18.64-36.88,28.47-61.28,28.45s-44.54-9.92-61-28.21V281.6h30.9v-3.14q0-23.28,0-46.56c0-6,3.09-9.16,9.09-9.17q21-.07,41.91,0c6.17,0,9.24,3.15,9.24,9.3q0,23.28,0,46.56v3H220v-3.08q0-15.19,0-30.4a20.7,20.7,0,0,1,.09-2.73c.3-2.12,1.76-3.54,3.68-3.31,1.44.16,2.94,1.43,4,2.6.59.65.43,2.08.44,3.16q0,14.79,0,29.58v4.13h8.22v-3.16c0-10.5,0-21,0-31.49,0-5.53,2.27-7.75,7.86-7.77s11.14,0,16.7,0,7.83,2.4,7.83,7.87q0,15.89,0,31.77v2.91ZM230.25,89.29a71.52,71.52,0,1,0-71.7,71.45A71.65,71.65,0,0,0,230.25,89.29ZM89.3,281.69v-2.95q0-73.94,0-147.86a13.65,13.65,0,0,0,0-1.92c-.39-3-2-4.38-5-4.38H40.61v157h8.07v-3.16q0-15.75,0-31.49c0-5.32,2.38-7.74,7.64-7.78q8.49,0,17,0c5.54,0,7.77,2.26,7.78,7.85q0,15.87,0,31.76v2.93Zm91.14,0V231.07H137v50.58ZM72.71,247.52H57.11v34.12h15.6Zm172.09,0v34h15.55v-34ZM233.86,116.18h56.66v-7.89h-54.3C235.43,110.94,234.67,113.45,233.86,116.18Z"/><path class="cls-2" d="M134.49,177.56c4.47,0,8.94-.05,13.41,0,4.14.06,6.59,2.27,6.66,6.38q.19,11.89,0,23.82c-.07,4-2.56,6.44-6.62,6.48q-13.68.13-27.38,0c-4,0-6.5-2.55-6.56-6.58q-.19-11.77,0-23.55c.07-4.19,2.58-6.5,6.8-6.56C125.36,177.51,129.92,177.56,134.49,177.56Zm11.72,28.36V186H122.4v19.95Z"/><path class="cls-3" d="M183.34,177.56c4.38,0,8.76,0,13.14,0s6.92,2.33,7,6.66q.18,11.63,0,23.27c-.06,4.31-2.61,6.74-6.95,6.77q-13.41.1-26.83,0c-4.23,0-6.74-2.41-6.8-6.59q-.18-11.77,0-23.55c.06-4.27,2.47-6.5,6.76-6.56C174.21,177.51,178.77,177.56,183.34,177.56ZM195.15,186h-23.9v19.88h23.9Z"/><path class="cls-4" d="M236.38,151.17c0-3.83,0-7.66,0-11.5.07-4.35,2.48-6.81,6.78-6.86q9.32-.09,18.62,0c4.31,0,6.92,2.51,7,6.75q.12,11.64,0,23.28c-.05,4.15-2.58,6.63-6.7,6.68q-9.45.1-18.9,0c-4.38-.05-6.69-2.41-6.76-6.85C236.33,158.84,236.38,155,236.38,151.17Zm24.05-10H244.77v20h15.66Z"/><path class="cls-5" d="M236.38,196c0-3.74,0-7.49,0-11.23.06-4.54,2.42-7,6.9-7q9.32-.09,18.62,0c4.26.05,6.81,2.59,6.85,6.88q.11,11.51,0,23c0,4.34-2.53,6.78-6.83,6.82-6.3.05-12.6.06-18.9,0-4.25,0-6.55-2.37-6.63-6.67C236.33,203.88,236.38,200,236.38,196Zm8.35,10h15.68v-19.9H244.73Z"/><path class="cls-6" d="M131.58,54.31c0-3.06,0-5.69,0-8.33.11-7.1,4.23-11.2,11.3-11.21q15.88,0,31.76,0c6.91,0,11.09,4.11,11.23,11,.06,2.72,0,5.44,0,8.53,5.37,0,10.46,0,15.54,0a19.75,19.75,0,0,1,4.62.34A9.82,9.82,0,0,1,213.51,64c.1,8.49.07,17,0,25.47a9,9,0,0,1-4.68,8.16c-1.83,1-2.22,2.23-2.2,4.14.1,7.58.06,15.15,0,22.73q0,11.73-11.84,11.72H122.54c-7.84,0-11.74-3.93-11.76-11.81s0-15.51,0-23.27A3.11,3.11,0,0,0,109,97.91a9.49,9.49,0,0,1-5.1-8.77c0-8.21-.07-16.43,0-24.64.06-5.91,4.29-10.08,10.27-10.17C119.83,54.24,125.47,54.31,131.58,54.31Zm47.35,36.85c8.12,0,16.13,0,24.14,0,1.76,0,2.28-1.15,2.28-2.74,0-7.66,0-15.32,0-23,0-2.13-.92-2.9-3-2.9q-43.63,0-87.29,0c-2.27,0-3,1-3,3.15.08,7.48.07,15,0,22.44,0,2.21.84,3.13,3.08,3.1,5.38-.08,10.76,0,16.14,0h7.19c1.13-7.19,2.74-8.54,9.81-8.54h21.07C176.18,82.62,177.9,84.1,178.93,91.16ZM119.28,99.5a7,7,0,0,0-.26,1.35c0,8.11,0,16.23,0,24.35,0,2.36,1.31,2.85,3.35,2.85q36.39,0,72.78,0c2.51,0,3.41-1,3.37-3.42-.09-5.74,0-11.49,0-17.23V99.5H178.9c-.1.72-.2,1.34-.27,2-.48,4-2.83,6.45-6.78,6.52q-13.12.19-26.26,0c-4-.06-6.29-2.54-6.76-6.51-.08-.62-.18-1.23-.28-2Zm58.35-45.28a87.87,87.87,0,0,0-.11-8.95,3.39,3.39,0,0,0-2.42-2.19q-16.4-.21-32.79,0c-.81,0-2.25,1.06-2.3,1.71-.24,3.11-.11,6.26-.11,9.45ZM147.17,99.64h23.12V91H147.17Z"/><path class="cls-7" d="M81.08,151.11c0,3.92.06,7.85,0,11.77-.09,4.24-2.46,6.6-6.69,6.64q-9.45.1-18.9,0c-4.15,0-6.72-2.5-6.76-6.62q-.14-11.78,0-23.55c0-3.95,2.66-6.48,6.6-6.53q9.59-.12,19.17,0c4,.05,6.4,2.51,6.58,6.51,0,.19,0,.37,0,.55Zm-24-10v20H72.72v-20Z"/><path class="cls-8" d="M81.08,196.32c0,3.83,0,7.67,0,11.5-.08,4.29-2.4,6.61-6.65,6.65-6.3.07-12.6.06-18.9,0-4.2,0-6.75-2.42-6.8-6.56q-.14-11.78,0-23.55a6.26,6.26,0,0,1,6.57-6.58q9.59-.14,19.17,0c4.14.06,6.48,2.55,6.62,6.75,0,.18,0,.37,0,.55ZM57,206.1H72.64V186.21H57Z"/></svg>