<svg xmlns="http://www.w3.org/2000/svg" xmlns:xlink="http://www.w3.org/1999/xlink" viewBox="0 0 300 300"><defs><style>.cls-1{fill:url(#Gradiente_sem_nome);}.cls-2{fill:url(#Gradiente_sem_nome-2);}.cls-3{fill:url(#Gradiente_sem_nome-3);}.cls-4{fill:url(#Gradiente_sem_nome-4);}.cls-5{fill:url(#Gradiente_sem_nome-5);}.cls-6{fill:url(#Gradiente_sem_nome-6);}.cls-7{fill:url(#Gradiente_sem_nome-7);}.cls-8{fill:url(#Gradiente_sem_nome-8);}.cls-9{fill:url(#Gradiente_sem_nome-9);}.cls-10{fill:url(#Gradiente_sem_nome-10);}.cls-11{fill:url(#Gradiente_sem_nome-11);}</style><linearGradient id="Gradiente_sem_nome" x1="6.08" y1="196.11" x2="293.92" y2="196.11" gradientUnits="userSpaceOnUse"><stop offset="0" stop-color="#00ffe3"/><stop offset="0.17" stop-color="#08f3e3"/><stop offset="0.46" stop-color="#1fd3e2"/><stop offset="0.86" stop-color="#43a0e0"/><stop offset="0.97" stop-color="#4e90e0"/></linearGradient><linearGradient id="Gradiente_sem_nome-2" x1="6.12" y1="131.14" x2="411.37" y2="131.14" xlink:href="#Gradiente_sem_nome"/><linearGradient id="Gradiente_sem_nome-3" x1="28.96" y1="71.74" x2="55.18" y2="71.74" xlink:href="#Gradiente_sem_nome"/><linearGradient id="Gradiente_sem_nome-4" x1="61" y1="71.74" x2="87.22" y2="71.74" xlink:href="#Gradiente_sem_nome"/><linearGradient id="Gradiente_sem_nome-5" x1="93.05" y1="71.74" x2="119.26" y2="71.74" xlink:href="#Gradiente_sem_nome"/><linearGradient id="Gradiente_sem_nome-6" x1="75.14" y1="181.24" x2="198.24" y2="181.24" xlink:href="#Gradiente_sem_nome"/><linearGradient id="Gradiente_sem_nome-7" x1="102.92" y1="181.25" x2="197.1" y2="181.25" xlink:href="#Gradiente_sem_nome"/><linearGradient id="Gradiente_sem_nome-8" x1="172.22" y1="186.33" x2="224.86" y2="186.33" xlink:href="#Gradiente_sem_nome"/><linearGradient id="Gradiente_sem_nome-9" x1="121.12" y1="166.2" x2="144.25" y2="166.2" xlink:href="#Gradiente_sem_nome"/><linearGradient id="Gradiente_sem_nome-10" x1="148.73" y1="166.17" x2="166.64" y2="166.17" xlink:href="#Gradiente_sem_nome"/><linearGradient id="Gradiente_sem_nome-11" x1="170.89" y1="165.84" x2="175.42" y2="165.84" xlink:href="#Gradiente_sem_nome"/></defs><g id="Camada_4" data-name="Camada 4"><path class="cls-1" d="M293.92,253c-.23.69-.51,1.36-.69,2.07a23.21,23.21,0,0,1-21.36,17.72c-1.4.09-2.8.12-4.21.12q-117.72,0-235.46,0c-6.79,0-13-1.26-18.2-5.94a22.68,22.68,0,0,1-7.83-16.82c-.15-6.17-.07-12.36,0-18.54,0-2.9,1.61-4.71,4-4.79s4.27,1.79,4.29,4.81c0,5.81,0,11.62,0,17.42,0,8.61,5.67,14.68,14.26,15.42,1.21.11,2.43.11,3.65.11q117.59,0,235.18,0a32.07,32.07,0,0,0,6.43-.48,14.86,14.86,0,0,0,11.47-13.61c.05-1.13,0-2.25,0-3.38V126.29c0-.84,0-1.69,0-2.53.12-2.27,1.11-3.68,3-4.26a4.07,4.07,0,0,1,4.67,1.69c.22.28.48.54.72.8Z"/><path class="cls-2" d="M293.48,64.52C290.32,51.89,282,45.36,269.06,45.36H152.14c-.75,0-1.5,0-2.25,0-2.43.21-3.88,1.66-4,3.9s1.34,4,3.89,4.26a29.05,29.05,0,0,0,3.37.1h115a37,37,0,0,1,4.21.16A14.68,14.68,0,0,1,285.47,68c.15,6.74,0,13.49.08,20.23,0,1.54-.41,2.15-2,2.14-13.75,0-63.42-.06-77.17,0h-188a13.44,13.44,0,0,0-1.68,0c-1.79.22-2.19-.62-2.17-2.28.08-6.65,0-13.31.06-20a14.45,14.45,0,0,1,10-13.54,23.2,23.2,0,0,1,6.91-.87q48.76-.07,97.53,0a20.89,20.89,0,0,0,3.63-.2,4,4,0,0,0-.15-8,14,14,0,0,0-2.24-.1q-50,0-100.06,0a27.38,27.38,0,0,0-5.58.48C13.43,48.27,6.14,57.61,6.13,69.49q0,70.82,0,141.65a16.15,16.15,0,0,0,0,2,4.23,4.23,0,0,0,4.14,3.83,4.21,4.21,0,0,0,4.13-3.85,23.75,23.75,0,0,0,.05-2.8V102.64c0-4,0-4,4-4h251.8c3.84,0,7.68,0,11.52,0,4.32,0,3.6-.25,3.67,3.54,0,1.12-.06,2.25,0,3.37a4,4,0,0,0,2.95,3.71,4,4,0,0,0,4.31-1.23c.39-.38.73-.8,1.1-1.21V65.21A2.59,2.59,0,0,1,293.48,64.52Z"/><path class="cls-3" d="M41.9,58.58A13.17,13.17,0,0,0,29,71.73,13.11,13.11,0,1,0,41.9,58.58ZM42,76.52a4.72,4.72,0,0,1-4.73-4.86,4.77,4.77,0,0,1,9.54.07A4.71,4.71,0,0,1,42,76.52Z"/><path class="cls-4" d="M74,58.58a13.16,13.16,0,1,0,13.27,13.1A13.17,13.17,0,0,0,74,58.58Zm.17,17.94A4.7,4.7,0,0,1,69.35,72a4.77,4.77,0,1,1,9.53-.29A4.71,4.71,0,0,1,74.12,76.52Z"/><path class="cls-5" d="M106.16,58.58a13.16,13.16,0,1,0,13.1,13.26A13.16,13.16,0,0,0,106.16,58.58Zm0,17.94a4.72,4.72,0,0,1-4.77-4.83,4.78,4.78,0,0,1,9.55,0A4.72,4.72,0,0,1,106.15,76.52Z"/><path class="cls-6" d="M75.14,170.11a31.35,31.35,0,0,1,2.76-3.83A5.66,5.66,0,0,1,82.12,165h9.2c.65,0,1.15,0,1.45-.84,1.52-4,3.12-8,4.81-12.37-1.72-1.71-3.72-3.69-5.71-5.68-.59-.58-1.19-1.15-1.75-1.76a6.51,6.51,0,0,1,0-9.13q6.81-7,13.83-13.84c2.69-2.61,6.55-2.45,9.34.2,1.27,1.2,2.49,2.46,3.72,3.71s2.45,2.5,3.72,3.79c1.65-.8,3.18-1.63,4.78-2.29,2.29-1,4.61-1.83,7-2.61a1.52,1.52,0,0,0,1.26-1.75c-.06-2.62.08-5.26,0-7.88-.18-4,1.35-6.77,5.17-8.16h22.22a28.08,28.08,0,0,1,3.82,2.78c1.19,1.17,1.33,2.87,1.33,4.51,0,3,0,5.94,0,8.91a1.68,1.68,0,0,0,.7,1.33c4,1.66,8.11,3.23,12.45,4.93,2.22-2.23,4.66-4.74,7.16-7.19,2.11-2.06,4.65-2.83,7.35-1.53a14.46,14.46,0,0,1,3.8,3.08,1.91,1.91,0,0,1-.2,2.77,2.17,2.17,0,0,1-2.92.25,18.63,18.63,0,0,1-1.39-1.29c-1.24-1.16-2.34-1.19-3.57,0-2.5,2.46-5,5-7.45,7.43-1.86,1.86-2.87,2-5.16.72A55.54,55.54,0,0,0,164.65,128c-2.2-.6-3-1.6-3-3.89,0-3.41,0-6.82,0-10.23,0-2.39-.67-3.07-3-3.08H141.15c-2.17,0-2.88.71-2.88,2.89,0,3.46,0,6.92,0,10.38,0,2.3-.76,3.32-2.94,3.91a56.32,56.32,0,0,0-12.64,5.24c-2,1.11-3.1.95-4.7-.63-2.46-2.44-4.89-4.9-7.35-7.34-1.61-1.6-2.63-1.62-4.2,0q-6.25,6.24-12.5,12.51c-1.51,1.51-1.5,2.55,0,4.09,2.44,2.46,4.9,4.89,7.33,7.34,1.66,1.67,1.82,2.79.67,4.83a55,55,0,0,0-5.22,12.65c-.58,2.1-1.61,2.87-3.81,2.88-3.51,0-7,0-10.52,0-2.1,0-2.83.72-2.84,2.79q0,8.91,0,17.83c0,2.07.74,2.78,2.83,2.79H92.78c2.39,0,3.37.74,4,3a54.87,54.87,0,0,0,5.11,12.38c1.23,2.21,1.08,3.27-.7,5.06-2.44,2.45-4.9,4.89-7.33,7.34-1.4,1.42-1.41,2.5,0,3.89q6.33,6.38,12.71,12.72c1.44,1.43,2.5,1.42,4-.06,2.45-2.43,4.89-4.89,7.34-7.33,1.73-1.72,2.79-1.87,4.94-.67a56,56,0,0,0,12.51,5.17c2.18.6,2.93,1.61,2.94,3.91,0,3.51,0,7,0,10.52,0,2,.76,2.75,2.73,2.75q9,0,18,0c1.95,0,2.7-.77,2.71-2.77,0-3.26,0-6.53,0-9.79a5.87,5.87,0,0,1,.23-1.73,2,2,0,0,1,2.13-1.44,2.08,2.08,0,0,1,2.07,1.74,6.28,6.28,0,0,1,.11,1.3c0,3.27,0,6.53,0,9.8-.06,4.76-2.73,7.37-7.49,7.38H140.91c-4.31,0-7.06-2.63-7.17-7-.08-3.07,0-6.14,0-9.21,0-.68,0-1.24-.88-1.57-4-1.48-8-3.07-12-4.63v-.37c-.35.32-.71.62-1,1-2.14,2.13-4.25,4.29-6.41,6.4a6.64,6.64,0,0,1-9.88,0q-6.56-6.48-13-13c-3-3-3-6.94,0-10,2.39-2.43,4.82-4.82,7.28-7.27-.17-.4-.33-.74-.47-1.08-1.48-3.54-3-7.07-4.39-10.64-.36-.92-.73-1.31-1.74-1.29-2.63.07-5.27-.09-7.89.05-4,.21-6.76-1.35-8.16-5.16Z"/><path class="cls-7" d="M142.3,223.27v-8.59c0-2.73,0-5.46,0-8.19a2.88,2.88,0,0,0-.74-1.72,4.46,4.46,0,0,1-.07-6.3,4.36,4.36,0,1,1,6.1,6.23,2.29,2.29,0,0,0-.74,1.29c0,5.84,0,11.69,0,17.7h6.38v-1.64c0-5.45,0-10.91,0-16.37a5,5,0,0,1,1.59-3.91c1.52-1.45,3-2.92,4.43-4.47a3.25,3.25,0,0,0,.8-1.89c.09-2.43.08-4.87,0-7.31a2.67,2.67,0,0,0-.7-1.61,4.37,4.37,0,1,1,6.06-.05,3,3,0,0,0-.74,1.74c-.07,2.63-.06,5.26,0,7.89A5,5,0,0,1,163,200c-1.55,1.47-3.06,3-4.53,4.55a2.45,2.45,0,0,0-.71,1.49c-.05,5.46,0,10.91,0,16.37a5.19,5.19,0,0,0,.15.75c1.54-.37,3.07-.7,4.57-1.13,1.88-.52,1.87-.56,1.87-2.56,0-1.46,0-2.93,0-4.39a5,5,0,0,0-1.21-3.95c-1.54-1.63-1.05-4.27.68-5.75a4.3,4.3,0,0,1,6,.28,4.13,4.13,0,0,1,.16,5.8,3.72,3.72,0,0,0-1.09,3.11c.05,1.54,0,3.09,0,4.63l.34.29c2.1-1.35,4.21-2.69,6.27-4.1.27-.18.34-.78.34-1.19,0-5.21,0-10.42,0-15.64A2.74,2.74,0,0,0,175,197a4.33,4.33,0,0,1-.8-5.12,4.34,4.34,0,0,1,8.15,1.18,4.37,4.37,0,0,1-1.29,4,2.3,2.3,0,0,0-.67,1.32c-.05,4,0,8,0,12a3.54,3.54,0,0,0,.21.62c.92-1,1.77-1.94,2.55-2.91a42.63,42.63,0,1,0-75.24-33.37c-.18,1.2-.29,2.41-.46,3.62-.23,1.56-1.19,2.41-2.51,2.24a2.35,2.35,0,0,1-2-2.78,45.63,45.63,0,0,1,5.84-19.41c7.79-13.44,19.37-21.63,34.75-23.8A47.15,47.15,0,0,1,161.34,227c-26.07,6.68-52.89-10.55-57.7-37.06-.28-1.52.38-2.67,1.67-2.92a2.21,2.21,0,0,1,2.7,2,44.17,44.17,0,0,0,5.2,13.87,42.45,42.45,0,0,0,17.71,16.5c.25.12.52.21,1,.39,0-1.51.06-2.86,0-4.2a2.34,2.34,0,0,0-.73-1.19q-2.29-2.35-4.65-4.65a4.44,4.44,0,0,1-1.4-3.4c0-2.68,0-5.36,0-8a2.36,2.36,0,0,0-.76-1.91,4.25,4.25,0,0,1-.07-6.15,4.36,4.36,0,0,1,6.17,0,4.28,4.28,0,0,1,0,6.15,2.5,2.5,0,0,0-.82,2c0,2.29-.05,4.59,0,6.87a3.59,3.59,0,0,0,.83,2c1.43,1.59,3,3.08,4.52,4.56a4.77,4.77,0,0,1,1.52,3.66c0,1.75,0,3.51,0,5.26,0,.37.23,1,.49,1C138.66,222.33,140.34,222.74,142.3,223.27Z"/><path class="cls-8" d="M202.39,151.83c1.66,4.26,3.28,8.31,4.82,12.4.32.86.92.73,1.52.73,3.22,0,6.43,0,9.65,0a6.51,6.51,0,0,1,6.29,5.14,7.16,7.16,0,0,1,.18,1.73q0,9.28,0,18.57a6.61,6.61,0,0,1-6.82,7c-3.11.07-6.23.05-9.35,0-1,0-1.31.38-1.64,1.22-1.41,3.57-2.86,7.13-4.42,10.63a1.45,1.45,0,0,0,.36,2c2.17,2.1,4.3,4.25,6.41,6.4,3,3.05,3.06,7,.07,10q-6.47,6.56-13,13c-3.06,3-6.95,3-10,0-2.42-2.4-4.81-4.83-7.27-7.31C178,234,177,234.5,175.89,235c-1.53.72-2.79.4-3.41-.82s-.12-2.41,1.38-3.2c1.2-.64,2.41-1.27,3.62-1.9a3.17,3.17,0,0,1,4.35.61c2.5,2.46,5,5,7.45,7.43,1.67,1.66,2.66,1.67,4.31,0Q199.79,231,206,224.76c1.54-1.53,1.55-2.57,0-4.1-2.44-2.46-4.89-4.89-7.33-7.34-1.71-1.73-1.86-2.79-.66-4.94a55.16,55.16,0,0,0,5.16-12.52c.6-2.18,1.61-2.92,3.92-2.93,3.51,0,7,0,10.53,0,2,0,2.73-.76,2.73-2.74q0-9,0-18c0-1.9-.77-2.68-2.64-2.69-3.51,0-7,0-10.52,0-2.47,0-3.4-.73-4.07-3.12a55,55,0,0,0-5.06-12.25c-1.28-2.29-1.13-3.27.75-5.15,2.4-2.42,4.83-4.82,7.22-7.25,1.46-1.47,1.45-2.52,0-4s-2.63-2.61-3.92-3.94a2.31,2.31,0,0,1-.24-3.38,2.23,2.23,0,0,1,3.36.15c1.51,1.45,3,2.92,4.44,4.45a6.59,6.59,0,0,1,0,9.46c-2.12,2.22-4.33,4.35-6.5,6.53C202.82,151.35,202.5,151.7,202.39,151.83Z"/><path class="cls-9" d="M144.25,177.66c0,1.5-.61,2.28-1.74,2.55a2.06,2.06,0,0,1-2.5-1.28,34.08,34.08,0,0,1-1.31-3.4,1.29,1.29,0,0,0-1.47-1c-3,0-6,0-9.06,0a1.29,1.29,0,0,0-1.49,1c-.32,1-.73,2-1.14,3-.62,1.51-1.69,2.08-2.94,1.62s-1.82-1.71-1.24-3.24c2.54-6.73,5.12-13.45,7.68-20.17.33-.86.67-1.72,1-2.59a2.72,2.72,0,0,1,2.73-2,2.78,2.78,0,0,1,2.69,2.08q3.86,10.23,7.73,20.47C143.59,175.75,144,176.85,144.25,177.66Zm-11.38-17.53h-.3l-3.7,9.74h7.67Z"/><path class="cls-10" d="M153.22,169.91c0,2.7,0,5.08,0,7.46a4.55,4.55,0,0,1-.25,1.56,2,2,0,0,1-2.2,1.33,2.1,2.1,0,0,1-2-1.84,8.2,8.2,0,0,1-.05-1.31V155.2c0-2.45.67-3.13,3.12-3.13,2.24,0,4.49-.07,6.71.13a8.87,8.87,0,0,1-.46,17.7C156.56,170,155,169.91,153.22,169.91Zm.08-4.54c1.78,0,3.44.13,5.06,0a4.48,4.48,0,0,0,3.77-4.22,4.41,4.41,0,0,0-3.43-4.34,42.16,42.16,0,0,0-5.4,0Z"/><path class="cls-11" d="M175.4,165.85c0,3.75.06,7.49,0,11.23a3.73,3.73,0,0,1-.91,2.32,2.11,2.11,0,0,1-3.48-1.27,6.32,6.32,0,0,1-.08-1.31v-22c0-.14,0-.29,0-.43,0-1.59.85-2.57,2.14-2.63a2.35,2.35,0,0,1,2.35,2.6C175.43,158.17,175.4,162,175.4,165.85Z"/></g></svg>