<svg id="Camada_1" data-name="Camada 1" xmlns="http://www.w3.org/2000/svg" xmlns:xlink="http://www.w3.org/1999/xlink" viewBox="0 0 300 300"><defs><style>.cls-1{fill:url(#_256);}.cls-2{fill:url(#_256-2);}</style><linearGradient id="_256" x1="3.55" y1="154.49" x2="296.45" y2="154.49" gradientUnits="userSpaceOnUse"><stop offset="0" stop-color="#00ffe3"/><stop offset="0.17" stop-color="#08f3e3"/><stop offset="0.46" stop-color="#1fd3e2"/><stop offset="0.86" stop-color="#43a0e0"/><stop offset="0.97" stop-color="#4e90e0"/></linearGradient><linearGradient id="_256-2" x1="218.63" y1="249.5" x2="276.83" y2="249.5" xlink:href="#_256"/></defs><path class="cls-1" d="M296.45,251.74c-.56,2.39-1.05,4.79-1.68,7.16a48.67,48.67,0,0,1-94.47-1.44c-.18-.73-.39-1.46-.69-2.59-1,.65-1.86,1.17-2.69,1.72-9,6-18.1,12-27.1,18.09-2.56,1.73-5.13,2.58-8,1s-3.48-4.06-3.37-7,0-5.7,0-8.89c-1.14-.07-2.14-.18-3.13-.18q-16.6,0-33.19,0a12.38,12.38,0,0,1-3.11-.27,3.86,3.86,0,0,1-3.1-4.23,3.82,3.82,0,0,1,3.74-4c2.47-.17,4.95-.09,7.43-.1h30.61c6.88,0,9.32,2.43,9.34,9.24v5.92l29.69-19.79-29.69-19.8v5.85c0,6.84-2.5,9.37-9.27,9.38H74.14V251H86.31c4.1,0,8.2,0,12.3,0,3.9,0,5.79,1.47,5.72,4.35s-2,4.21-5.65,4.22c-8.86,0-17.73-.05-26.6.07a5.28,5.28,0,0,0-3.38,1.45C62,268,54,270.27,44.92,267.09c-8.67-3-13.75-9.49-14.55-18.72-.84-9.86,3.54-17.08,12.17-21.79.41-.23.84-.43,1.26-.66.08,0,.14-.13.4-.4l-2.92-4.4C35.46,212.4,29.67,203.66,23.82,195c-1.66-2.46-2.47-5-1-7.74s4-3.59,7-3.52,5.88,0,9.06,0c0-1.11.13-2,.13-2.95,0-6.58,0-13.16,0-19.74,0-10,6.68-16.69,16.68-16.71q36.62,0,73.24,0a6.74,6.74,0,0,0,5.41-2.27,22,22,0,0,1,35,5c.41.74.79,1.48,1.33,2.49,3.28-2.16,6.43-4.23,9.56-6.33,7.06-4.7,14.14-9.37,21.16-14.13,2.48-1.68,5-2.37,7.76-.92s3.46,3.87,3.42,6.73c0,3,0,6.07,0,9.25h21.82c.06-1,.15-1.78.15-2.61,0-17.55,0-35.09-.06-52.64A7.44,7.44,0,0,0,232.88,85c-1.91-2.69-4-5.23-6.26-8-.48.29-1.34.78-2.17,1.33q-14,9.35-28.07,18.72c-2.44,1.64-4.92,2.57-7.73,1.08S185,93.93,185,90.87c.06-2.85,0-5.71,0-8.8H99.53C97.66,86,95.8,89.83,94,93.72a4.58,4.58,0,0,0-.16,2.13c.37,5.77.91,11.54,1.1,17.32.07,2.49-1.59,4-4.19,4.14-1.81.09-3.62,0-5.43,0H15.54c-4.88,0-6.32-1.25-6.1-6,.23-5.29.91-10.57,1.3-15.85a4.57,4.57,0,0,0-.66-2.35C-4.09,67.39,5.52,37.19,31.94,24.36a9.26,9.26,0,0,0,2.81-2.3c9.54-11,25.58-11,35,.15a7.37,7.37,0,0,0,2.37,1.94A48.85,48.85,0,0,1,98.65,54.06c.15.45.38.86.64,1.43,3.41,0,6.84,0,10.27,0,3.13,0,5,1.65,5,4.26s-1.85,4.25-5,4.3c-2.84,0-5.68,0-8.65,0v9.17h83c7.45,0,9.64,2.22,9.64,9.76v5.51l29.79-19.84L193.62,48.8c0,2.9,0,5.15,0,7.39-.1,5-2.82,7.85-7.79,7.86q-27.31.06-54.63,0c-3.12,0-5.06-1.66-5.13-4.19s1.94-4.37,5.22-4.38q25.17,0,50.34,0H185c0-3.19,0-6.11,0-9s.69-5.69,3.6-7.23,5.29-.58,7.74,1.06c10.12,6.8,20.28,13.54,30.59,20.41.5-.92.91-1.74,1.38-2.53,4.76-8,11.77-12.14,21.13-11.38s15.88,5.79,19,14.61,1,16.76-5.7,23.28a5.49,5.49,0,0,0-1.83,4.44c.06,9.44,0,18.88,0,28.33,0,.66,0,1.33,0,2-.18,2.78-2.06,4.68-4.48,4.56s-4.05-1.9-4.06-4.63c0-8.58,0-17.17,0-25.75V90.57h-9.18v3.26q0,26.46,0,52.92c0,4.84-1.27,6.13-6.06,6.14q-12.3,0-24.6,0c-5.82,0-8.38-2.57-8.48-8.34,0-2.06,0-4.12,0-6.84L174.3,157.53,204,177.34c0-2.86-.05-5,0-7.16.14-5.38,2.8-8,8.22-8.07,10.2-.05,20.4,0,30.61,0,7.1,0,9.48-2.37,9.48-9.38,0-4.1,0-8.2,0-12.3,0-3.13,1.69-4.94,4.34-4.89s4.17,1.84,4.2,4.78c.07,5.05.15,10.11,0,15.16a15.36,15.36,0,0,1-15,15.09c-9.81.25-19.64.1-29.46.12h-3.84c0,3.15-.06,6.07,0,9s-.6,5.73-3.51,7.27-5.46.52-8-1.18c-10-6.76-20.12-13.45-30.36-20.28-.46.83-.88,1.56-1.27,2.29a21.9,21.9,0,0,1-35.35,4.95,6.13,6.13,0,0,0-4.94-2.08c-20.12.07-40.24,0-60.36,0H65.56v13c2.23,0,4.4,0,6.56,0,3.64-.05,7.43-.42,9.53,3.55s-.48,6.87-2.48,9.87l-18.64,28c3.06,2.58,6,5.08,8.93,7.48a3.57,3.57,0,0,0,2.09.62q42.61,0,85.24,0a13,13,0,0,0,1.69-.25c0-3.3,0-6.51,0-9.72a6.41,6.41,0,0,1,3.33-6.19c2.5-1.41,4.94-1,7.27.54,10.06,6.72,20.13,13.42,30.44,20.29.3-.94.59-1.68.77-2.45,5.31-22.77,26.06-38.69,49.15-37.7a48.67,48.67,0,0,1,46.5,41.58,9.16,9.16,0,0,0,.53,1.55Zm-88.8-5.57A40.11,40.11,0,1,0,248,206.29,40.18,40.18,0,0,0,207.65,246.17ZM74.91,36.05c-.55,5.67-1.14,11.25-1.63,16.83C72,67.67,58,76.79,44.48,71.43,35.77,68,31.74,61,31,51.92c-.42-5.27-1-10.53-1.52-15.92C13,46.18,7,70.75,16.87,86.89c4.72-4,10.31-4.82,16.28-4.75q18.17.23,36.31,0c6.59-.07,13,.15,18.26,4.89C97.93,68.52,89.93,44.83,74.91,36.05ZM72.07,192.3c-2.86,0-5,0-7.19,0-5.3-.08-8-2.83-8.09-8.18,0-5.15,0-10.29,0-15.44,0-5.39,1.17-6.58,6.52-6.58h64.77v-9a14.82,14.82,0,0,0-1.69-.19q-35.46,0-70.92,0c-5,0-7.8,2.92-7.84,7.86-.06,7.72,0,15.44,0,23.16,0,5.72-2.66,8.31-8.44,8.36-2,0-4.11,0-6.77,0l19.84,29.76C58.89,212.08,65.27,202.5,72.07,192.3ZM35.12,108.53H69.58c0-1.38,0-2.52,0-3.65.14-3.21,1.7-4.92,4.37-4.87s4,1.69,4.18,4.76c0,1.28,0,2.56,0,3.81h8.3c0-2.07,0-4,0-5.84-.17-6.74-5-11.86-11.72-11.91q-22.57-.19-45.16,0a11.16,11.16,0,0,0-11,8.43c-.69,3-.56,6.15-.8,9.28h8.34c.65-7.08,1.45-8.57,4.49-8.54S34.39,101.49,35.12,108.53ZM66,38.86h0c0-.29.07-.57.09-.85A14,14,0,0,0,52.65,22.39,13.88,13.88,0,0,0,38.32,37.11c.3,5.5.82,11,1.61,16.47A12.13,12.13,0,0,0,52.6,64.33,12.45,12.45,0,0,0,64.65,52.79C65.15,48.15,65.56,43.5,66,38.86Zm-13.72,221a13.46,13.46,0,1,0-13.48-13.37A13.32,13.32,0,0,0,52.29,259.81ZM261.14,68.63A13.39,13.39,0,0,0,247.69,55.2a13.47,13.47,0,1,0,13.45,13.43Zm-111,75.47a13.46,13.46,0,1,0-.23,26.92,13.46,13.46,0,1,0,.23-26.92Z"/><path class="cls-2" d="M245,240.21c3.45-3.47,6.58-6.64,9.73-9.78q7-6.94,13.95-.06c1.83,1.8,3.68,3.59,5.44,5.47,3.57,3.79,3.72,8.56.12,12.26-6.7,6.9-13.47,13.74-20.41,20.4a12.48,12.48,0,0,1-17.56-.1c-5.09-4.88-10-9.89-15-14.94a8.37,8.37,0,0,1-.14-12.06q3.21-3.45,6.67-6.67a8.42,8.42,0,0,1,12.07.15C241.57,236.51,243.13,238.29,245,240.21Zm16.37-4.52c-3.92,4-7.9,8.1-11.91,12.15-3.39,3.42-5.25,3.44-8.59.09-2.31-2.34-4.57-4.73-6.62-6.86l-6.86,6.41c4.83,4.83,9.57,9.64,14.4,14.36,2.2,2.15,4.48,2.06,6.77-.13s4.72-4.7,7.08-7c4.15-4.15,8.32-8.28,12.5-12.45Z"/></svg>