<?xml version="1.0" encoding="UTF-8"?><svg id="Camada_2" xmlns="http://www.w3.org/2000/svg" xmlns:xlink="http://www.w3.org/1999/xlink" viewBox="0 0 4781.38 1483.14"><defs><style>.cls-1{font-family:Ubuntu-Regular, Ubuntu;font-size:259.27px;}.cls-1,.cls-2,.cls-3{fill:#212134;}.cls-2,.cls-4,.cls-5,.cls-6{stroke-width:0px;}.cls-7{letter-spacing:-.02em;}.cls-8{fill:none;stroke:#212134;stroke-miterlimit:10;stroke-width:4.03px;}.cls-4{fill:#fff;}.cls-5{fill:#00c6d7;}.cls-6{fill:url(#Gradiente_sem_nome_41);}.cls-3{font-family:Archivo-SemiBold, Archivo;font-size:952.08px;font-weight:600;}</style><linearGradient id="Gradiente_sem_nome_41" x1="-114.73" y1="780.85" x2="1230.09" y2="780.85" gradientTransform="translate(57.47 63.77) rotate(-9)" gradientUnits="userSpaceOnUse"><stop offset="0" stop-color="#59297d"/><stop offset="1" stop-color="#00c6d7"/></linearGradient></defs><g id="Camada_1-2"><path class="cls-8" d="M2139.15,731.41h138.05c30.47,0,57.44-4.43,80.92-13.33,23.48-8.88,43.15-22.04,59.03-39.52,15.86-17.45,27.93-39.34,36.18-65.69,8.24-26.34,12.37-56.96,12.37-91.88v-19.99c0-35.54-4.14-66.48-12.37-92.83-8.26-26.33-20.32-48.23-36.18-65.69-15.87-17.45-35.55-30.61-59.03-39.51-23.48-8.88-50.46-13.33-80.92-13.33h-138.05v441.76Z"/><path class="cls-8" d="M2015.33,630.7c0-12.78-.04-157.7-.04-170.71,0-33.43-.02-246.29-.01-279.72,169.41,8.47,347.29-33.88,491.29,76.23,93.18,84.71,93.18,211.76,84.71,321.88-16.94,110.12-76.23,220.23-194.82,245.65-9.06,1.94-17.15,3.64-26.51,5.1-118.42,18.54-181.94,9.58-354.56,7.96-17.28-.16-46.9-.34-84.26,0"/><path class="cls-8" d="M2698.01,259.18v-110.44h116.16v110.44h-116.16M2698.01,837.09v-500.79h116.16v500.79h-116.16Z"/><path class="cls-8" d="M3020.78,1010.38c-22.23,0-43.17-4.45-62.84-13.33-19.68-8.89-35.55-22.06-47.61-39.51-12.06-17.47-18.08-38.89-18.08-64.27,0-27.94,8.09-49.99,24.28-66.18,16.18-16.18,34.11-28.4,53.79-36.65-14.61-7.62-26.51-17.76-35.71-30.47-9.21-12.69-13.8-27.92-13.8-45.7,0-24.11,8.88-43.31,26.65-57.6,17.77-14.28,38.08-23.64,60.93-28.08-23.48-14.59-41.41-33.33-53.78-56.18-12.38-22.85-18.57-48.87-18.57-78.07,0-34.9,8.4-64.89,25.23-89.97,16.81-25.07,41.42-44.59,73.79-58.55,32.38-13.95,71.4-20.94,117.11-20.94,18.41,0,36.18,1.28,53.32,3.81,17.13,2.54,32.68,6.35,46.65,11.43,22.21-13.33,37.45-28.4,45.7-45.23,8.24-16.81,12.69-30.61,13.33-41.41h113.3c0,22.23-4.28,41.89-12.85,59.03-8.57,17.14-20.46,31.27-35.7,42.37-15.24,11.11-33.65,19.2-55.22,24.28,15.86,13.96,27.93,30.79,36.18,50.46,8.24,19.68,12.37,41.26,12.37,64.74,0,34.92-8.09,65.07-24.28,90.45-16.18,25.4-39.99,45.07-71.4,59.03-31.42,13.97-69.98,20.94-115.68,20.94h-77.12c-13.33,0-23.66,2.86-30.95,8.57-7.3,5.72-10.94,13.66-10.94,23.81,0,8.26,3.33,15.56,9.99,21.9,6.67,6.35,16.02,9.52,28.08,9.52h218.98c37.44,0,68.38,12.23,92.83,36.65,24.43,24.44,36.65,55.7,36.65,93.78,0,28.56-7.47,54.27-22.38,77.12-14.92,22.85-35.7,40.94-62.36,54.27-26.65,13.33-57.76,19.99-93.3,19.99h-226.59ZM3062.67,926.59h183.75c12.04,0,22.68-2.07,31.9-6.19,9.19-4.14,16.49-10,21.9-17.61,5.39-7.62,8.09-16.19,8.09-25.71,0-16.51-5.24-28.89-15.71-37.13-10.47-8.24-23.33-12.37-38.56-12.37h-191.37c-15.24,0-27.93,4.62-38.08,13.81-10.16,9.19-15.23,21.09-15.23,35.7s4.91,26.5,14.76,35.7c9.83,9.2,22.68,13.81,38.56,13.81ZM3153.11,582.89c33.63,0,58.86-7.77,75.69-23.33,16.82-15.54,25.24-37.28,25.24-65.22s-8.42-49.51-25.24-64.74c-16.83-15.24-42.05-22.86-75.69-22.86s-58.88,7.62-75.69,22.86c-16.83,15.23-25.23,36.81-25.23,64.74,0,18.41,3.65,34.28,10.95,47.61,7.29,13.33,18.4,23.49,33.32,30.47,14.91,6.99,33.8,10.47,56.65,10.47Z"/><path class="cls-8" d="M3500.61,259.18v-110.44h116.16v110.44h-116.16ZM3500.61,837.09v-500.79h116.16v500.79h-116.16Z"/><path class="cls-8" d="M3872.87,848.52c-31.11,0-55.55-6.19-73.31-18.56-17.78-12.37-30.32-28.24-37.6-47.61-7.3-19.36-10.95-39.18-10.95-59.51v-291.33h-59.98v-95.21h62.84l20.94-139.96h92.35v139.96h86.64v95.21h-86.64v279.91c0,13.33,3.48,23.66,10.47,30.95,6.98,7.3,17.45,10.94,31.42,10.94h44.75v79.98c-6.35,2.54-14.13,4.91-23.33,7.14-9.21,2.22-18.89,4.12-29.03,5.71-10.17,1.58-19.69,2.38-28.56,2.38Z"/><path class="cls-8" d="M4168.01,848.52c-13.96,0-29.99-1.75-48.08-5.24-18.09-3.49-35.55-9.99-52.36-19.51-16.83-9.52-30.63-23.64-41.42-42.37-10.8-18.72-16.19-43.32-16.19-73.79,0-34.28,7.62-62.68,22.86-85.21,15.23-22.52,36.65-40.3,64.27-53.32,27.6-13,60.6-22.21,99.02-27.61,38.39-5.39,80.45-8.09,126.15-8.09v-40.94c0-14.59-2.23-27.61-6.67-39.04-4.44-11.42-12.54-20.46-24.28-27.13-11.75-6.67-29.37-10-52.83-10s-41.9,2.86-55.22,8.57c-13.33,5.72-22.54,12.71-27.61,20.94-5.09,8.26-7.62,16.83-7.62,25.71v13.33h-112.34c-.64-3.17-.95-6.34-.95-9.52v-11.42c0-28.56,8.57-53.31,25.7-74.26,17.14-20.95,40.95-36.97,71.41-48.08,30.47-11.1,65.69-16.66,105.68-16.66,45.69,0,83.3,6.35,112.82,19.04,29.51,12.71,51.56,30.8,66.17,54.26,14.59,23.49,21.9,52.06,21.9,85.69v236.12c0,12.07,3.48,20.63,10.47,25.71,6.98,5.09,14.59,7.61,22.85,7.61h30.47v79.98c-6.34,2.54-15.56,5.54-27.6,9.04-12.07,3.48-26.99,5.24-44.75,5.24-16.51,0-31.27-2.7-44.27-8.09-13.01-5.39-23.96-13.17-32.85-23.33-8.89-10.15-15.23-22.21-19.04-36.18h-5.71c-10.8,13.33-23.66,25.23-38.56,35.7-14.91,10.47-32.37,18.57-52.36,24.28-19.99,5.72-43.01,8.57-69.03,8.57ZM4203.24,753.31c19.04,0,36.02-2.85,50.94-8.56,14.91-5.72,27.28-13.65,37.12-23.81,9.84-10.14,17.45-22.52,22.86-37.13,5.39-14.59,8.09-30.47,8.09-47.6v-22.86c-34.92,0-67.12,2.23-96.63,6.67-29.51,4.45-53.01,12.71-70.45,24.75-17.47,12.07-26.19,29.21-26.19,51.42,0,11.42,2.7,21.42,8.1,29.99,5.39,8.57,13.64,15.24,24.75,19.99,11.1,4.76,24.91,7.14,41.42,7.14Z"/><path class="cls-8" d="M4752.79,836.74c-39.54.19-79.19.31-118.95.36-21.7.02-43.36.02-65,0V148.74h116.16c-.02,214.95-.04,429.9-.06,644.85"/><circle class="cls-2" cx="1918.7" cy="837.13" r="14.91"/><circle class="cls-2" cx="2014.2" cy="644.89" r="14.91"/><path class="cls-2" d="M4781.38,837.11c0-8.23-6.67-14.91-14.91-14.91s-14.91,6.67-14.91,14.91,6.67,14.91,14.91,14.91,14.91-6.67,14.91-14.91Z"/><text class="cls-3" transform="translate(1972.72 802.61)"><tspan x="0" y="0">Digital</tspan></text><text/></g><g id="BRACK"><g id="_2"><path class="cls-6" d="M227.59,146.61L1022.92,20.65c146.56-23.21,285.46,77.71,308.67,224.26l125.97,795.33c23.21,146.56-77.71,285.46-224.26,308.67l-829.2,131.33c-127.93,20.26-249.18-67.83-269.44-195.76L3.32,455.28C-19.89,308.73,81.03,169.83,227.59,146.61Z"/><path class="cls-5" d="M312.47,133.17L1022.92,20.65c146.56-23.21,285.46,77.71,308.67,224.26l91.85,579.89c27.3,172.34-91.38,335.68-263.72,362.98l-596.76,94.52c-137.28,21.74-267.39-72.79-289.14-210.07l-115.19-727.31c-15.92-100.54,53.31-195.82,153.84-211.75Z"/><path class="cls-2" d="M556.15,884.92c-.54.09-1.06-.29-1.14-.83l-60.96-384.92c-.09-.54.29-1.06.83-1.14l257.07-40.72c.54-.09,1.06.29,1.14.83l11.27,71.16c.09.54-.29,1.06-.83,1.14l-169.98,26.92c-.54.09-.92.6-.83,1.14l12.51,78.98c.09.54.6.92,1.14.83l150.99-23.91c.54-.09,1.06.29,1.14.83l11.27,71.16c.09.54-.29,1.06-.83,1.14l-150.99,23.91c-.54.09-.92.6-.83,1.14l24.98,157.69c.09.54-.29,1.06-.83,1.14l-85.12,13.48Z"/><path class="cls-2" d="M1013.33,696.13c-1.71-10.79-5.65-19.99-11.81-27.6-6.17-7.61-15.65-13.26-28.44-16.96-12.8-3.69-29.47-5.43-50.05-5.24-20.57.21-75.64,7.43-75.64,7.43-.55.07-1.01-.32-1.04-.87,0,0-3.56-69.96-6.61-106.11-3.65-43.31-7.5-80.53-9.32-97.28-.19-1.75-.35-3.19-.35-3.19-.06-.55.34-1.06.88-1.15l207.38-32.85c.54-.09,1.06.29,1.14.83l10.74,67.81c.09.54-.29,1.06-.83,1.14l-137.59,21.79c-.54.09-.94.6-.89,1.15,0,0,2.49,25.59,3.54,38.2,1.04,12.62,2.05,32.15,2.05,32.15.03.55.5,1.01,1.05,1.01,0,0,96.05,1.49,125.37,19.17,29.31,17.68,47.04,45.87,53.17,84.58,2.83,17.87,2.29,34.93-1.62,51.19-3.92,16.27-11.31,30.98-22.2,44.15-10.89,13.17-25.41,24.44-43.58,33.8-18.17,9.36-40.09,16.08-65.77,20.15-10.05,1.59-20.67,2.6-31.85,3.04-11.19.43-22.06.43-32.62.01-10.56-.42-20.12-1.11-28.65-2.04-8.54-.94-15.22-2.17-20.04-3.69l4.2-71.06c9.95,2.63,37.75,6.04,37.75,6.04.55.07,1.44.13,1.99.14l53.65-2.71c.55-.06,1.43-.23,1.96-.38,0,0,42.51-11.86,52.43-23.93,9.91-12.06,13.78-24.98,11.6-38.75Z"/><path class="cls-4" d="M565.43,874.73c-.54.09-1.06-.29-1.14-.83l-60.96-384.92c-.09-.54.29-1.06.83-1.14l257.07-40.72c.54-.09,1.06.29,1.14.83l11.27,71.16c.09.54-.29,1.06-.83,1.14l-169.98,26.92c-.54.09-.92.6-.83,1.14l12.51,78.98c.09.54.6.92,1.14.83l150.99-23.91c.54-.09,1.06.29,1.14.83l11.27,71.16c.09.54-.29,1.06-.83,1.14l-150.99,23.91c-.54.09-.92.6-.83,1.14l24.98,157.69c.09.54-.29,1.06-.83,1.14l-85.12,13.48Z"/><path class="cls-4" d="M1023.18,685.49c-1.71-10.79-5.65-19.99-11.81-27.6-6.17-7.61-15.65-13.26-28.44-16.96-12.8-3.69-29.47-5.43-50.05-5.24-20.57.21-75.64,7.43-75.64,7.43-.55.07-1.01-.32-1.04-.87,0,0-3.56-69.96-6.61-106.11-3.06-36.15-9.67-100.47-9.67-100.47-.06-.55.34-1.07.89-1.15l207.38-32.85c.54-.09,1.06.29,1.14.83l10.74,67.81c.09.54-.29,1.06-.83,1.14l-137.59,21.79c-.54.09-.94.6-.89,1.15,0,0,2.49,25.59,3.54,38.2,1.04,12.63,2.05,32.15,2.05,32.15.03.55.5,1.01,1.05,1.01,0,0,96.05,1.49,125.37,19.17,29.31,17.68,47.04,45.87,53.17,84.58,2.83,17.87,2.29,34.93-1.62,51.19-3.92,16.27-11.31,30.98-22.2,44.15-10.89,13.17-25.41,24.44-43.58,33.8-18.17,9.36-40.09,16.08-65.77,20.15-10.05,1.59-20.67,2.6-31.85,3.04-11.19.43-22.06.43-32.62.01-10.57-.42-20.12-1.11-28.65-2.04-8.54-.94-19.07-3.46-19.07-3.46-.53-.13-.95-.68-.91-1.23l4.08-69.06c.03-.55.5-.91,1.04-.8,0,0,21.88,4.48,37.77,5.97,15.88,1.49,34.43.56,55.64-2.8,25.68-4.07,43.48-12.13,53.4-24.2,9.91-12.06,13.78-24.98,11.6-38.75Z"/></g></g><g id="ARTY_"><text class="cls-1" transform="translate(1933.61 1306.81)"><tspan class="cls-7" x="0" y="0">A</tspan><tspan x="167.75" y="0">gência web</tspan></text><circle class="cls-2" cx="3348.49" cy="1238.24" r="8.13"/></g></svg>