<svg id="Camada_1" data-name="Camada 1" xmlns="http://www.w3.org/2000/svg" xmlns:xlink="http://www.w3.org/1999/xlink" viewBox="0 0 300 300"><defs><style>.cls-1{fill:url(#Gradiente_sem_nome);}.cls-2{fill:url(#Gradiente_sem_nome-2);}.cls-3{fill:url(#Gradiente_sem_nome-3);}.cls-4{fill:url(#Gradiente_sem_nome-4);}.cls-5{fill:url(#Gradiente_sem_nome-5);}.cls-6{fill:url(#Gradiente_sem_nome-6);}</style><linearGradient id="Gradiente_sem_nome" x1="163.34" y1="265.53" x2="163.34" y2="290.01" gradientUnits="userSpaceOnUse"><stop offset="0" stop-color="#00ffe3"/><stop offset="0.17" stop-color="#08f3e3"/><stop offset="0.46" stop-color="#1fd3e2"/><stop offset="0.86" stop-color="#43a0e0"/><stop offset="0.97" stop-color="#4e90e0"/></linearGradient><linearGradient id="Gradiente_sem_nome-2" x1="163.34" y1="9.51" x2="163.34" y2="251.16" xlink:href="#Gradiente_sem_nome"/><linearGradient id="Gradiente_sem_nome-3" x1="163.33" y1="32.89" x2="163.33" y2="186.06" xlink:href="#Gradiente_sem_nome"/><linearGradient id="Gradiente_sem_nome-4" x1="159.39" y1="71.28" x2="159.39" y2="124.97" xlink:href="#Gradiente_sem_nome"/><linearGradient id="Gradiente_sem_nome-5" x1="182.87" y1="131.13" x2="182.87" y2="155.92" xlink:href="#Gradiente_sem_nome"/><linearGradient id="Gradiente_sem_nome-6" x1="151.33" y1="131.13" x2="151.33" y2="155.92" xlink:href="#Gradiente_sem_nome"/></defs><path class="cls-1" d="M105.8,290c-9.11-3.87-8.92-10.39-7.72-16.45a10,10,0,0,1,8.85-7.8,25,25,0,0,1,3-.16c35.6,0,71.21.12,106.81-.07,12.39-.06,14.28,11.49,11.09,18.71-1.34,3-4.15,4.43-7,5.77Zm57.39-8.22h53.37c3.74,0,4.34-.61,4.3-4.24,0-3.2-.67-3.73-4.55-3.73H110.39a6.24,6.24,0,0,0-2.17.1,4,4,0,0,0-2.11,1.48c-1.76,3.44.13,6.39,4,6.39Z"/><path class="cls-2" d="M60.72,114.64c.4-28.79,9.1-51.71,26.49-71.29,2.11-2.37,4.53-2.8,6.43-1.19s1.89,4.22-.35,6.72a92.77,92.77,0,0,0-23,47.92c-3.4,21,.14,41.07,8.91,60.27,10.32,22.57,26.08,41,44.34,57.47a261.84,261.84,0,0,0,36.31,27.24c2.25,1.41,4.27,1.69,6.59.2,26.81-17.26,50.63-37.74,68.91-64.13a126.44,126.44,0,0,0,20.84-48.65C264.85,83.94,237.46,37,193.48,22.72c-29.85-9.67-58-5.57-84.08,11.91-1.1.74-2.58,1.78-3.62,1.53A6.62,6.62,0,0,1,102,33.38c-1-1.78,0-3.63,1.68-4.66,5.71-3.4,11.25-7.22,17.27-9.95A102.46,102.46,0,0,1,262.75,87c6.41,25.14,2.95,49.43-7.73,72.83-9.89,21.67-24.64,39.78-41.75,56.09a288.08,288.08,0,0,1-41.36,32.35c-5.78,3.78-11.18,3.87-17,.12-25.44-16.27-48.2-35.49-66.37-59.79C75.37,171.05,65.84,151.82,62.34,130,61.38,124.06,61.06,118,60.72,114.64Z"/><path class="cls-3" d="M163.2,186.06a77.3,77.3,0,0,1-75.38-64.78C81.1,79.66,110.41,39.67,152,33.69A76.42,76.42,0,0,1,238.78,97.3c3.32,21-1.43,40.23-14,57.45-1.88,2.57-4,3.2-6,1.94-2.25-1.37-2.58-4-.66-6.64a69.46,69.46,0,0,0,11.89-25.91c8.86-38.59-18.38-77.58-57.59-82.39-36.81-4.52-69.64,19.59-76.26,56-6.74,37,19.7,73.66,56.95,78.94,18.17,2.58,34.8-1.29,49.83-11.84,1.93-1.35,3.83-2.28,6-.77,2.46,1.7,2.15,5-.66,7.07a72.83,72.83,0,0,1-30.1,13.09C173.2,185.12,168.18,185.47,163.2,186.06Z"/><path class="cls-4" d="M125.4,79.63c-2.65,0-5,0-7.39,0-2.81-.06-4.52-1.61-4.56-4s1.69-4.09,4.43-4.16a41.53,41.53,0,0,1,8.2.11,11.23,11.23,0,0,1,5.61,2.82,4.7,4.7,0,0,0,3.72,1.55q30.26,0,60.53,0c7.26,0,10.28,3.57,9.17,10.76q-2.31,15-4.57,30c-.86,5.65-3.88,8.28-9.67,8.29q-24.37,0-48.75,0c-5.29,0-7.87-2.21-8.9-7.37q-3.56-17.7-7.13-35.39C125.93,81.4,125.67,80.62,125.4,79.63Zm9.51,4.65c2.2,10.91,4.36,21.6,6.5,32.23h50.81c1.67-10.84,3.3-21.45,5-32.23Z"/><path class="cls-5" d="M182.84,155.92a12.4,12.4,0,1,1,12.43-12.19A12.37,12.37,0,0,1,182.84,155.92ZM187,143.56a4.13,4.13,0,0,0-4.13-4.2,4.2,4.2,0,0,0-4.2,4.16,4.15,4.15,0,0,0,4.17,4.16A4,4,0,0,0,187,143.56Z"/><path class="cls-6" d="M151.2,155.92a12.4,12.4,0,1,1,12.59-12.4A12.42,12.42,0,0,1,151.2,155.92Zm.24-8.24a4.18,4.18,0,0,0,4.1-4.26,4.28,4.28,0,0,0-4.34-4.06,4.24,4.24,0,0,0-4.08,4.3A4.13,4.13,0,0,0,151.44,147.68Z"/></svg>