<svg xmlns="http://www.w3.org/2000/svg" xmlns:xlink="http://www.w3.org/1999/xlink" viewBox="0 0 300 300"><defs><style>.cls-1{fill:url(#_256);}.cls-2{fill:url(#_256-2);}.cls-3{fill:url(#_256-3);}.cls-4{fill:url(#_256-4);}.cls-5{fill:url(#_256-5);}.cls-6{fill:url(#_256-6);}.cls-7{fill:url(#_256-7);}.cls-8{fill:url(#_256-8);}.cls-9{fill:url(#_256-9);}.cls-10{fill:url(#_256-10);}.cls-11{fill:url(#_256-11);}</style><linearGradient id="_256" x1="50.7" y1="144.41" x2="249.3" y2="144.41" gradientUnits="userSpaceOnUse"><stop offset="0" stop-color="#00ffe3"/><stop offset="0.17" stop-color="#08f3e3"/><stop offset="0.46" stop-color="#1fd3e2"/><stop offset="0.86" stop-color="#43a0e0"/><stop offset="0.97" stop-color="#4e90e0"/></linearGradient><linearGradient id="_256-2" x1="97.35" y1="154.92" x2="202.6" y2="154.92" xlink:href="#_256"/><linearGradient id="_256-3" x1="113.97" y1="204.42" x2="186.11" y2="204.42" xlink:href="#_256"/><linearGradient id="_256-4" x1="168.27" y1="102.38" x2="219.12" y2="102.38" xlink:href="#_256"/><linearGradient id="_256-5" x1="62.81" y1="84.36" x2="80.77" y2="84.36" xlink:href="#_256"/><linearGradient id="_256-6" x1="110.94" y1="84.36" x2="128.9" y2="84.36" xlink:href="#_256"/><linearGradient id="_256-7" x1="86.89" y1="84.36" x2="104.83" y2="84.36" xlink:href="#_256"/><linearGradient id="_256-8" x1="222.25" y1="102.37" x2="237.18" y2="102.37" xlink:href="#_256"/><linearGradient id="_256-9" x1="136.42" y1="159.44" x2="178.56" y2="159.44" xlink:href="#_256"/><linearGradient id="_256-10" x1="111.88" y1="153.41" x2="169.53" y2="153.41" xlink:href="#_256"/><linearGradient id="_256-11" x1="181.39" y1="163.92" x2="191.1" y2="163.92" xlink:href="#_256"/></defs><g id="Camada_2" data-name="Camada 2"><path class="cls-1" d="M150,225.46H67.11c-10.1,0-16.4-6.22-16.4-16.27q0-64.78,0-129.57c0-10.05,6.29-16.27,16.4-16.27H232.88c10.12,0,16.41,6.21,16.41,16.27q0,64.79,0,129.57c0,10.05-6.29,16.27-16.41,16.27ZM56.89,105.39c0,.9-.11,1.45-.11,2q0,51.16,0,102.35c0,6.05,3.72,9.74,9.78,9.74q83.42,0,166.84,0c6.07,0,9.81-3.67,9.81-9.7q0-65.43,0-130.85c0-5.92-3.75-9.61-9.68-9.61q-83.53,0-167,0c-6,0-9.65,3.68-9.69,9.6-.06,6.26,0,12.52,0,18.79,0,.47.08.94.13,1.62H157a12.42,12.42,0,0,1,2.73.18,2.93,2.93,0,0,1-.14,5.72,13.29,13.29,0,0,1-2.53.13H56.89Z"/><path class="cls-2" d="M150.07,195.46c-13.74,0-27.48,0-41.22,0a4.75,4.75,0,0,1-4.7-2.76c-18-32,1.53-72.11,38-77.78a52.62,52.62,0,0,1,53.79,77.66,5,5,0,0,1-5.06,2.89C177.27,195.41,163.67,195.46,150.07,195.46Zm-.06-6c13,0,25.94,0,38.91,0a2.62,2.62,0,0,0,2.74-1.69,45.35,45.35,0,0,0,4.28-28.7c-4.63-25.81-28.33-42.32-54.25-38-30.25,5.09-47.37,39.17-33.45,66.51a2.93,2.93,0,0,0,3.08,1.84C124.22,189.45,137.12,189.48,150,189.48Z"/><path class="cls-3" d="M150,201.43c10.7,0,21.41,0,32.11,0a5.09,5.09,0,0,1,3.21,1.12c1.63,1.51.62,4.28-1.6,4.72a11.29,11.29,0,0,1-2.1.09H118.43a13.41,13.41,0,0,1-1.9-.06,2.68,2.68,0,0,1-2.54-2.63,2.78,2.78,0,0,1,2.21-3.14,7.64,7.64,0,0,1,2.09-.14Z"/><path class="cls-4" d="M193.43,105.39h-20.9c-.77,0-1.74.16-2.26-.23-.87-.65-2-1.67-2-2.54s.95-2.14,1.77-2.93c.44-.42,1.46-.32,2.23-.32q21.31,0,42.64,0a8,8,0,0,1,2.08.21c1.49.41,2.42,1.58,2,3a5.64,5.64,0,0,1-2.24,2.65c-.52.39-1.49.2-2.26.2Z"/><path class="cls-5" d="M80.77,84.38a9,9,0,1,1-9-9A8.93,8.93,0,0,1,80.77,84.38Zm-9-2.95a2.94,2.94,0,0,0-2.93,2.95,3.06,3.06,0,0,0,2.94,3,3,3,0,0,0,3-3.1A2.88,2.88,0,0,0,71.73,81.43Z"/><path class="cls-6" d="M128.9,84.31a9,9,0,1,1-9-8.94A8.93,8.93,0,0,1,128.9,84.31Zm-6,0a3,3,0,0,0-3-2.92,2.86,2.86,0,0,0-3,2.85,3,3,0,0,0,3,3.08A3.06,3.06,0,0,0,122.91,84.35Z"/><path class="cls-7" d="M104.83,84.29a9,9,0,1,1-9-8.92A8.93,8.93,0,0,1,104.83,84.29Zm-6,.07a3,3,0,0,0-5.94-.08,3,3,0,1,0,5.94.08Z"/><path class="cls-8" d="M229.64,99.36c1.48,0,3-.08,4.44,0a3,3,0,0,1,3.1,3c0,1.73-1.18,2.89-3.18,2.94-2.88.08-5.77.09-8.66,0a2.87,2.87,0,0,1-3.09-3c0-1.71,1.19-2.86,3.17-3C226.82,99.29,228.24,99.35,229.64,99.36Z"/><path class="cls-9" d="M145.39,180.39c-1.83,0-3.67,0-5.5,0-2.31-.06-3.38-1.09-3.41-3.36,0-3.72-.14-7.46.06-11.17a4.56,4.56,0,0,1,1.68-3.12c11.71-7.92,23.51-15.73,35.29-23.56,1.46-1,2.92-1.13,4.2.2s1,2.68.12,4.05C170,155.19,162.16,167,154.21,178.66a4.89,4.89,0,0,1-3.12,1.66A40.12,40.12,0,0,1,145.39,180.39ZM164,153.24l-.36-.3c-6.73,4.47-13.46,8.93-20.17,13.44a2.28,2.28,0,0,0-1,1.43c-.11,2.14-.05,4.3-.05,6.61,2.17,0,4.07.12,5.94-.06a3.51,3.51,0,0,0,2.32-1.26c3.64-5.25,7.15-10.59,10.7-15.9Q162.73,155.22,164,153.24Z"/><path class="cls-10" d="M112.38,165.38c.06-27.61,28.24-46.51,53.86-36.13a11.24,11.24,0,0,1,1.72.8,2.79,2.79,0,0,1,1.27,3.8,2.82,2.82,0,0,1-3.49,1.65,8.93,8.93,0,0,1-1.39-.51c-21.66-8.76-44.89,6-45.83,29.29-.15,3.85,1,7.77,1.67,11.61.33,1.77.36,3.25-1.38,4.18a2.88,2.88,0,0,1-4.26-2.08c-1-4.13-1.8-8.33-2.67-12.51Z"/><path class="cls-11" d="M191.1,165.51c-.83,4-1.55,8.1-2.53,12.1-.58,2.36-2.17,3.22-4,2.64-1.68-.54-2.37-2.2-1.68-4.35a33.2,33.2,0,0,0-1.1-23.86c-.87-2-.25-3.67,1.49-4.38s3.12,0,4,2A49.75,49.75,0,0,1,191.1,165.51Z"/></g></svg>