<svg id="Camada_1" data-name="Camada 1" xmlns="http://www.w3.org/2000/svg" xmlns:xlink="http://www.w3.org/1999/xlink" viewBox="0 0 300 300"><defs><style>.cls-1{fill:url(#Gradiente_sem_nome);}.cls-2{fill:url(#Gradiente_sem_nome-2);}.cls-3{fill:url(#Gradiente_sem_nome-3);}.cls-4{fill:url(#Gradiente_sem_nome-4);}.cls-5{fill:url(#Gradiente_sem_nome-5);}</style><linearGradient id="Gradiente_sem_nome" x1="146.04" y1="19.26" x2="146.04" y2="280.27" gradientUnits="userSpaceOnUse"><stop offset="0" stop-color="#00ffe3"/><stop offset="0.17" stop-color="#08f3e3"/><stop offset="0.46" stop-color="#1fd3e2"/><stop offset="0.86" stop-color="#43a0e0"/><stop offset="0.97" stop-color="#4e90e0"/></linearGradient><linearGradient id="Gradiente_sem_nome-2" x1="148.66" y1="174.37" x2="148.66" y2="202.9" xlink:href="#Gradiente_sem_nome"/><linearGradient id="Gradiente_sem_nome-3" x1="97.9" y1="63.11" x2="97.9" y2="108.83" xlink:href="#Gradiente_sem_nome"/><linearGradient id="Gradiente_sem_nome-4" x1="82.43" y1="217.23" x2="82.43" y2="261.95" xlink:href="#Gradiente_sem_nome"/><linearGradient id="Gradiente_sem_nome-5" x1="209.71" y1="217.23" x2="209.71" y2="261.96" xlink:href="#Gradiente_sem_nome"/></defs><path class="cls-1" d="M286.32,144.3c-2.24,6.12-6.61,8.42-13.11,8.36-24.46-.2-48.93,0-73.4-.13-2.16,0-3.35.53-4,2.63a40.1,40.1,0,0,1-2.34,5.24c-1.26,2.59-3.3,3.51-5.51,2.57s-3.14-3.22-1.92-6q7.22-16.23,14.54-32.43c2.42-5.41,4.84-10.82,7.31-16.2,3-6.49,2.15-12.4-2.5-17.79-2-2.35-4-4.74-6-7.1-2.56-3-3.82-2.93-6,.4q-22.18,33.89-44.38,67.77-17.69,27-35.38,54c-.6.91-1.18,1.83-2,3l16.49,10.83a10,10,0,0,0,1-1c4.29-6.34,10.3-9,17.86-8.35,6.07.53,11.5-1.08,15.77-5.41a28.57,28.57,0,0,0,5.18-7.6c3.37-7,6.31-14.16,9.66-21.14a6.3,6.3,0,0,1,3.61-3.19c3.28-.79,5.48,2.51,4.06,5.91-1.61,3.87-3.47,7.63-5.09,11.5a3.46,3.46,0,0,0,0,2.7c2.28,3.73,4.74,7.35,6.93,10.68,4.61-1.43,8.91-3.38,13.39-4,14.23-2.1,25.85,2.79,34.46,14.35,3,4,5.66,8.28,8.26,12.57a35.4,35.4,0,0,1-10.91,48c-16,10.41-37.52,6.45-48.32-9.33-9.22-13.47-18.43-27-26.74-41-4.31-7.29-17.84-7.64-22.32,0-8,13.76-17.18,26.9-26.08,40.15A35.41,35.41,0,0,1,49,226.47q3.86-6.3,8.08-12.37a35.43,35.43,0,0,1,45-11.3l2.67,1.34c2.51-3.84,5.06-7.6,7.41-11.47A3.51,3.51,0,0,0,112,190c-5.18-11.66-10.48-23.27-15.62-35a3.56,3.56,0,0,0-3.86-2.48c-24.65.08-49.3-.14-73.94.16-8.42.1-12.83-5.42-12.79-12.77.23-36.06.11-72.12.11-108.18,0-8.41,4-12.4,12.38-12.4q127.49,0,255-.08c6.5,0,10.87,2.23,13.11,8.36ZM141.8,120.67V51.45H48.23V120.7c2,0,3.82-.08,5.63,0a4.06,4.06,0,0,1,.32,8.1,14.28,14.28,0,0,1-2.45.07H14.07v10.65c0,4.69.14,4.82,4.73,4.82H131.32c4.18,0,9.05,1.15,12.35-.6s4.78-6.42,7.05-9.82c1-1.55,2-3.13,3.25-5.05H75.16a13.78,13.78,0,0,1-2.73-.09c-2.24-.45-3.63-1.83-3.53-4.18a3.83,3.83,0,0,1,3.81-3.9c.9-.09,1.82,0,2.73,0H141.8Zm8.59-69.28v69.28a47.2,47.2,0,0,1,5.85,0c2.48.33,3.74-.8,5-2.76q12.85-19.87,25.92-39.62c4.32-6.53,12.22-7.06,17.46-1.27,2.08,2.3,4,4.78,6.05,7.07,7.87,8.68,9.29,18.24,4.13,28.79-1.19,2.43-2.19,4.94-3.33,7.54h32.67V81.68c0-1-.05-2,0-3a4.08,4.08,0,0,1,8.16,0c.07.72,0,1.46,0,2.19v39.62h25.5v-69h-25.5c0,2.54,0,4.9,0,7.25,0,3.15-1.66,5.07-4.17,5s-4-1.92-4-4.9c0-2.43,0-4.87,0-7.4Zm127.71-8.5V32.67c0-5.08,0-5.12-5-5.12H19c-.82,0-1.8-.27-2.43.09-1,.54-2.35,1.48-2.4,2.32-.24,4.25-.11,8.52-.11,12.93ZM124,226.4c-9.22-5.76-17.9-12.08-27.35-16.87-11.21-5.67-25-1.48-32.42,8.72-3,4.2-5.89,8.57-8.51,13.05A27,27,0,0,0,64,267.35c11.54,7.91,28,5.8,36.34-5.56S116,238.49,124,226.4Zm44.34.11c7.67,11.65,14.92,23.14,22.68,34.28,8.27,11.88,24.64,14.71,36.75,6.82a27,27,0,0,0,8.82-36.12,138.27,138.27,0,0,0-9-13.71c-7.86-10.5-22.73-13.88-34.1-7.38C184.94,215.28,176.89,221,168.32,226.51ZM14.22,51.39v69.09h25.4V51.39Zm263.87,77.83a3.06,3.06,0,0,0-.59-.24q-34.18,0-68.38,0a2.25,2.25,0,0,0-1.77.79c-2.24,4.74-4.36,9.55-6.6,14.52,1,0,1.62.12,2.24.12h71.4c.36,0,.86.15,1.07,0,.92-.79,2.45-1.62,2.51-2.52C278.24,137.65,278.09,133.46,278.09,129.22ZM118.16,183.65l20.25-30.94H104.28C108.89,163,113.41,173.06,118.16,183.65Zm45.79,36,16.65-10.94-5.23-7.95a29.79,29.79,0,0,1-14.21,15Z"/><path class="cls-2" d="M148.53,174.37a14.27,14.27,0,1,1-14.16,14.33A14.15,14.15,0,0,1,148.53,174.37Zm-5.91,14.24a6,6,0,0,0,6.07,6.06,6.19,6.19,0,0,0,6-6.2,6.05,6.05,0,0,0-6-5.87A5.93,5.93,0,0,0,142.62,188.61Z"/><path class="cls-3" d="M76.85,85.85c0-4.38-.08-8.76,0-13.14.17-8,7.26-12,14.2-8.08q11.43,6.45,22.74,13.12c6.86,4,6.89,12.33.06,16.38q-11.41,6.77-23,13.27c-6.78,3.8-13.85-.34-14-8.13C76.76,94.8,76.85,90.32,76.85,85.85Zm33.89.62v-1L85.35,70.81v30.31Z"/><path class="cls-4" d="M61.61,244.53c1-2.8,1.57-5.79,3-8.34a117.07,117.07,0,0,1,7.74-11.9,17.08,17.08,0,0,1,28.58,18.63c-2.44,4.16-5.12,8.19-8,12.1a16.78,16.78,0,0,1-19.23,6C66.68,258.57,62.18,252.22,61.61,244.53Zm24.15-19.08A8.59,8.59,0,0,0,79,229.06c-2.58,3.75-5.13,7.53-7.45,11.44a8.84,8.84,0,0,0,14.63,9.85,107.85,107.85,0,0,0,7.77-11.89C97.18,232.57,92.68,225.4,85.76,225.45Z"/><path class="cls-5" d="M230.53,244.67c-.58,7.54-5,13.83-11.92,16.28a16.66,16.66,0,0,1-18.94-5.4,109.89,109.89,0,0,1-8.81-13.48c-4.26-7.8-1.39-17.43,6.21-22.23a16.85,16.85,0,0,1,22.5,4.11,118,118,0,0,1,8.19,12.59C229.13,239,229.64,241.94,230.53,244.67Zm-8.76-.72a9.13,9.13,0,0,0-.84-2.91c-2.64-4.26-5.24-8.57-8.26-12.54-2.73-3.58-7.89-4-11.61-1.44a8.59,8.59,0,0,0-2.85,11.35,131.77,131.77,0,0,0,7.93,12.1,8.51,8.51,0,0,0,9.87,2.67C219.57,251.87,221.79,248.6,221.77,244Z"/></svg>