<svg id="Camada_1" data-name="Camada 1" xmlns="http://www.w3.org/2000/svg" xmlns:xlink="http://www.w3.org/1999/xlink" viewBox="0 0 300 300"><defs><style>.cls-1{fill:url(#Gradiente_sem_nome);}.cls-2{fill:url(#Gradiente_sem_nome-2);}.cls-3{fill:url(#Gradiente_sem_nome-3);}.cls-4{fill:url(#Gradiente_sem_nome-4);}.cls-5{fill:url(#Gradiente_sem_nome-5);}.cls-6{fill:url(#Gradiente_sem_nome-6);}</style><linearGradient id="Gradiente_sem_nome" x1="39.76" y1="154.37" x2="245.08" y2="154.37" gradientUnits="userSpaceOnUse"><stop offset="0" stop-color="#00ffe3"/><stop offset="0.17" stop-color="#08f3e3"/><stop offset="0.46" stop-color="#1fd3e2"/><stop offset="0.86" stop-color="#43a0e0"/><stop offset="0.97" stop-color="#4e90e0"/></linearGradient><linearGradient id="Gradiente_sem_nome-2" x1="74.03" y1="156.52" x2="180.77" y2="156.52" xlink:href="#Gradiente_sem_nome"/><linearGradient id="Gradiente_sem_nome-3" x1="160" y1="197.34" x2="176.31" y2="197.34" xlink:href="#Gradiente_sem_nome"/><linearGradient id="Gradiente_sem_nome-4" x1="155.69" y1="34.31" x2="180.64" y2="34.31" xlink:href="#Gradiente_sem_nome"/><linearGradient id="Gradiente_sem_nome-5" x1="138.53" y1="34.32" x2="146.32" y2="34.32" xlink:href="#Gradiente_sem_nome"/><linearGradient id="Gradiente_sem_nome-6" x1="78.5" y1="274.43" x2="94.84" y2="274.43" xlink:href="#Gradiente_sem_nome"/></defs><path class="cls-1" d="M54.16,291.28c-5.33-1.48-10.07-3.93-12.33-9.27a23.31,23.31,0,0,1-2-8.73q-.2-58.83-.07-117.65c0-11.08,7.08-18,18.34-18.13,10.07-.07,20.15-.1,30.22,0,2.44,0,2.92-.73,2.91-3q-.11-49.2-.06-98.4c0-7.46,2.64-13.5,9.59-16.81A19.93,19.93,0,0,1,109,17.54q59.1-.16,118.2-.06c10.61,0,17.8,7.17,17.81,17.83q.06,80.47,0,161c0,10.91-7.34,17.85-18.63,17.86q-44.53,0-89.06,0c-4.3,0-3.83-.57-3.84,3.85q0,26.07,0,52.14c0,12.69-2.49,16.42-14.1,21.14ZM48.05,154.69h53.39c4.48,0,6.28,1.15,6.27,4s-1.83,4-6.29,4c-16.85,0-33.7,0-50.55,0-2.31,0-3.17.44-3.17,3q.16,44.52,0,89c0,2.36.58,2.95,2.94,2.94q35.84-.13,71.67,0c2.52,0,3.29-.54,3.28-3.18-.11-25.31-.07-50.63-.06-75.94a18.88,18.88,0,0,1,.24-3.45,3.85,3.85,0,0,1,7.59.17,20.4,20.4,0,0,1,.14,2.93c0,8.29.12,16.58-.06,24.86-.06,2.67.81,3.2,3.31,3.19q44.67-.12,89.32-.05c.71,0,1.43,0,2.14,0,5.28-.39,8.68-3.92,8.84-9.21.06-1.78-.16-3.59.06-5.34.33-2.65-.7-3.22-3.23-3.21q-42.39.13-84.78,0c-4.4,0-6.27-1.21-6.27-4s1.77-3.95,6.27-3.95q42.52,0,85,0c2.31,0,3-.53,3-2.93q-.12-61.77,0-123.53c0-2.41-.66-2.92-3-2.91-25.14.08-50.28,0-75.41,0q-28.48,0-57,0c-1.57,0-2.65,0-2.65,2.15q.12,41,0,82.09c0,1.66.59,2.15,2.18,2.12q7.22-.1,14.44,0c3.21.05,4.87,1.58,4.78,4.15s-1.66,3.7-4.83,3.79c-.8,0-1.6,0-2.4,0q-27.15,0-54.29,0a24.11,24.11,0,0,0-4.25.31C50.68,146.56,47.91,150.15,48.05,154.69ZM168.1,43.16h62.27c6.71,0,6.71,0,6.71-6.8,0-7.64-3.26-10.9-10.88-10.9h-116c-.71,0-1.43,0-2.14,0a8.73,8.73,0,0,0-8.68,7.86c-.28,2.28,0,4.63-.23,6.92s.56,3,2.93,3C124.09,43.13,146.1,43.16,168.1,43.16ZM86.53,265.57c-12.13,0-24.25,0-36.38,0-1.81,0-2.57.41-2.42,2.34.17,2.13,0,4.28.06,6.42a8.9,8.9,0,0,0,9.05,9c2.49.07,5,0,7.48,0q25.68,0,51.35,0c6.29,0,9.74-3.45,9.86-9.73,0-1.78-.13-3.58,0-5.35.2-2.11-.57-2.68-2.67-2.66C110.77,265.62,98.65,265.57,86.53,265.57Z"/><path class="cls-2" d="M88.89,201.87c3.11,0,6.49,0,9.87,0,3,0,4.68,1.48,4.67,3.94s-1.65,4-4.68,4q-9.9.12-19.79,0c-3.37,0-4.85-1.58-4.88-5q-.09-9.75,0-19.51c0-3.18,1.59-4.87,4.14-4.81S82,182.19,82,185.29c0,3.36,0,6.73,0,9.67l83.82-83.81h-3.06c-2.5,0-5,0-7.49-.05-2.25-.09-3.71-1.26-3.87-3.59s1.2-3.79,3.53-4.22a10.51,10.51,0,0,1,1.86-.12c6.15,0,12.3,0,18.45,0,4,0,5.41,1.4,5.45,5.25.06,6.32,0,12.65,0,19a10.47,10.47,0,0,1-.2,1.85,3.6,3.6,0,0,1-4.17,3.23,3.49,3.49,0,0,1-3.52-3.64c-.1-3.71,0-7.42,0-10.91Q130.79,160,88.89,201.87Z"/><path class="cls-3" d="M168,201.39a46.45,46.45,0,0,1-5-.42,3.46,3.46,0,0,1-2.95-4.08,3.41,3.41,0,0,1,3.37-3.47,95.46,95.46,0,0,1,9.57,0,3.42,3.42,0,0,1,3.34,3.51,3.49,3.49,0,0,1-3,4A51.33,51.33,0,0,1,168,201.39Z"/><path class="cls-4" d="M167.83,38.31c-2.58,0-5.16,0-7.74,0-2.73-.07-4.39-1.62-4.4-4s1.64-4,4.38-4q8.13-.12,16.27,0c2.7,0,4.37,1.77,4.3,4.1s-1.7,3.76-4.27,3.84C173.52,38.37,170.68,38.31,167.83,38.31Z"/><path class="cls-5" d="M138.53,34.33a3.9,3.9,0,1,1,7.79.13,3.9,3.9,0,0,1-3.95,3.81A4,4,0,0,1,138.53,34.33Z"/><path class="cls-6" d="M86.61,270.44c1.42,0,2.84-.09,4.26,0,2.33.17,3.87,1.36,4,3.82a3.62,3.62,0,0,1-3.68,4.05,70.08,70.08,0,0,1-9.05,0,3.63,3.63,0,0,1-3.6-3.89,3.76,3.76,0,0,1,3.84-4c1.42-.1,2.84,0,4.27,0Z"/></svg>