<svg id="Camada_1" data-name="Camada 1" xmlns="http://www.w3.org/2000/svg" xmlns:xlink="http://www.w3.org/1999/xlink" viewBox="0 0 300 300"><defs><style>.cls-1{fill:url(#_256);}.cls-2{fill:url(#_256-2);}.cls-3{fill:url(#_256-3);}.cls-4{fill:url(#_256-4);}.cls-5{fill:url(#_256-5);}.cls-6{fill:url(#_256-6);}.cls-7{fill:url(#_256-7);}.cls-8{fill:url(#_256-8);}.cls-9{fill:url(#_256-9);}.cls-10{fill:url(#_256-10);}.cls-11{fill:url(#_256-11);}</style><linearGradient id="_256" x1="5.66" y1="166.64" x2="294.34" y2="166.64" gradientUnits="userSpaceOnUse"><stop offset="0" stop-color="#00ffe3"/><stop offset="0.17" stop-color="#08f3e3"/><stop offset="0.46" stop-color="#1fd3e2"/><stop offset="0.86" stop-color="#43a0e0"/><stop offset="0.97" stop-color="#4e90e0"/></linearGradient><linearGradient id="_256-2" x1="22.85" y1="130.43" x2="101.52" y2="130.43" xlink:href="#_256"/><linearGradient id="_256-3" x1="27.24" y1="188.43" x2="89.71" y2="188.43" xlink:href="#_256"/><linearGradient id="_256-4" x1="27.24" y1="206.04" x2="52.03" y2="206.04" xlink:href="#_256"/><linearGradient id="_256-5" x1="28.75" y1="59.58" x2="40.55" y2="59.58" xlink:href="#_256"/><linearGradient id="_256-6" x1="51.31" y1="59.58" x2="63.11" y2="59.58" xlink:href="#_256"/><linearGradient id="_256-7" x1="73.86" y1="59.58" x2="85.66" y2="59.58" xlink:href="#_256"/><linearGradient id="_256-8" x1="116.89" y1="187.41" x2="251.38" y2="187.41" xlink:href="#_256"/><linearGradient id="_256-9" x1="196.16" y1="187.5" x2="236.8" y2="187.5" xlink:href="#_256"/><linearGradient id="_256-10" x1="131.81" y1="187.5" x2="161.01" y2="187.5" xlink:href="#_256"/><linearGradient id="_256-11" x1="168.55" y1="187.51" x2="190.23" y2="187.51" xlink:href="#_256"/></defs><path class="cls-1" d="M294.34,286.16c-1.26,2.49-2.11,5.32-3.85,7.4-6.73,8.07-19.75,6.65-24.78-2.62a6.07,6.07,0,0,0-3.87-3,18.37,18.37,0,0,1-6.41-3.79c-8.1-7.83-16-15.88-24-23.87a23.34,23.34,0,0,1-1.63-2c-5.31,2.53-10.08,5.15-15.1,7.13a83.6,83.6,0,0,1-103.41-36.64,4.24,4.24,0,0,0-4.34-2.56q-42,.1-84,.05c-11.39,0-17.31-6-17.31-17.41q0-79.2,0-158.42c0-7.73,4.17-13.58,11.1-15.41a23.42,23.42,0,0,1,5.86-.58c15,0,30.07,0,45.1,0a15.49,15.49,0,0,1,2.81.16,3.72,3.72,0,0,1,3.31,4.19,3.78,3.78,0,0,1-3.51,3.77,16.53,16.53,0,0,1-2.54.05H23c-6.85,0-9,2.22-9.06,9.16V73.89h241.3a6.58,6.58,0,0,0,.21-1.12c0-7.61.06-15.22,0-22.83,0-4.31-2.7-7-7-7.28-.93-.06-1.88,0-2.82,0H93.14c-4.47,0-6.36-1.24-6.32-4.14s1.85-4,6.17-4q76.82,0,153.64,0a23.88,23.88,0,0,1,5.86.55c6.91,1.77,11.21,7.63,11.23,15.35q.06,36.49,0,73c0,3.41-1.49,5.34-4,5.42s-4.23-1.94-4.23-5.47q0-18.89,0-37.78V82.37H13.92V85.5q0,61.88,0,123.75c0,6.53,2.25,8.73,8.84,8.73H106c-8.51-24.14-7.53-47.56,4.42-70.12a82.06,82.06,0,0,1,37.15-35.74c31.65-15.63,70-9,95.63,15.85C267.33,151.48,278.78,196,254,234.22c5.48,5.4,11,10.87,16.55,16.34,3.13,3.11,6.46,6.07,9.28,9.44,1.74,2.07,2.68,4.81,4,7.24.37.69.58,1.76,1.15,2,5,2.21,7.75,6.28,9.39,11.28Zm-34.7-98.75a75.47,75.47,0,1,0-75.25,75.64A75.44,75.44,0,0,0,259.64,187.41ZM237,253.93l-.69-.63a3.32,3.32,0,0,0,.44.7c8.23,8.25,16.42,16.53,24.76,24.66a6.28,6.28,0,0,0,4,1.31c3.84,0,5.39,1,6.47,4.79s4,6.13,7.52,5.83a7,7,0,0,0,6.45-6.36c.35-3.9-1.7-6.61-5.82-7.72-3.55-1-4.57-2.66-4.66-6.31a8,8,0,0,0-1.79-4.68c-2.71-3.11-5.78-5.91-8.7-8.83l-15.83-15.86Z"/><path class="cls-2" d="M61.9,169.77c-21.85-.27-39.42-18.18-39-39.8A39.37,39.37,0,0,1,63.06,91.08c21.54.26,38.76,18.33,38.45,40.34C101.21,152.57,83.17,170,61.9,169.77ZM58,134.66H48.74C48,143.1,53.16,156.74,58,159.25Zm0-33.88c-7,7.56-8.63,16.22-9.51,25.35h9.51Zm18,33.89H66.6v25.24C73.46,152.39,75.05,143.79,76,134.67Zm0-8.57C75,117,73.5,108.31,66.55,101V126.1Zm-44.25,8.55c-.06,7.46,7.06,18.73,12.66,20.89-1.54-6.71-3.16-13.77-4.8-20.89Zm53.15,0L80,155.94a31,31,0,0,0,13-21.28Zm-4.92-29.77c1.61,7,3.24,14,4.91,21.22H93A30.84,30.84,0,0,0,79.92,104.89ZM39.53,126.13c1.69-7.24,3.33-14.29,5-21.31a30.87,30.87,0,0,0-13.06,21.31Z"/><path class="cls-3" d="M58.47,192.57q-12.94,0-25.9,0c-3.36,0-5.3-1.52-5.33-4.08s1.93-4.16,5.26-4.17q26,0,52.07,0c3.41,0,5.2,1.56,5.13,4.24s-1.9,4-5.34,4Q71.42,192.59,58.47,192.57Z"/><path class="cls-4" d="M39.68,210.1c-2.73,0-5.45.07-8.18,0a4.08,4.08,0,0,1-4.25-4A4,4,0,0,1,31.36,202c5.54-.09,11.09-.1,16.63,0a3.8,3.8,0,0,1,4,4.09c0,2.36-1.57,3.89-4.18,4S42.4,210.1,39.68,210.1Z"/><path class="cls-5" d="M34.49,53.7a5.88,5.88,0,0,1,6.06,5.72,6,6,0,0,1-5.8,6,5.87,5.87,0,0,1-6-5.77A5.76,5.76,0,0,1,34.49,53.7Z"/><path class="cls-6" d="M51.31,59.63A5.76,5.76,0,0,1,57.1,53.7a5.89,5.89,0,0,1,6,5.77,6,6,0,0,1-5.85,6A5.87,5.87,0,0,1,51.31,59.63Z"/><path class="cls-7" d="M79.63,53.7a5.89,5.89,0,0,1,6,5.75,6,6,0,0,1-5.83,6,5.87,5.87,0,0,1-6-5.8A5.76,5.76,0,0,1,79.63,53.7Z"/><path class="cls-8" d="M116.89,187.45C117,148,151,117,190.13,120.51a67.3,67.3,0,0,1,61.24,66.22c.55,36.74-29.49,67.72-65.91,67.86a7,7,0,0,1-4.44-1.65,3.87,3.87,0,0,1-.48-3.77,6.54,6.54,0,0,1,3.89-2.54c6-1.21,12.39-1.39,18.21-3.24,25.9-8.24,42.32-33.26,40.32-60.65-2-26.77-22.49-49-49.24-53.42C156,123.15,122.1,153.9,125.4,191.93c2.12,24.47,15.31,41.36,38,50.81.43.18.88.32,1.31.5,2.75,1.13,3.93,3.17,3.12,5.43s-3.12,3.24-6.09,2.21a65.17,65.17,0,0,1-25.23-16C123.56,221.74,117.17,205.84,116.89,187.45Z"/><path class="cls-9" d="M196.16,187.31a20.32,20.32,0,1,1,20,20.5A20.26,20.26,0,0,1,196.16,187.31Zm32.34.18a12,12,0,0,0-11.93-12.06,12.08,12.08,0,1,0-.26,24.16A12,12,0,0,0,228.5,187.49Z"/><path class="cls-10" d="M145.71,207.81a18.66,18.66,0,0,1-12.4-5.66c-1.87-1.88-2-4.35-.41-6s3.94-1.8,6,.08a11.36,11.36,0,0,0,9.23,3.27c2.2-.23,4.16-1.17,4.57-3.5s-1.57-3.22-3.3-4c-3-1.31-6.06-2.49-9.11-3.72a9.83,9.83,0,0,1-6.61-8.67,10.52,10.52,0,0,1,5.12-10.27c5.58-3.66,15.3-2.51,19.89,2.32a3.79,3.79,0,0,1,.42,5.35c-1.48,1.93-3.35,1.89-5.54,1a29.75,29.75,0,0,0-7.87-2.34c-1.16-.12-3.11,1.38-3.65,2.6-.82,1.86,1.25,2.36,2.6,2.92,2.42,1,4.88,1.92,7.3,2.92C158.83,187,162,192,160.74,198,159.54,203.71,153.75,207.85,145.71,207.81Z"/><path class="cls-11" d="M176.91,175.58v7.87c2.71,0,5.22,0,7.74,0,2.88.06,4.71,1.73,4.64,4.15s-1.82,3.87-4.57,3.95c-2.52.07-5,0-7.78,0v7.87c2.69,0,5.37,0,8.05,0,3.36,0,5.25,1.56,5.24,4.16s-1.9,4.12-5.27,4.14c-3.85,0-7.7.06-11.55,0-3.34,0-4.83-1.54-4.84-4.85q0-15.36,0-30.72c0-3.34,1.47-4.82,4.8-4.87,4-.07,8.08-.06,12.12,0,2.94,0,4.71,1.63,4.74,4.08s-1.72,4.11-4.64,4.19S180,175.58,176.91,175.58Z"/></svg>