<svg id="Camada_1" data-name="Camada 1" xmlns="http://www.w3.org/2000/svg" xmlns:xlink="http://www.w3.org/1999/xlink" viewBox="0 0 300 300"><defs><style>.cls-1{fill:url(#Gradiente_sem_nome);}.cls-2{fill:url(#Gradiente_sem_nome-2);}.cls-3{fill:url(#Gradiente_sem_nome_32);}.cls-4{fill:url(#Gradiente_sem_nome_32-2);}.cls-5{fill:url(#Gradiente_sem_nome_32-3);}.cls-6{fill:url(#Gradiente_sem_nome-3);}.cls-7{fill:url(#Gradiente_sem_nome-4);}.cls-8{fill:url(#Gradiente_sem_nome-5);}.cls-9{fill:url(#Gradiente_sem_nome-6);}.cls-10{fill:url(#Gradiente_sem_nome-7);}.cls-11{fill:url(#Gradiente_sem_nome-8);}</style><linearGradient id="Gradiente_sem_nome" x1="174.73" y1="107.36" x2="174.73" y2="289.94" gradientUnits="userSpaceOnUse"><stop offset="0" stop-color="#00ffe3"/><stop offset="0.17" stop-color="#08f3e3"/><stop offset="0.46" stop-color="#1fd3e2"/><stop offset="0.86" stop-color="#43a0e0"/><stop offset="0.97" stop-color="#4e90e0"/></linearGradient><linearGradient id="Gradiente_sem_nome-2" x1="151.4" y1="32.54" x2="151.4" y2="186.07" xlink:href="#Gradiente_sem_nome"/><linearGradient id="Gradiente_sem_nome_32" x1="145.3" y1="22.1" x2="132.68" y2="22.1" gradientUnits="userSpaceOnUse"><stop offset="0" stop-color="#00ffe3"/><stop offset="0.17" stop-color="#08f3e3"/></linearGradient><linearGradient id="Gradiente_sem_nome_32-2" x1="170.34" y1="22.11" x2="157.49" y2="22.11" xlink:href="#Gradiente_sem_nome_32"/><linearGradient id="Gradiente_sem_nome_32-3" x1="155.3" y1="16.89" x2="147.56" y2="16.89" xlink:href="#Gradiente_sem_nome_32"/><linearGradient id="Gradiente_sem_nome-3" x1="150.98" y1="201.97" x2="150.98" y2="215.49" xlink:href="#Gradiente_sem_nome"/><linearGradient id="Gradiente_sem_nome-4" x1="133.52" y1="184.57" x2="133.52" y2="193.33" xlink:href="#Gradiente_sem_nome"/><linearGradient id="Gradiente_sem_nome-5" x1="168.52" y1="184.62" x2="168.52" y2="193.33" xlink:href="#Gradiente_sem_nome"/><linearGradient id="Gradiente_sem_nome-6" x1="219.66" y1="248.94" x2="219.66" y2="273.36" xlink:href="#Gradiente_sem_nome"/><linearGradient id="Gradiente_sem_nome-7" x1="44.7" y1="134.37" x2="44.7" y2="158.43" xlink:href="#Gradiente_sem_nome"/><linearGradient id="Gradiente_sem_nome-8" x1="253.1" y1="134.89" x2="253.1" y2="174.19" xlink:href="#Gradiente_sem_nome"/></defs><path class="cls-1" d="M108.68,289.94a6.52,6.52,0,0,1-3-5.19c-.76-7.45-1.32-14.89-.31-22.38a17.19,17.19,0,0,1,8.56-13,52.35,52.35,0,0,1,14.67-5.87l1.85-.46a2.15,2.15,0,0,0,1.73-1.91c.3-2.34.51-4.69.76-7.13-.88-.43-1.63-.74-2.33-1.14-3.47-2-7.05-3.82-10.37-6-4.81-3.23-7.32-8-8.2-13.69-.15-1-.37-2-.63-3.3-1,0-2,0-3,0-9.31-.18-14.73-9.17-10.52-17.45.25-.48.51-1,.83-1.54-.49-.76-1-1.52-1.47-2.28a39.1,39.1,0,0,1-6.55-20.88c-.18-10.31,3.89-19,10.91-26.35a49.16,49.16,0,0,1,6.89-5.81,14.5,14.5,0,0,0,3.93-4.07,51.69,51.69,0,0,1,3.91-5.27c1.67-2,4.11-2.25,5.8-.81s1.75,3.68.36,5.68c-1.77,2.55-3.45,5.16-5.34,7.61a12.42,12.42,0,0,1-3.12,2.58c-7,4.52-12.17,10.51-14.41,18.63-2.55,9.24-.33,17.67,5,25.44a2.31,2.31,0,0,0,2.28,1.15c1.52-.12,3.06-.13,4.82-.2.14-1.17.23-2.14.35-3.1.32-2.44,1.3-3.53,3.71-4.09a33.34,33.34,0,0,0,3.46-.78,12.84,12.84,0,0,0,8.46-8.74c-.65-.47-1.22-.89-1.79-1.33a33.25,33.25,0,0,1-3.23-2.52,3.67,3.67,0,0,1-.44-5.18,3.74,3.74,0,0,1,5.37-.76c7,5.63,15.49,7,24,8.17a99.58,99.58,0,0,0,39.08-2.31,45.13,45.13,0,0,0,7.86-3.08,9.84,9.84,0,0,0,4.65-4.87,9.12,9.12,0,0,0,.84-2.86c.33-3.45-1.9-5.74-5.38-5.54-1.82.1-3.29-.42-4.1-2.09a3.94,3.94,0,0,1,.71-4.56c2.79-3.25,2.55-7.19-.6-10.11a14.34,14.34,0,0,0-6.25-3.25,35.22,35.22,0,0,0-22,1.35c-.59.23-1.16.53-1.76.76-2.12.81-3.84.56-5-.79a3.9,3.9,0,0,1-.38-4.82,6.72,6.72,0,0,0-2.51-9,12.05,12.05,0,0,0-8.19-1.42,40.53,40.53,0,0,0-12.77,4.71,9.34,9.34,0,0,1-3,1.15,3.5,3.5,0,0,1-3.9-2.32,3.66,3.66,0,0,1,.91-4.25,3.5,3.5,0,0,1,.64-.51c6.11-3.61,12.46-6.51,19.71-6.75A18.87,18.87,0,0,1,160.92,110a14.14,14.14,0,0,1,6.84,9.79c.09.52.22,1,.38,1.75,2.44-.38,4.75-.81,7.07-1.07a36.8,36.8,0,0,1,19,2.53c5.17,2.24,9.17,5.78,10.43,11.52.53,2.45.37,5.06.55,7.95.19.15.65.56,1.15.94,5.17,3.86,6.91,9.36,4.91,15.51a17.49,17.49,0,0,1-5.43,8.07,2.89,2.89,0,0,0-1,3.32,53.81,53.81,0,0,1,.36,22,8.63,8.63,0,0,0,.09,3.24,11.76,11.76,0,0,1-11.53,14.3c-1,0-2,0-3.15,0-.33,1.6-.66,3-.9,4.4a19.43,19.43,0,0,1-7.5,12.33,51.43,51.43,0,0,1-10.59,6.22L169,234c.29,2.46.58,4.8.85,7.14a2.1,2.1,0,0,0,1.67,1.93l9.64,2.67a11.82,11.82,0,0,0,.39-1.87c.06-1.64,0-3.28,0-4.93a6.52,6.52,0,0,1,6.48-6.44c.73,0,1.46,0,2.19,0h59.46c.91,0,1.83,0,2.74.05a6.3,6.3,0,0,1,5.71,4.74,16.72,16.72,0,0,1,.42,4.06c0,13-.09,25.93.08,38.9.05,4.44-1.06,7.86-5.36,9.71ZM181,175.79a146.78,146.78,0,0,1-23.09.72,118.94,118.94,0,0,1-22.49-3.73c-5.49,9.09-5.49,9.09-15.46,13.93a1.75,1.75,0,0,0-.23.48,106.46,106.46,0,0,0-.12,23.47,14.37,14.37,0,0,0,6.76,11,57.75,57.75,0,0,0,12.8,6.08c3.9,1.31,7.9,2.53,12,2.29A48.77,48.77,0,0,0,177,220.6a11.54,11.54,0,0,0,4.91-7.61c.29-1.61.64-3.22.77-4.85a147.19,147.19,0,0,0-.67-24.57C181.79,181.05,181.37,178.56,181,175.79Zm8.84,105.81c3.5.49,58.66.33,60.61-.18.59-4,.37-39-.26-40.87H189.82C189.21,243.25,189.25,279.39,189.83,281.6Zm-8.42.07c.07-.95.18-1.75.18-2.55,0-6.57,0-13.15,0-19.72,0-5,0-4.93-4.76-6.7a4,4,0,0,0-4.82,1c-8.43,7.84-18.36,10-29.44,7.21a28.14,28.14,0,0,1-13.09-7.62,2.82,2.82,0,0,0-3.37-.84,38,38,0,0,0-8.85,4.25,8.71,8.71,0,0,0-3.83,5.74c-1.24,6.27-.85,12.53,0,18.79,0,.15.2.28.34.48Zm-44.85-32.91c8.63,8,23.57,6.19,28.7-.22-3.75-3-3.08-7.64-4-11.75a97.93,97.93,0,0,1-10.11,1c-3.4,0-6.8-.63-10.46-1C140.08,241.07,140.31,245.55,136.56,248.76Zm52.38-74.41c.47,4.16.62,8.05,1.45,11.89l7.63.48c.26-4.82.46-9.65-1-14.57Zm2,27.33c2.5.32,4.68.66,6.12-1.61a3.83,3.83,0,0,0-.42-4.53c-1.26-1.38-3.37-1.68-5.7-.79ZM111,194.37c-2.49-.31-4.68-.42-6.09,1.81a3.42,3.42,0,0,0,.19,4.1c1.5,2,3.57,1.73,5.9,1.41Z"/><path class="cls-2" d="M58.25,123.93c1,.42,1.71.75,2.46,1,13.44,5.19,21.7,18,20.41,32.32A31.63,31.63,0,0,1,53,185.9c-15.7,1.63-31.79-9-34.41-26.46a31.18,31.18,0,0,1,26.19-36,13.36,13.36,0,0,1,3-.38c2.08.22,2.82-.87,3.46-2.63a107,107,0,0,1,74-66.5c1.22-.31,2.44-.64,3.77-1,1-6.58,3.83-12,9.2-16a21.77,21.77,0,0,1,13.56-4.38,22.07,22.07,0,0,1,14.93,5.89,23.34,23.34,0,0,1,7.32,14.34q57.75,14.5,78.91,70.06c9.53.31,17.67,3.65,24,10.84a30.54,30.54,0,0,1,7.82,20.23,31.51,31.51,0,0,1-61.3,10.89,30.57,30.57,0,0,1,1.87-24.92c4.12-7.91,10.72-13,19.4-15.86A99.18,99.18,0,0,0,173.31,61c-.47,1.14-.81,2.06-1.21,3a21,21,0,0,1-4.75,7A3.84,3.84,0,0,0,166.06,74c.07,2.74,0,5.48,0,8.21.09,4-2.3,8.49-8.33,8.44-4.29,0-8.58,0-12.87,0-5.53,0-8.19-4.1-8.12-8.36,0-2.83.07-5.66,0-8.49a3.84,3.84,0,0,0-.85-2.43,25.29,25.29,0,0,1-6-9.67c0-.16-.23-.27-.58-.64A96.69,96.69,0,0,0,86.5,82.78,98,98,0,0,0,58.25,123.93Zm15,30.49a23.64,23.64,0,1,0-23.53,23.76A23.61,23.61,0,0,0,73.29,154.42Zm156.26.17a23.64,23.64,0,1,0,23.54-23.73A23.61,23.61,0,0,0,229.55,154.59Zm-78-114.1A14.57,14.57,0,0,0,136.78,55a14.65,14.65,0,1,0,29.29.17A14.59,14.59,0,0,0,151.51,40.49ZM158,76.92c-2.43.21-4.51.53-6.59.53s-4.15-.34-6.54-.55c0,1.92-.45,3.84.27,5.72,3.75.52,10.93.37,12.86-.26Z"/><path class="cls-3" d="M145.29,24c.11,3.42-3.19,5.64-5.61,3.89a39.45,39.45,0,0,1-6.39-6.27c-1.11-1.28-.59-3.59.61-4.74a3.63,3.63,0,0,1,4.75-.44,81.12,81.12,0,0,1,6.13,6.17A3.22,3.22,0,0,1,145.29,24Z"/><path class="cls-4" d="M170.34,19.74a13,13,0,0,1-1.45,2.8,57.79,57.79,0,0,1-4.62,4.64c-1.92,1.73-4,1.7-5.6.1a3.86,3.86,0,0,1,.06-5.61c1.53-1.68,3.15-3.28,4.82-4.82a3.7,3.7,0,0,1,4.3-.71A4.29,4.29,0,0,1,170.34,19.74Z"/><path class="cls-5" d="M147.59,16.89c0-1.18-.07-2.37,0-3.54a3.88,3.88,0,0,1,3.87-3.77,3.79,3.79,0,0,1,3.74,3.61,71.74,71.74,0,0,1,0,7.62,3.5,3.5,0,0,1-3.83,3.39,3.56,3.56,0,0,1-3.74-3.5c-.11-1.26,0-2.54,0-3.81Z"/><path class="cls-6" d="M152.65,215.49c-7.13,0-11.3-2.53-14.15-7.3a3.92,3.92,0,0,1,6.06-4.93,21,21,0,0,1,1.28,1.77,6.36,6.36,0,0,0,10.33,0c.28-.36.49-.77.76-1.13,1.52-2,3.61-2.48,5.48-1.26a3.85,3.85,0,0,1,1.14,5.32,19.71,19.71,0,0,1-3.82,4.56A11.68,11.68,0,0,1,152.65,215.49Z"/><path class="cls-7" d="M129.58,188.85c0-2.56,1.59-4.28,3.91-4.28a4,4,0,0,1,4,4.3,4.2,4.2,0,0,1-4.12,4.46C131.11,193.23,129.56,191.38,129.58,188.85Z"/><path class="cls-8" d="M164.64,188.93c0-2.63,1.45-4.27,3.81-4.31s3.91,1.58,4,4.18-1.65,4.58-4,4.53S164.64,191.46,164.64,188.93Z"/><path class="cls-9" d="M231.88,261.21a12.22,12.22,0,1,1-12-12.27A12.16,12.16,0,0,1,231.88,261.21Zm-12.29-4.32a4.15,4.15,0,0,0-4.16,4.17,4.24,4.24,0,1,0,8.47-.16A4.12,4.12,0,0,0,219.59,256.89Z"/><path class="cls-10" d="M45.75,150.47v-3.2c0-3-.06-6,0-9a3.71,3.71,0,0,1,3.72-3.88,3.79,3.79,0,0,1,4.09,3.53,11.07,11.07,0,0,1,.09,1.91q0,6.54,0,13.1a11.06,11.06,0,0,1,0,1.63c-.32,2.47-1.66,3.77-4.14,3.83-3.28.07-6.56.08-9.83,0a3.68,3.68,0,0,1-3.95-3.91c0-2.22,1.36-3.6,3.8-3.78C41.48,150.53,43.47,150.54,45.75,150.47Z"/><path class="cls-11" d="M249,139.67c.8-3.59,1.79-4.73,4.09-4.78s3.49,1.1,4.29,4.56c.51.14,1.11.28,1.7.45a3.76,3.76,0,0,1,3,4.27,3.66,3.66,0,0,1-3.71,3.31c-1.46.11-2.92,0-4.38.07-.89,0-1.78.11-2.77.17v2.91c1.51,0,2.86,0,4.21,0,5,.19,7.72,2.88,7.84,7.86,0,.91,0,1.82,0,2.73.09,3.71-1.52,6.29-5,7.65-.25.1-.48.26-.28.15a36.26,36.26,0,0,1-2.62,4.44,3.1,3.1,0,0,1-2.25.72c-2.89-.09-3.65-2.27-4.1-4.57a19.79,19.79,0,0,1-2.42-.74,3.76,3.76,0,0,1-2.34-3.68,3.67,3.67,0,0,1,2.65-3.46,11,11,0,0,1,2.69-.36c1.81,0,3.62,0,5.68,0,.06-1,.1-1.73.14-2.44-.45-.22-.68-.43-.92-.44-1.37-.06-2.74-.05-4.11-.11A7.36,7.36,0,0,1,243,151c0-.64,0-1.28,0-1.91C242.78,145,243.57,142,249,139.67Z"/></svg>