<svg id="Camada_1" data-name="Camada 1" xmlns="http://www.w3.org/2000/svg" xmlns:xlink="http://www.w3.org/1999/xlink" viewBox="0 0 300 300"><defs><style>.cls-1{fill:url(#_256);}.cls-2{fill:url(#_256-2);}</style><linearGradient id="_256" x1="17.19" y1="151.59" x2="282.81" y2="151.59" gradientUnits="userSpaceOnUse"><stop offset="0" stop-color="#00ffe3"/><stop offset="0.17" stop-color="#08f3e3"/><stop offset="0.46" stop-color="#1fd3e2"/><stop offset="0.86" stop-color="#43a0e0"/><stop offset="0.97" stop-color="#4e90e0"/></linearGradient><linearGradient id="_256-2" x1="108.93" y1="227.94" x2="190.83" y2="227.94" xlink:href="#_256"/></defs><path class="cls-1" d="M28.79,298.84c-5.36-1.74-10.09-4.63-11.2-10.39-.78-4-.3-8.36.37-12.44,3.07-18.7,6.22-37.38,9.72-56,1.82-9.66,7.18-17.44,15-23.44a3.84,3.84,0,0,0,1.81-3.81,67,67,0,0,1-.29-8.61,12.63,12.63,0,0,1,12-12.41c6.78-.35,13.59-.2,20.39-.21,12.65,0,25.3-.1,37.94.06,2.78,0,3.52-1,3.49-3.47,0-4.4,0-8.81,0-13.22a3,3,0,0,0-1-2.16,54.11,54.11,0,0,1-23.74-35.58c-2,0-3.85,0-5.73,0-8.83-.22-15.31-6.29-15.68-15.06-.27-6.31-.24-12.65,0-19,.25-6.68,3.78-11.39,10-13.72,2.13-.8,2.42-1.88,2.42-3.76,0-10-.24-19.94.25-29.88.85-16.93,15.18-30.94,32.14-31.18q33.19-.5,66.39,0c18,.27,32.51,15.8,32.47,34,0,3.38-1.54,5.42-4.16,5.54s-4.3-1.77-4.45-5.16c-.44-10.53-4.84-18.75-14.56-23.21a30.78,30.78,0,0,0-12.19-2.55c-20.12-.25-40.24-.13-60.36-.11-15.87,0-26.59,10.37-26.88,26.25-.21,11.21,0,22.42-.08,33.63,0,1.61.4,2.42,2.07,2.77,1.83.39,3.59,1.12,5.7,1.8V73.93c0-8-.14-15.9.1-23.85a16.83,16.83,0,0,1,15.87-16.32c4.48-.28,9-.16,13.49-.14a18.38,18.38,0,0,1,11.36,4.19c6.05,4.62,10.88,4.61,16.93,0a18.4,18.4,0,0,1,11.36-4.17c4.51,0,9-.13,13.5.15A16.65,16.65,0,0,1,199,49.84c.26,9.09.06,18.19.06,27.7L206.89,75c0-4.67,0-9.26,0-13.85,0-3.42,1.57-5.4,4.15-5.48s4.37,2,4.47,5.53a2.62,2.62,0,0,1,0,.28c-.51,4.28,0,7.44,5,9.36,4.53,1.73,7,6.26,7.24,11.28.28,7,.31,14,0,21-.22,5.6-3.33,9.71-8.26,12.26a3.24,3.24,0,0,0-2.12,3.51c.14,2.48.07,5,0,7.47-.09,5.05-2.51,8.36-7.46,8.44-7.31.11-12.66,2.57-16.84,8.84-2.3,3.44-6.43,5.64-9.58,8.56a5.74,5.74,0,0,0-1.78,3.44c-.22,3.82-.13,7.66-.06,11.49,0,1.41.33,2.81.53,4.43h3.65q27,0,54,0c11.06,0,16.42,5.8,15.54,16.74a6.11,6.11,0,0,1-.07.86c-.68,3.83.31,6.56,3.63,9.24,8.34,6.73,12.37,16,14.08,26.5,2.88,17.56,5.75,35.13,9.06,52.61,1.89,10-.23,17.83-11.36,21.37Zm212.85-25.75c.55-8.84,1.08-17.34,1.61-25.84,1.22-19.88,2.41-39.77,3.68-59.65.37-5.79-1.05-7.48-6.87-7.48H59.55c-5.57,0-7.06,1.56-6.73,7q1.83,30.54,3.69,61.09c.5,8.2,1.07,16.39,1.62,24.7.71.06,1.16.13,1.62.13,3,0,6-.06,8.91.14,2.07.14,3.92,1.27,3.85,3.49a7.23,7.23,0,0,1-2,4.3c-.68.71-2.32.67-3.53.68-6.32.06-12.65,0-19,.05-3.38,0-5.4,1.78-5.32,4.37s2,4,5.26,4.1c.38,0,.76,0,1.15,0H250.61c1,0,2.4.29,3.08-.24,1.31-1,2.79-2.4,3.17-3.89.47-1.87-.85-3.51-2.89-4a18.2,18.2,0,0,0-4-.36H91.62c-1.06,0-2.11,0-3.16-.06-2.46-.19-3.93-1.54-4-4s1.25-4,3.65-4.38a20.59,20.59,0,0,1,3.43-.18H241.64ZM186.21,137.75c-2.74.32-5.51.52-8.22,1a3.68,3.68,0,0,0-2.15,1.82c-1.65,3.14-4,5.53-7.46,6.24a65.73,65.73,0,0,1-11.1,1.34A11,11,0,0,1,146.07,138a11.25,11.25,0,0,1,9.34-12.23c2.73-.48,5.49-.8,8.25-1.1A11.82,11.82,0,0,1,174.41,129a3.84,3.84,0,0,0,2.84,1.09c3.81-.31,7.6-1.24,11.4-1.25,4.27,0,6.06-2,7.42-5.82,4-11.14,1.56-22.57,2.41-33.83-6.32-.61-8-2.5-8-8.7,0-9.68,0-19.35,0-29,0-4.52-2.42-8.53-6.28-8.77-7.85-.5-15.75-2.11-23.09,3.55-6.8,5.26-14.94,5.21-22,.3a22.25,22.25,0,0,0-15.27-4.34c-1.61.13-3.25,0-4.88,0-6.38.12-9.67,3.45-9.68,9.85,0,9.38,0,18.77,0,28.15,0,6.53-1.28,8-7.9,9,0,6.46.08,13,0,19.45a41,41,0,0,0,7.74,24.47c11.76,17,35,25,54.71,19C172.49,149.47,180.14,145,186.21,137.75ZM45.29,206.06c-5.18,4.25-8.71,11.38-10.12,19.79q-4.66,27.72-9.39,55.43c-1.14,6.68,1.91,9.73,8.69,8.65-1.17-11,2.43-15.22,15-17.15C48.06,250.69,46.69,228.56,45.29,206.06Zm205,67c5,0,9.17.94,12.26,4.64s3.67,7.8,2.6,12.29c7.36.74,9.95-2.1,8.74-9.15q-4.74-27.57-9.4-55.16c-1.26-7.42-4-14.09-10-19.91C253.06,228.49,251.69,250.59,250.3,273.06ZM173.05,158c-15.5,6.38-30.89,6.27-46.33.07v13.16h46.33Zm34.08-49.48c2.05,0,3.78.07,5.49,0,3.44-.18,6.46-2.63,6.59-6,.24-6.5.13-13,0-19.52,0-2.18-1.18-3.94-3.65-5,.17,6.19-4.76,5.23-8.41,6.09ZM84,78.33l-1-.55c-.87,1.87-2.38,3.7-2.48,5.61-.33,6.2-.23,12.43-.1,18.65a6.59,6.59,0,0,0,5.36,6.28,44.42,44.42,0,0,0,6.73.07V84.15C85.05,82.21,85.05,82.21,84,78.33Zm73.21,61.4c3.4-.44,5.77-.71,8.14-1,1.74-.25,2.89-1.16,2.66-3.07s-1.63-2.48-3.35-2.31c-2.38.25-4.74.6-7.12.91-1.72.22-3.23,1.1-2.73,2.9C155.14,138.29,156.65,139.15,157.21,139.73Zm51.47-13.46v-9.61c-1.08.68-2.16,1-2.35,1.55-.9,2.75-1.56,5.58-2.37,8.65Z"/><path class="cls-2" d="M150.22,187c22.86.47,41,18.95,40.6,41.33-.41,22.69-19.06,40.92-41.45,40.52-22.56-.41-40.83-19-40.43-41.22C109.36,204.8,127.89,186.57,150.22,187Zm-29.61,54.14c4.64-3.89,5.85-5.93,6.67-11.51.6-4.07,1.09-8.16,1.6-12.24.61-4.88,3.09-7.89,7.7-8.81,5.34-1.07,10.72-2,16.11-2.83a7.07,7.07,0,0,1,7.77,4.16c1.25,2.48.71,5-1.73,7.53-2.74,2.81-5.54,5.57-8.32,8.34-1,1-1.94,2.31-.46,3.34.62.43,2.4,0,3.1-.62,2.91-2.63,5.59-5.52,8.4-8.26,2.59-2.52,5-3,7.51-1.81,3,1.49,4.67,4.1,4.18,7.47-.82,5.58-1.75,11.15-2.89,16.68-.92,4.46-3.84,6.81-8.39,7.38s-8.93,1.14-13.39,1.74a14.78,14.78,0,0,0-10.22,6.1c13.37,5.86,30.12.55,38.56-12.1a32.25,32.25,0,1,0-56.2-4.56Zm9.66,12.49c1.07-1.18,1.95-2.18,2.87-3.15A24,24,0,0,1,148.81,243c3.8-.36,7.59-1,11.36-1.56.64-.1,1.64-.58,1.74-1,.64-3,1.07-6.06,1.58-9.1l-.76-.44c-1.21,1.32-2.35,2.7-3.64,3.94-4.81,4.65-11,4.85-15.37.57s-4.17-10.74.54-15.59c1.27-1.31,2.57-2.58,3.85-3.87a36.85,36.85,0,0,0-8.8,1,3,3,0,0,0-1.8,2,86.84,86.84,0,0,0-1.22,9.1c-.59,7.56-3.23,14.1-9.1,19.14a23.67,23.67,0,0,0-1.86,2Z"/></svg>